M48
; DRILL file {KiCad (6.0.9)} date Mon Nov 13 03:08:17 2023
; FORMAT={-:-/ absolute / inch / decimal}
; #@! TF.CreationDate,2023-11-13T03:08:17-05:00
; #@! TF.GenerationSoftware,Kicad,Pcbnew,(6.0.9)
; #@! TF.FileFunction,Plated,1,4,PTH
FMAT,2
INCH
; #@! TA.AperFunction,Plated,PTH,ViaDrill
T1C0.0157
; #@! TA.AperFunction,Plated,PTH,ComponentDrill
T2C0.0354
; #@! TA.AperFunction,Plated,PTH,ComponentDrill
T3C0.0394
%
G90
G05
T1
X3.8425Y-3.2755
X3.964Y-3.82
X4.128Y-3.714
X4.133Y-2.836
X4.192Y-3.0916
X4.222Y-3.703
X4.224Y-2.834
X4.236Y-3.574
X4.239Y-3.548
X4.2472Y-3.7277
X4.294Y-3.242
X4.31Y-3.089
X4.3683Y-3.3953
X4.424Y-3.077
X4.4885Y-2.9565
X4.52Y-3.538
X4.633Y-3.244
X4.908Y-3.486
T2
X4.05Y-2.8902
X4.05Y-2.9902
X4.05Y-3.0902
X4.05Y-3.1902
X4.05Y-3.2902
X4.05Y-3.3902
X4.05Y-3.4902
X4.05Y-3.5902
X4.75Y-2.8902
X4.75Y-2.9902
X4.75Y-3.0902
X4.75Y-3.1902
X4.75Y-3.2902
X4.75Y-3.3902
X4.75Y-3.4902
X4.75Y-3.5902
T3
X3.85Y-2.9
X3.85Y-3.0
X3.9784Y-3.941
X4.0784Y-3.941
X4.1784Y-3.941
X4.2784Y-3.941
X4.4198Y-3.938
X4.5198Y-3.938
X4.693Y-3.939
X4.793Y-3.939
T0
M30
