%TF.GenerationSoftware,KiCad,Pcbnew,(6.0.9)*%
%TF.CreationDate,2023-11-13T03:08:19-05:00*%
%TF.ProjectId,ALRT_v1,414c5254-5f76-4312-9e6b-696361645f70,rev?*%
%TF.SameCoordinates,Original*%
%TF.FileFunction,Drillmap*%
%TF.FilePolarity,Positive*%
%FSLAX45Y45*%
G04 Gerber Fmt 4.5, Leading zero omitted, Abs format (unit mm)*
G04 Created by KiCad (PCBNEW (6.0.9)) date 2023-11-13 03:08:19*
%MOMM*%
%LPD*%
G01*
G04 APERTURE LIST*
%ADD10C,0.100000*%
%ADD11C,0.200000*%
%ADD12C,0.040000*%
%ADD13C,0.090000*%
G04 APERTURE END LIST*
D10*
X9652000Y-7112000D02*
X12700000Y-7112000D01*
X12700000Y-7112000D02*
X12700000Y-10160000D01*
X12700000Y-10160000D02*
X9652000Y-10160000D01*
X9652000Y-10160000D02*
X9652000Y-7112000D01*
D11*
D12*
X9740000Y-8299820D02*
X9780000Y-8339820D01*
X9780000Y-8299820D02*
X9740000Y-8339820D01*
X10048560Y-9682800D02*
X10088560Y-9722800D01*
X10088560Y-9682800D02*
X10048560Y-9722800D01*
X10465120Y-9413560D02*
X10505120Y-9453560D01*
X10505120Y-9413560D02*
X10465120Y-9453560D01*
X10477820Y-7183440D02*
X10517820Y-7223440D01*
X10517820Y-7183440D02*
X10477820Y-7223440D01*
X10627680Y-7832568D02*
X10667680Y-7872568D01*
X10667680Y-7832568D02*
X10627680Y-7872568D01*
X10703880Y-9385620D02*
X10743880Y-9425620D01*
X10743880Y-9385620D02*
X10703880Y-9425620D01*
X10708960Y-7178360D02*
X10748960Y-7218360D01*
X10748960Y-7178360D02*
X10708960Y-7218360D01*
X10739440Y-9057960D02*
X10779440Y-9097960D01*
X10779440Y-9057960D02*
X10739440Y-9097960D01*
X10747060Y-8991920D02*
X10787060Y-9031920D01*
X10787060Y-8991920D02*
X10747060Y-9031920D01*
X10767855Y-9448315D02*
X10807855Y-9488315D01*
X10807855Y-9448315D02*
X10767855Y-9488315D01*
X10886760Y-8214680D02*
X10926760Y-8254680D01*
X10926760Y-8214680D02*
X10886760Y-8254680D01*
X10927400Y-7826060D02*
X10967400Y-7866060D01*
X10967400Y-7826060D02*
X10927400Y-7866060D01*
X11075540Y-8604120D02*
X11115540Y-8644120D01*
X11115540Y-8604120D02*
X11075540Y-8644120D01*
X11216960Y-7795580D02*
X11256960Y-7835580D01*
X11256960Y-7795580D02*
X11216960Y-7835580D01*
X11380820Y-7489480D02*
X11420820Y-7529480D01*
X11420820Y-7489480D02*
X11380820Y-7529480D01*
X11460800Y-8966520D02*
X11500800Y-9006520D01*
X11500800Y-8966520D02*
X11460800Y-9006520D01*
X11747820Y-8219760D02*
X11787820Y-8259760D01*
X11787820Y-8219760D02*
X11747820Y-8259760D01*
X12446320Y-8834440D02*
X12486320Y-8874440D01*
X12486320Y-8834440D02*
X12446320Y-8874440D01*
D13*
X10332000Y-7341000D02*
G75*
G03*
X10332000Y-7341000I-45000J0D01*
G01*
X10332000Y-7595000D02*
G75*
G03*
X10332000Y-7595000I-45000J0D01*
G01*
X10332000Y-7849000D02*
G75*
G03*
X10332000Y-7849000I-45000J0D01*
G01*
X10332000Y-8103000D02*
G75*
G03*
X10332000Y-8103000I-45000J0D01*
G01*
X10332000Y-8357000D02*
G75*
G03*
X10332000Y-8357000I-45000J0D01*
G01*
X10332000Y-8611000D02*
G75*
G03*
X10332000Y-8611000I-45000J0D01*
G01*
X10332000Y-8865000D02*
G75*
G03*
X10332000Y-8865000I-45000J0D01*
G01*
X10332000Y-9119000D02*
G75*
G03*
X10332000Y-9119000I-45000J0D01*
G01*
X12110000Y-7341000D02*
G75*
G03*
X12110000Y-7341000I-45000J0D01*
G01*
X12110000Y-7595000D02*
G75*
G03*
X12110000Y-7595000I-45000J0D01*
G01*
X12110000Y-7849000D02*
G75*
G03*
X12110000Y-7849000I-45000J0D01*
G01*
X12110000Y-8103000D02*
G75*
G03*
X12110000Y-8103000I-45000J0D01*
G01*
X12110000Y-8357000D02*
G75*
G03*
X12110000Y-8357000I-45000J0D01*
G01*
X12110000Y-8611000D02*
G75*
G03*
X12110000Y-8611000I-45000J0D01*
G01*
X12110000Y-8865000D02*
G75*
G03*
X12110000Y-8865000I-45000J0D01*
G01*
X12110000Y-9119000D02*
G75*
G03*
X12110000Y-9119000I-45000J0D01*
G01*
D10*
X9779000Y-7316000D02*
X9779000Y-7416000D01*
X9729000Y-7366000D02*
X9829000Y-7366000D01*
X9779000Y-7570000D02*
X9779000Y-7670000D01*
X9729000Y-7620000D02*
X9829000Y-7620000D01*
X10105120Y-9960140D02*
X10105120Y-10060140D01*
X10055120Y-10010140D02*
X10155120Y-10010140D01*
X10359120Y-9960140D02*
X10359120Y-10060140D01*
X10309120Y-10010140D02*
X10409120Y-10010140D01*
X10613120Y-9960140D02*
X10613120Y-10060140D01*
X10563120Y-10010140D02*
X10663120Y-10010140D01*
X10867120Y-9960140D02*
X10867120Y-10060140D01*
X10817120Y-10010140D02*
X10917120Y-10010140D01*
X11226300Y-9952520D02*
X11226300Y-10052520D01*
X11176300Y-10002520D02*
X11276300Y-10002520D01*
X11480300Y-9952520D02*
X11480300Y-10052520D01*
X11430300Y-10002520D02*
X11530300Y-10002520D01*
X11920220Y-9955060D02*
X11920220Y-10055060D01*
X11870220Y-10005060D02*
X11970220Y-10005060D01*
X12174220Y-9955060D02*
X12174220Y-10055060D01*
X12124220Y-10005060D02*
X12224220Y-10005060D01*
D11*
X9904619Y-10475476D02*
X9904619Y-10275476D01*
X9952238Y-10275476D01*
X9980810Y-10285000D01*
X9999857Y-10304048D01*
X10009381Y-10323095D01*
X10018905Y-10361190D01*
X10018905Y-10389762D01*
X10009381Y-10427857D01*
X9999857Y-10446905D01*
X9980810Y-10465952D01*
X9952238Y-10475476D01*
X9904619Y-10475476D01*
X10104619Y-10475476D02*
X10104619Y-10342143D01*
X10104619Y-10380238D02*
X10114143Y-10361190D01*
X10123667Y-10351667D01*
X10142714Y-10342143D01*
X10161762Y-10342143D01*
X10228429Y-10475476D02*
X10228429Y-10342143D01*
X10228429Y-10275476D02*
X10218905Y-10285000D01*
X10228429Y-10294524D01*
X10237952Y-10285000D01*
X10228429Y-10275476D01*
X10228429Y-10294524D01*
X10352238Y-10475476D02*
X10333190Y-10465952D01*
X10323667Y-10446905D01*
X10323667Y-10275476D01*
X10457000Y-10475476D02*
X10437952Y-10465952D01*
X10428429Y-10446905D01*
X10428429Y-10275476D01*
X10685571Y-10475476D02*
X10685571Y-10275476D01*
X10752238Y-10418333D01*
X10818905Y-10275476D01*
X10818905Y-10475476D01*
X10999857Y-10475476D02*
X10999857Y-10370714D01*
X10990333Y-10351667D01*
X10971286Y-10342143D01*
X10933190Y-10342143D01*
X10914143Y-10351667D01*
X10999857Y-10465952D02*
X10980810Y-10475476D01*
X10933190Y-10475476D01*
X10914143Y-10465952D01*
X10904619Y-10446905D01*
X10904619Y-10427857D01*
X10914143Y-10408810D01*
X10933190Y-10399286D01*
X10980810Y-10399286D01*
X10999857Y-10389762D01*
X11095095Y-10342143D02*
X11095095Y-10542143D01*
X11095095Y-10351667D02*
X11114143Y-10342143D01*
X11152238Y-10342143D01*
X11171286Y-10351667D01*
X11180810Y-10361190D01*
X11190333Y-10380238D01*
X11190333Y-10437381D01*
X11180810Y-10456429D01*
X11171286Y-10465952D01*
X11152238Y-10475476D01*
X11114143Y-10475476D01*
X11095095Y-10465952D01*
X11276048Y-10456429D02*
X11285571Y-10465952D01*
X11276048Y-10475476D01*
X11266524Y-10465952D01*
X11276048Y-10456429D01*
X11276048Y-10475476D01*
X11276048Y-10351667D02*
X11285571Y-10361190D01*
X11276048Y-10370714D01*
X11266524Y-10361190D01*
X11276048Y-10351667D01*
X11276048Y-10370714D01*
D12*
X9607000Y-10785000D02*
X9647000Y-10825000D01*
X9647000Y-10785000D02*
X9607000Y-10825000D01*
D11*
X9942714Y-10695476D02*
X9961762Y-10695476D01*
X9980810Y-10705000D01*
X9990333Y-10714524D01*
X9999857Y-10733571D01*
X10009381Y-10771667D01*
X10009381Y-10819286D01*
X9999857Y-10857381D01*
X9990333Y-10876429D01*
X9980810Y-10885952D01*
X9961762Y-10895476D01*
X9942714Y-10895476D01*
X9923667Y-10885952D01*
X9914143Y-10876429D01*
X9904619Y-10857381D01*
X9895095Y-10819286D01*
X9895095Y-10771667D01*
X9904619Y-10733571D01*
X9914143Y-10714524D01*
X9923667Y-10705000D01*
X9942714Y-10695476D01*
X10095095Y-10876429D02*
X10104619Y-10885952D01*
X10095095Y-10895476D01*
X10085571Y-10885952D01*
X10095095Y-10876429D01*
X10095095Y-10895476D01*
X10276048Y-10762143D02*
X10276048Y-10895476D01*
X10228429Y-10685952D02*
X10180810Y-10828810D01*
X10304619Y-10828810D01*
X10418905Y-10695476D02*
X10437952Y-10695476D01*
X10457000Y-10705000D01*
X10466524Y-10714524D01*
X10476048Y-10733571D01*
X10485571Y-10771667D01*
X10485571Y-10819286D01*
X10476048Y-10857381D01*
X10466524Y-10876429D01*
X10457000Y-10885952D01*
X10437952Y-10895476D01*
X10418905Y-10895476D01*
X10399857Y-10885952D01*
X10390333Y-10876429D01*
X10380810Y-10857381D01*
X10371286Y-10819286D01*
X10371286Y-10771667D01*
X10380810Y-10733571D01*
X10390333Y-10714524D01*
X10399857Y-10705000D01*
X10418905Y-10695476D01*
X10609381Y-10695476D02*
X10628429Y-10695476D01*
X10647476Y-10705000D01*
X10657000Y-10714524D01*
X10666524Y-10733571D01*
X10676048Y-10771667D01*
X10676048Y-10819286D01*
X10666524Y-10857381D01*
X10657000Y-10876429D01*
X10647476Y-10885952D01*
X10628429Y-10895476D01*
X10609381Y-10895476D01*
X10590333Y-10885952D01*
X10580810Y-10876429D01*
X10571286Y-10857381D01*
X10561762Y-10819286D01*
X10561762Y-10771667D01*
X10571286Y-10733571D01*
X10580810Y-10714524D01*
X10590333Y-10705000D01*
X10609381Y-10695476D01*
X10761762Y-10895476D02*
X10761762Y-10762143D01*
X10761762Y-10781190D02*
X10771286Y-10771667D01*
X10790333Y-10762143D01*
X10818905Y-10762143D01*
X10837952Y-10771667D01*
X10847476Y-10790714D01*
X10847476Y-10895476D01*
X10847476Y-10790714D02*
X10857000Y-10771667D01*
X10876048Y-10762143D01*
X10904619Y-10762143D01*
X10923667Y-10771667D01*
X10933190Y-10790714D01*
X10933190Y-10895476D01*
X11028429Y-10895476D02*
X11028429Y-10762143D01*
X11028429Y-10781190D02*
X11037952Y-10771667D01*
X11057000Y-10762143D01*
X11085571Y-10762143D01*
X11104619Y-10771667D01*
X11114143Y-10790714D01*
X11114143Y-10895476D01*
X11114143Y-10790714D02*
X11123667Y-10771667D01*
X11142714Y-10762143D01*
X11171286Y-10762143D01*
X11190333Y-10771667D01*
X11199857Y-10790714D01*
X11199857Y-10895476D01*
X11590333Y-10685952D02*
X11418905Y-10943095D01*
X11847476Y-10695476D02*
X11866524Y-10695476D01*
X11885571Y-10705000D01*
X11895095Y-10714524D01*
X11904619Y-10733571D01*
X11914143Y-10771667D01*
X11914143Y-10819286D01*
X11904619Y-10857381D01*
X11895095Y-10876429D01*
X11885571Y-10885952D01*
X11866524Y-10895476D01*
X11847476Y-10895476D01*
X11828428Y-10885952D01*
X11818905Y-10876429D01*
X11809381Y-10857381D01*
X11799857Y-10819286D01*
X11799857Y-10771667D01*
X11809381Y-10733571D01*
X11818905Y-10714524D01*
X11828428Y-10705000D01*
X11847476Y-10695476D01*
X11999857Y-10876429D02*
X12009381Y-10885952D01*
X11999857Y-10895476D01*
X11990333Y-10885952D01*
X11999857Y-10876429D01*
X11999857Y-10895476D01*
X12133190Y-10695476D02*
X12152238Y-10695476D01*
X12171286Y-10705000D01*
X12180809Y-10714524D01*
X12190333Y-10733571D01*
X12199857Y-10771667D01*
X12199857Y-10819286D01*
X12190333Y-10857381D01*
X12180809Y-10876429D01*
X12171286Y-10885952D01*
X12152238Y-10895476D01*
X12133190Y-10895476D01*
X12114143Y-10885952D01*
X12104619Y-10876429D01*
X12095095Y-10857381D01*
X12085571Y-10819286D01*
X12085571Y-10771667D01*
X12095095Y-10733571D01*
X12104619Y-10714524D01*
X12114143Y-10705000D01*
X12133190Y-10695476D01*
X12390333Y-10895476D02*
X12276048Y-10895476D01*
X12333190Y-10895476D02*
X12333190Y-10695476D01*
X12314143Y-10724048D01*
X12295095Y-10743095D01*
X12276048Y-10752619D01*
X12571286Y-10695476D02*
X12476048Y-10695476D01*
X12466524Y-10790714D01*
X12476048Y-10781190D01*
X12495095Y-10771667D01*
X12542714Y-10771667D01*
X12561762Y-10781190D01*
X12571286Y-10790714D01*
X12580809Y-10809762D01*
X12580809Y-10857381D01*
X12571286Y-10876429D01*
X12561762Y-10885952D01*
X12542714Y-10895476D01*
X12495095Y-10895476D01*
X12476048Y-10885952D01*
X12466524Y-10876429D01*
X12647476Y-10695476D02*
X12780809Y-10695476D01*
X12695095Y-10895476D01*
X12847476Y-10695476D02*
X12847476Y-10733571D01*
X12923667Y-10695476D02*
X12923667Y-10733571D01*
X13218905Y-10971667D02*
X13209381Y-10962143D01*
X13190333Y-10933571D01*
X13180809Y-10914524D01*
X13171286Y-10885952D01*
X13161762Y-10838333D01*
X13161762Y-10800238D01*
X13171286Y-10752619D01*
X13180809Y-10724048D01*
X13190333Y-10705000D01*
X13209381Y-10676429D01*
X13218905Y-10666905D01*
X13399857Y-10895476D02*
X13285571Y-10895476D01*
X13342714Y-10895476D02*
X13342714Y-10695476D01*
X13323667Y-10724048D01*
X13304619Y-10743095D01*
X13285571Y-10752619D01*
X13514143Y-10781190D02*
X13495095Y-10771667D01*
X13485571Y-10762143D01*
X13476048Y-10743095D01*
X13476048Y-10733571D01*
X13485571Y-10714524D01*
X13495095Y-10705000D01*
X13514143Y-10695476D01*
X13552238Y-10695476D01*
X13571286Y-10705000D01*
X13580809Y-10714524D01*
X13590333Y-10733571D01*
X13590333Y-10743095D01*
X13580809Y-10762143D01*
X13571286Y-10771667D01*
X13552238Y-10781190D01*
X13514143Y-10781190D01*
X13495095Y-10790714D01*
X13485571Y-10800238D01*
X13476048Y-10819286D01*
X13476048Y-10857381D01*
X13485571Y-10876429D01*
X13495095Y-10885952D01*
X13514143Y-10895476D01*
X13552238Y-10895476D01*
X13571286Y-10885952D01*
X13580809Y-10876429D01*
X13590333Y-10857381D01*
X13590333Y-10819286D01*
X13580809Y-10800238D01*
X13571286Y-10790714D01*
X13552238Y-10781190D01*
X13828428Y-10895476D02*
X13828428Y-10695476D01*
X13914143Y-10895476D02*
X13914143Y-10790714D01*
X13904619Y-10771667D01*
X13885571Y-10762143D01*
X13857000Y-10762143D01*
X13837952Y-10771667D01*
X13828428Y-10781190D01*
X14037952Y-10895476D02*
X14018905Y-10885952D01*
X14009381Y-10876429D01*
X13999857Y-10857381D01*
X13999857Y-10800238D01*
X14009381Y-10781190D01*
X14018905Y-10771667D01*
X14037952Y-10762143D01*
X14066524Y-10762143D01*
X14085571Y-10771667D01*
X14095095Y-10781190D01*
X14104619Y-10800238D01*
X14104619Y-10857381D01*
X14095095Y-10876429D01*
X14085571Y-10885952D01*
X14066524Y-10895476D01*
X14037952Y-10895476D01*
X14218905Y-10895476D02*
X14199857Y-10885952D01*
X14190333Y-10866905D01*
X14190333Y-10695476D01*
X14371286Y-10885952D02*
X14352238Y-10895476D01*
X14314143Y-10895476D01*
X14295095Y-10885952D01*
X14285571Y-10866905D01*
X14285571Y-10790714D01*
X14295095Y-10771667D01*
X14314143Y-10762143D01*
X14352238Y-10762143D01*
X14371286Y-10771667D01*
X14380809Y-10790714D01*
X14380809Y-10809762D01*
X14285571Y-10828810D01*
X14457000Y-10885952D02*
X14476048Y-10895476D01*
X14514143Y-10895476D01*
X14533190Y-10885952D01*
X14542714Y-10866905D01*
X14542714Y-10857381D01*
X14533190Y-10838333D01*
X14514143Y-10828810D01*
X14485571Y-10828810D01*
X14466524Y-10819286D01*
X14457000Y-10800238D01*
X14457000Y-10790714D01*
X14466524Y-10771667D01*
X14485571Y-10762143D01*
X14514143Y-10762143D01*
X14533190Y-10771667D01*
X14609381Y-10971667D02*
X14618905Y-10962143D01*
X14637952Y-10933571D01*
X14647476Y-10914524D01*
X14657000Y-10885952D01*
X14666524Y-10838333D01*
X14666524Y-10800238D01*
X14657000Y-10752619D01*
X14647476Y-10724048D01*
X14637952Y-10705000D01*
X14618905Y-10676429D01*
X14609381Y-10666905D01*
D13*
X9647000Y-11069000D02*
G75*
G03*
X9647000Y-11069000I-45000J0D01*
G01*
D11*
X9942714Y-10959476D02*
X9961762Y-10959476D01*
X9980810Y-10969000D01*
X9990333Y-10978524D01*
X9999857Y-10997571D01*
X10009381Y-11035667D01*
X10009381Y-11083286D01*
X9999857Y-11121381D01*
X9990333Y-11140429D01*
X9980810Y-11149952D01*
X9961762Y-11159476D01*
X9942714Y-11159476D01*
X9923667Y-11149952D01*
X9914143Y-11140429D01*
X9904619Y-11121381D01*
X9895095Y-11083286D01*
X9895095Y-11035667D01*
X9904619Y-10997571D01*
X9914143Y-10978524D01*
X9923667Y-10969000D01*
X9942714Y-10959476D01*
X10095095Y-11140429D02*
X10104619Y-11149952D01*
X10095095Y-11159476D01*
X10085571Y-11149952D01*
X10095095Y-11140429D01*
X10095095Y-11159476D01*
X10199857Y-11159476D02*
X10237952Y-11159476D01*
X10257000Y-11149952D01*
X10266524Y-11140429D01*
X10285571Y-11111857D01*
X10295095Y-11073762D01*
X10295095Y-10997571D01*
X10285571Y-10978524D01*
X10276048Y-10969000D01*
X10257000Y-10959476D01*
X10218905Y-10959476D01*
X10199857Y-10969000D01*
X10190333Y-10978524D01*
X10180810Y-10997571D01*
X10180810Y-11045190D01*
X10190333Y-11064238D01*
X10199857Y-11073762D01*
X10218905Y-11083286D01*
X10257000Y-11083286D01*
X10276048Y-11073762D01*
X10285571Y-11064238D01*
X10295095Y-11045190D01*
X10418905Y-10959476D02*
X10437952Y-10959476D01*
X10457000Y-10969000D01*
X10466524Y-10978524D01*
X10476048Y-10997571D01*
X10485571Y-11035667D01*
X10485571Y-11083286D01*
X10476048Y-11121381D01*
X10466524Y-11140429D01*
X10457000Y-11149952D01*
X10437952Y-11159476D01*
X10418905Y-11159476D01*
X10399857Y-11149952D01*
X10390333Y-11140429D01*
X10380810Y-11121381D01*
X10371286Y-11083286D01*
X10371286Y-11035667D01*
X10380810Y-10997571D01*
X10390333Y-10978524D01*
X10399857Y-10969000D01*
X10418905Y-10959476D01*
X10609381Y-10959476D02*
X10628429Y-10959476D01*
X10647476Y-10969000D01*
X10657000Y-10978524D01*
X10666524Y-10997571D01*
X10676048Y-11035667D01*
X10676048Y-11083286D01*
X10666524Y-11121381D01*
X10657000Y-11140429D01*
X10647476Y-11149952D01*
X10628429Y-11159476D01*
X10609381Y-11159476D01*
X10590333Y-11149952D01*
X10580810Y-11140429D01*
X10571286Y-11121381D01*
X10561762Y-11083286D01*
X10561762Y-11035667D01*
X10571286Y-10997571D01*
X10580810Y-10978524D01*
X10590333Y-10969000D01*
X10609381Y-10959476D01*
X10761762Y-11159476D02*
X10761762Y-11026143D01*
X10761762Y-11045190D02*
X10771286Y-11035667D01*
X10790333Y-11026143D01*
X10818905Y-11026143D01*
X10837952Y-11035667D01*
X10847476Y-11054714D01*
X10847476Y-11159476D01*
X10847476Y-11054714D02*
X10857000Y-11035667D01*
X10876048Y-11026143D01*
X10904619Y-11026143D01*
X10923667Y-11035667D01*
X10933190Y-11054714D01*
X10933190Y-11159476D01*
X11028429Y-11159476D02*
X11028429Y-11026143D01*
X11028429Y-11045190D02*
X11037952Y-11035667D01*
X11057000Y-11026143D01*
X11085571Y-11026143D01*
X11104619Y-11035667D01*
X11114143Y-11054714D01*
X11114143Y-11159476D01*
X11114143Y-11054714D02*
X11123667Y-11035667D01*
X11142714Y-11026143D01*
X11171286Y-11026143D01*
X11190333Y-11035667D01*
X11199857Y-11054714D01*
X11199857Y-11159476D01*
X11590333Y-10949952D02*
X11418905Y-11207095D01*
X11847476Y-10959476D02*
X11866524Y-10959476D01*
X11885571Y-10969000D01*
X11895095Y-10978524D01*
X11904619Y-10997571D01*
X11914143Y-11035667D01*
X11914143Y-11083286D01*
X11904619Y-11121381D01*
X11895095Y-11140429D01*
X11885571Y-11149952D01*
X11866524Y-11159476D01*
X11847476Y-11159476D01*
X11828428Y-11149952D01*
X11818905Y-11140429D01*
X11809381Y-11121381D01*
X11799857Y-11083286D01*
X11799857Y-11035667D01*
X11809381Y-10997571D01*
X11818905Y-10978524D01*
X11828428Y-10969000D01*
X11847476Y-10959476D01*
X11999857Y-11140429D02*
X12009381Y-11149952D01*
X11999857Y-11159476D01*
X11990333Y-11149952D01*
X11999857Y-11140429D01*
X11999857Y-11159476D01*
X12133190Y-10959476D02*
X12152238Y-10959476D01*
X12171286Y-10969000D01*
X12180809Y-10978524D01*
X12190333Y-10997571D01*
X12199857Y-11035667D01*
X12199857Y-11083286D01*
X12190333Y-11121381D01*
X12180809Y-11140429D01*
X12171286Y-11149952D01*
X12152238Y-11159476D01*
X12133190Y-11159476D01*
X12114143Y-11149952D01*
X12104619Y-11140429D01*
X12095095Y-11121381D01*
X12085571Y-11083286D01*
X12085571Y-11035667D01*
X12095095Y-10997571D01*
X12104619Y-10978524D01*
X12114143Y-10969000D01*
X12133190Y-10959476D01*
X12266524Y-10959476D02*
X12390333Y-10959476D01*
X12323667Y-11035667D01*
X12352238Y-11035667D01*
X12371286Y-11045190D01*
X12380809Y-11054714D01*
X12390333Y-11073762D01*
X12390333Y-11121381D01*
X12380809Y-11140429D01*
X12371286Y-11149952D01*
X12352238Y-11159476D01*
X12295095Y-11159476D01*
X12276048Y-11149952D01*
X12266524Y-11140429D01*
X12571286Y-10959476D02*
X12476048Y-10959476D01*
X12466524Y-11054714D01*
X12476048Y-11045190D01*
X12495095Y-11035667D01*
X12542714Y-11035667D01*
X12561762Y-11045190D01*
X12571286Y-11054714D01*
X12580809Y-11073762D01*
X12580809Y-11121381D01*
X12571286Y-11140429D01*
X12561762Y-11149952D01*
X12542714Y-11159476D01*
X12495095Y-11159476D01*
X12476048Y-11149952D01*
X12466524Y-11140429D01*
X12752238Y-11026143D02*
X12752238Y-11159476D01*
X12704619Y-10949952D02*
X12657000Y-11092810D01*
X12780809Y-11092810D01*
X12847476Y-10959476D02*
X12847476Y-10997571D01*
X12923667Y-10959476D02*
X12923667Y-10997571D01*
X13218905Y-11235667D02*
X13209381Y-11226143D01*
X13190333Y-11197571D01*
X13180809Y-11178524D01*
X13171286Y-11149952D01*
X13161762Y-11102333D01*
X13161762Y-11064238D01*
X13171286Y-11016619D01*
X13180809Y-10988048D01*
X13190333Y-10969000D01*
X13209381Y-10940429D01*
X13218905Y-10930905D01*
X13399857Y-11159476D02*
X13285571Y-11159476D01*
X13342714Y-11159476D02*
X13342714Y-10959476D01*
X13323667Y-10988048D01*
X13304619Y-11007095D01*
X13285571Y-11016619D01*
X13571286Y-10959476D02*
X13533190Y-10959476D01*
X13514143Y-10969000D01*
X13504619Y-10978524D01*
X13485571Y-11007095D01*
X13476048Y-11045190D01*
X13476048Y-11121381D01*
X13485571Y-11140429D01*
X13495095Y-11149952D01*
X13514143Y-11159476D01*
X13552238Y-11159476D01*
X13571286Y-11149952D01*
X13580809Y-11140429D01*
X13590333Y-11121381D01*
X13590333Y-11073762D01*
X13580809Y-11054714D01*
X13571286Y-11045190D01*
X13552238Y-11035667D01*
X13514143Y-11035667D01*
X13495095Y-11045190D01*
X13485571Y-11054714D01*
X13476048Y-11073762D01*
X13828428Y-11159476D02*
X13828428Y-10959476D01*
X13914143Y-11159476D02*
X13914143Y-11054714D01*
X13904619Y-11035667D01*
X13885571Y-11026143D01*
X13857000Y-11026143D01*
X13837952Y-11035667D01*
X13828428Y-11045190D01*
X14037952Y-11159476D02*
X14018905Y-11149952D01*
X14009381Y-11140429D01*
X13999857Y-11121381D01*
X13999857Y-11064238D01*
X14009381Y-11045190D01*
X14018905Y-11035667D01*
X14037952Y-11026143D01*
X14066524Y-11026143D01*
X14085571Y-11035667D01*
X14095095Y-11045190D01*
X14104619Y-11064238D01*
X14104619Y-11121381D01*
X14095095Y-11140429D01*
X14085571Y-11149952D01*
X14066524Y-11159476D01*
X14037952Y-11159476D01*
X14218905Y-11159476D02*
X14199857Y-11149952D01*
X14190333Y-11130905D01*
X14190333Y-10959476D01*
X14371286Y-11149952D02*
X14352238Y-11159476D01*
X14314143Y-11159476D01*
X14295095Y-11149952D01*
X14285571Y-11130905D01*
X14285571Y-11054714D01*
X14295095Y-11035667D01*
X14314143Y-11026143D01*
X14352238Y-11026143D01*
X14371286Y-11035667D01*
X14380809Y-11054714D01*
X14380809Y-11073762D01*
X14285571Y-11092810D01*
X14457000Y-11149952D02*
X14476048Y-11159476D01*
X14514143Y-11159476D01*
X14533190Y-11149952D01*
X14542714Y-11130905D01*
X14542714Y-11121381D01*
X14533190Y-11102333D01*
X14514143Y-11092810D01*
X14485571Y-11092810D01*
X14466524Y-11083286D01*
X14457000Y-11064238D01*
X14457000Y-11054714D01*
X14466524Y-11035667D01*
X14485571Y-11026143D01*
X14514143Y-11026143D01*
X14533190Y-11035667D01*
X14609381Y-11235667D02*
X14618905Y-11226143D01*
X14637952Y-11197571D01*
X14647476Y-11178524D01*
X14657000Y-11149952D01*
X14666524Y-11102333D01*
X14666524Y-11064238D01*
X14657000Y-11016619D01*
X14647476Y-10988048D01*
X14637952Y-10969000D01*
X14618905Y-10940429D01*
X14609381Y-10930905D01*
D10*
X9597000Y-11283000D02*
X9597000Y-11383000D01*
X9547000Y-11333000D02*
X9647000Y-11333000D01*
D11*
X10009381Y-11423476D02*
X9895095Y-11423476D01*
X9952238Y-11423476D02*
X9952238Y-11223476D01*
X9933190Y-11252048D01*
X9914143Y-11271095D01*
X9895095Y-11280619D01*
X10095095Y-11404428D02*
X10104619Y-11413952D01*
X10095095Y-11423476D01*
X10085571Y-11413952D01*
X10095095Y-11404428D01*
X10095095Y-11423476D01*
X10228429Y-11223476D02*
X10247476Y-11223476D01*
X10266524Y-11233000D01*
X10276048Y-11242524D01*
X10285571Y-11261571D01*
X10295095Y-11299667D01*
X10295095Y-11347286D01*
X10285571Y-11385381D01*
X10276048Y-11404428D01*
X10266524Y-11413952D01*
X10247476Y-11423476D01*
X10228429Y-11423476D01*
X10209381Y-11413952D01*
X10199857Y-11404428D01*
X10190333Y-11385381D01*
X10180810Y-11347286D01*
X10180810Y-11299667D01*
X10190333Y-11261571D01*
X10199857Y-11242524D01*
X10209381Y-11233000D01*
X10228429Y-11223476D01*
X10418905Y-11223476D02*
X10437952Y-11223476D01*
X10457000Y-11233000D01*
X10466524Y-11242524D01*
X10476048Y-11261571D01*
X10485571Y-11299667D01*
X10485571Y-11347286D01*
X10476048Y-11385381D01*
X10466524Y-11404428D01*
X10457000Y-11413952D01*
X10437952Y-11423476D01*
X10418905Y-11423476D01*
X10399857Y-11413952D01*
X10390333Y-11404428D01*
X10380810Y-11385381D01*
X10371286Y-11347286D01*
X10371286Y-11299667D01*
X10380810Y-11261571D01*
X10390333Y-11242524D01*
X10399857Y-11233000D01*
X10418905Y-11223476D01*
X10609381Y-11223476D02*
X10628429Y-11223476D01*
X10647476Y-11233000D01*
X10657000Y-11242524D01*
X10666524Y-11261571D01*
X10676048Y-11299667D01*
X10676048Y-11347286D01*
X10666524Y-11385381D01*
X10657000Y-11404428D01*
X10647476Y-11413952D01*
X10628429Y-11423476D01*
X10609381Y-11423476D01*
X10590333Y-11413952D01*
X10580810Y-11404428D01*
X10571286Y-11385381D01*
X10561762Y-11347286D01*
X10561762Y-11299667D01*
X10571286Y-11261571D01*
X10580810Y-11242524D01*
X10590333Y-11233000D01*
X10609381Y-11223476D01*
X10761762Y-11423476D02*
X10761762Y-11290143D01*
X10761762Y-11309190D02*
X10771286Y-11299667D01*
X10790333Y-11290143D01*
X10818905Y-11290143D01*
X10837952Y-11299667D01*
X10847476Y-11318714D01*
X10847476Y-11423476D01*
X10847476Y-11318714D02*
X10857000Y-11299667D01*
X10876048Y-11290143D01*
X10904619Y-11290143D01*
X10923667Y-11299667D01*
X10933190Y-11318714D01*
X10933190Y-11423476D01*
X11028429Y-11423476D02*
X11028429Y-11290143D01*
X11028429Y-11309190D02*
X11037952Y-11299667D01*
X11057000Y-11290143D01*
X11085571Y-11290143D01*
X11104619Y-11299667D01*
X11114143Y-11318714D01*
X11114143Y-11423476D01*
X11114143Y-11318714D02*
X11123667Y-11299667D01*
X11142714Y-11290143D01*
X11171286Y-11290143D01*
X11190333Y-11299667D01*
X11199857Y-11318714D01*
X11199857Y-11423476D01*
X11590333Y-11213952D02*
X11418905Y-11471095D01*
X11847476Y-11223476D02*
X11866524Y-11223476D01*
X11885571Y-11233000D01*
X11895095Y-11242524D01*
X11904619Y-11261571D01*
X11914143Y-11299667D01*
X11914143Y-11347286D01*
X11904619Y-11385381D01*
X11895095Y-11404428D01*
X11885571Y-11413952D01*
X11866524Y-11423476D01*
X11847476Y-11423476D01*
X11828428Y-11413952D01*
X11818905Y-11404428D01*
X11809381Y-11385381D01*
X11799857Y-11347286D01*
X11799857Y-11299667D01*
X11809381Y-11261571D01*
X11818905Y-11242524D01*
X11828428Y-11233000D01*
X11847476Y-11223476D01*
X11999857Y-11404428D02*
X12009381Y-11413952D01*
X11999857Y-11423476D01*
X11990333Y-11413952D01*
X11999857Y-11404428D01*
X11999857Y-11423476D01*
X12133190Y-11223476D02*
X12152238Y-11223476D01*
X12171286Y-11233000D01*
X12180809Y-11242524D01*
X12190333Y-11261571D01*
X12199857Y-11299667D01*
X12199857Y-11347286D01*
X12190333Y-11385381D01*
X12180809Y-11404428D01*
X12171286Y-11413952D01*
X12152238Y-11423476D01*
X12133190Y-11423476D01*
X12114143Y-11413952D01*
X12104619Y-11404428D01*
X12095095Y-11385381D01*
X12085571Y-11347286D01*
X12085571Y-11299667D01*
X12095095Y-11261571D01*
X12104619Y-11242524D01*
X12114143Y-11233000D01*
X12133190Y-11223476D01*
X12266524Y-11223476D02*
X12390333Y-11223476D01*
X12323667Y-11299667D01*
X12352238Y-11299667D01*
X12371286Y-11309190D01*
X12380809Y-11318714D01*
X12390333Y-11337762D01*
X12390333Y-11385381D01*
X12380809Y-11404428D01*
X12371286Y-11413952D01*
X12352238Y-11423476D01*
X12295095Y-11423476D01*
X12276048Y-11413952D01*
X12266524Y-11404428D01*
X12485571Y-11423476D02*
X12523667Y-11423476D01*
X12542714Y-11413952D01*
X12552238Y-11404428D01*
X12571286Y-11375857D01*
X12580809Y-11337762D01*
X12580809Y-11261571D01*
X12571286Y-11242524D01*
X12561762Y-11233000D01*
X12542714Y-11223476D01*
X12504619Y-11223476D01*
X12485571Y-11233000D01*
X12476048Y-11242524D01*
X12466524Y-11261571D01*
X12466524Y-11309190D01*
X12476048Y-11328238D01*
X12485571Y-11337762D01*
X12504619Y-11347286D01*
X12542714Y-11347286D01*
X12561762Y-11337762D01*
X12571286Y-11328238D01*
X12580809Y-11309190D01*
X12752238Y-11290143D02*
X12752238Y-11423476D01*
X12704619Y-11213952D02*
X12657000Y-11356809D01*
X12780809Y-11356809D01*
X12847476Y-11223476D02*
X12847476Y-11261571D01*
X12923667Y-11223476D02*
X12923667Y-11261571D01*
X13218905Y-11499667D02*
X13209381Y-11490143D01*
X13190333Y-11461571D01*
X13180809Y-11442524D01*
X13171286Y-11413952D01*
X13161762Y-11366333D01*
X13161762Y-11328238D01*
X13171286Y-11280619D01*
X13180809Y-11252048D01*
X13190333Y-11233000D01*
X13209381Y-11204428D01*
X13218905Y-11194905D01*
X13399857Y-11423476D02*
X13285571Y-11423476D01*
X13342714Y-11423476D02*
X13342714Y-11223476D01*
X13323667Y-11252048D01*
X13304619Y-11271095D01*
X13285571Y-11280619D01*
X13523667Y-11223476D02*
X13542714Y-11223476D01*
X13561762Y-11233000D01*
X13571286Y-11242524D01*
X13580809Y-11261571D01*
X13590333Y-11299667D01*
X13590333Y-11347286D01*
X13580809Y-11385381D01*
X13571286Y-11404428D01*
X13561762Y-11413952D01*
X13542714Y-11423476D01*
X13523667Y-11423476D01*
X13504619Y-11413952D01*
X13495095Y-11404428D01*
X13485571Y-11385381D01*
X13476048Y-11347286D01*
X13476048Y-11299667D01*
X13485571Y-11261571D01*
X13495095Y-11242524D01*
X13504619Y-11233000D01*
X13523667Y-11223476D01*
X13828428Y-11423476D02*
X13828428Y-11223476D01*
X13914143Y-11423476D02*
X13914143Y-11318714D01*
X13904619Y-11299667D01*
X13885571Y-11290143D01*
X13857000Y-11290143D01*
X13837952Y-11299667D01*
X13828428Y-11309190D01*
X14037952Y-11423476D02*
X14018905Y-11413952D01*
X14009381Y-11404428D01*
X13999857Y-11385381D01*
X13999857Y-11328238D01*
X14009381Y-11309190D01*
X14018905Y-11299667D01*
X14037952Y-11290143D01*
X14066524Y-11290143D01*
X14085571Y-11299667D01*
X14095095Y-11309190D01*
X14104619Y-11328238D01*
X14104619Y-11385381D01*
X14095095Y-11404428D01*
X14085571Y-11413952D01*
X14066524Y-11423476D01*
X14037952Y-11423476D01*
X14218905Y-11423476D02*
X14199857Y-11413952D01*
X14190333Y-11394905D01*
X14190333Y-11223476D01*
X14371286Y-11413952D02*
X14352238Y-11423476D01*
X14314143Y-11423476D01*
X14295095Y-11413952D01*
X14285571Y-11394905D01*
X14285571Y-11318714D01*
X14295095Y-11299667D01*
X14314143Y-11290143D01*
X14352238Y-11290143D01*
X14371286Y-11299667D01*
X14380809Y-11318714D01*
X14380809Y-11337762D01*
X14285571Y-11356809D01*
X14457000Y-11413952D02*
X14476048Y-11423476D01*
X14514143Y-11423476D01*
X14533190Y-11413952D01*
X14542714Y-11394905D01*
X14542714Y-11385381D01*
X14533190Y-11366333D01*
X14514143Y-11356809D01*
X14485571Y-11356809D01*
X14466524Y-11347286D01*
X14457000Y-11328238D01*
X14457000Y-11318714D01*
X14466524Y-11299667D01*
X14485571Y-11290143D01*
X14514143Y-11290143D01*
X14533190Y-11299667D01*
X14609381Y-11499667D02*
X14618905Y-11490143D01*
X14637952Y-11461571D01*
X14647476Y-11442524D01*
X14657000Y-11413952D01*
X14666524Y-11366333D01*
X14666524Y-11328238D01*
X14657000Y-11280619D01*
X14647476Y-11252048D01*
X14637952Y-11233000D01*
X14618905Y-11204428D01*
X14609381Y-11194905D01*
M02*
