%TF.GenerationSoftware,KiCad,Pcbnew,(6.0.9)*%
%TF.CreationDate,2023-11-13T03:06:44-05:00*%
%TF.ProjectId,ALRT_v1,414c5254-5f76-4312-9e6b-696361645f70,rev?*%
%TF.SameCoordinates,Original*%
%TF.FileFunction,Copper,L3,Inr*%
%TF.FilePolarity,Positive*%
%FSLAX46Y46*%
G04 Gerber Fmt 4.6, Leading zero omitted, Abs format (unit mm)*
G04 Created by KiCad (PCBNEW (6.0.9)) date 2023-11-13 03:06:44*
%MOMM*%
%LPD*%
G01*
G04 APERTURE LIST*
%TA.AperFunction,ComponentPad*%
%ADD10R,1.700000X1.700000*%
%TD*%
%TA.AperFunction,ComponentPad*%
%ADD11O,1.700000X1.700000*%
%TD*%
%TA.AperFunction,ComponentPad*%
%ADD12C,1.500000*%
%TD*%
%TA.AperFunction,ViaPad*%
%ADD13C,0.800000*%
%TD*%
G04 APERTURE END LIST*
D10*
%TO.N,/Vib_out*%
%TO.C,J3*%
X112263000Y-100025200D03*
D11*
%TO.N,GND*%
X114803000Y-100025200D03*
%TD*%
D10*
%TO.N,+3V3*%
%TO.C,J4*%
X101051200Y-100101400D03*
D11*
%TO.N,GND*%
X103591200Y-100101400D03*
%TO.N,/SDA*%
X106131200Y-100101400D03*
%TO.N,/SCL*%
X108671200Y-100101400D03*
%TD*%
D10*
%TO.N,+BATT*%
%TO.C,J1*%
X97790000Y-73660000D03*
D11*
%TO.N,GND*%
X97790000Y-76200000D03*
%TD*%
D10*
%TO.N,/Electrode_p*%
%TO.C,J2*%
X121742200Y-100050600D03*
D11*
%TO.N,/Electrode_n*%
X119202200Y-100050600D03*
%TD*%
D12*
%TO.N,GND*%
%TO.C,U1*%
X120650000Y-73410000D03*
%TO.N,+3V3*%
X120650000Y-75950000D03*
%TO.N,/Vref*%
X120650000Y-78490000D03*
%TO.N,/LED1*%
X120650000Y-81030000D03*
%TO.N,/LED2*%
X120650000Y-83570000D03*
%TO.N,/LED3*%
X120650000Y-86110000D03*
%TO.N,/LED4*%
X120650000Y-88650000D03*
%TO.N,/Shock_chg*%
X120650000Y-91190000D03*
%TO.N,+BATT*%
X102870000Y-73410000D03*
%TO.N,GND*%
X102870000Y-75950000D03*
%TO.N,unconnected-(U1-Pad11)*%
X102870000Y-78490000D03*
%TO.N,/Vib*%
X102870000Y-81030000D03*
%TO.N,/PBNO*%
X102870000Y-83570000D03*
%TO.N,/SDA*%
X102870000Y-86110000D03*
%TO.N,/SCL*%
X102870000Y-88650000D03*
%TO.N,/Shock_dis*%
X102870000Y-91190000D03*
%TD*%
D13*
%TO.N,GND*%
X97600000Y-83198200D03*
X107238800Y-94056200D03*
X100685600Y-97028000D03*
X107878550Y-94683150D03*
X107594400Y-90779600D03*
X107670600Y-90119200D03*
%TO.N,+3V3*%
X112369600Y-78155800D03*
%TO.N,GND*%
X109474000Y-78460600D03*
%TO.N,+3V3*%
X104851200Y-94335600D03*
X106476800Y-78525685D03*
X110955400Y-86241200D03*
X114808000Y-89865200D03*
%TO.N,GND*%
X114008200Y-75094800D03*
X109067600Y-82346800D03*
X117678200Y-82397600D03*
X124663200Y-88544400D03*
%TO.N,/SCL*%
X107289600Y-71983600D03*
%TO.N,/SDA*%
X104978200Y-72034400D03*
%TD*%
%TA.AperFunction,Conductor*%
%TO.N,+3V3*%
G36*
X104049529Y-71648502D02*
G01*
X104096022Y-71702158D01*
X104106126Y-71772432D01*
X104101242Y-71793431D01*
X104084658Y-71844472D01*
X104064696Y-72034400D01*
X104065386Y-72040965D01*
X104079979Y-72179806D01*
X104084658Y-72224328D01*
X104143673Y-72405956D01*
X104146976Y-72411678D01*
X104146977Y-72411679D01*
X104180886Y-72470410D01*
X104239160Y-72571344D01*
X104243578Y-72576251D01*
X104243579Y-72576252D01*
X104324703Y-72666349D01*
X104366947Y-72713266D01*
X104521448Y-72825518D01*
X104527476Y-72828202D01*
X104527478Y-72828203D01*
X104670994Y-72892100D01*
X104695912Y-72903194D01*
X104789312Y-72923047D01*
X104876256Y-72941528D01*
X104876261Y-72941528D01*
X104882713Y-72942900D01*
X105073687Y-72942900D01*
X105080139Y-72941528D01*
X105080144Y-72941528D01*
X105167088Y-72923047D01*
X105260488Y-72903194D01*
X105285406Y-72892100D01*
X105428922Y-72828203D01*
X105428924Y-72828202D01*
X105434952Y-72825518D01*
X105589453Y-72713266D01*
X105631697Y-72666349D01*
X105712821Y-72576252D01*
X105712822Y-72576251D01*
X105717240Y-72571344D01*
X105775514Y-72470410D01*
X105809423Y-72411679D01*
X105809424Y-72411678D01*
X105812727Y-72405956D01*
X105871742Y-72224328D01*
X105876422Y-72179806D01*
X105891014Y-72040965D01*
X105891704Y-72034400D01*
X105871742Y-71844472D01*
X105855159Y-71793435D01*
X105853131Y-71722469D01*
X105889793Y-71661671D01*
X105953505Y-71630346D01*
X105974992Y-71628500D01*
X106276302Y-71628500D01*
X106344423Y-71648502D01*
X106390916Y-71702158D01*
X106401020Y-71772432D01*
X106399058Y-71780846D01*
X106399471Y-71780934D01*
X106398098Y-71787395D01*
X106396058Y-71793672D01*
X106376096Y-71983600D01*
X106376786Y-71990165D01*
X106395255Y-72165885D01*
X106396058Y-72173528D01*
X106455073Y-72355156D01*
X106550560Y-72520544D01*
X106554978Y-72525451D01*
X106554979Y-72525452D01*
X106620267Y-72597962D01*
X106678347Y-72662466D01*
X106832848Y-72774718D01*
X106838876Y-72777402D01*
X106838878Y-72777403D01*
X107001281Y-72849709D01*
X107007312Y-72852394D01*
X107100713Y-72872247D01*
X107187656Y-72890728D01*
X107187661Y-72890728D01*
X107194113Y-72892100D01*
X107385087Y-72892100D01*
X107391539Y-72890728D01*
X107391544Y-72890728D01*
X107478487Y-72872247D01*
X107571888Y-72852394D01*
X107577919Y-72849709D01*
X107740322Y-72777403D01*
X107740324Y-72777402D01*
X107746352Y-72774718D01*
X107900853Y-72662466D01*
X107958933Y-72597962D01*
X108024221Y-72525452D01*
X108024222Y-72525451D01*
X108028640Y-72520544D01*
X108124127Y-72355156D01*
X108183142Y-72173528D01*
X108183946Y-72165885D01*
X108202414Y-71990165D01*
X108203104Y-71983600D01*
X108183142Y-71793672D01*
X108181102Y-71787395D01*
X108179729Y-71780934D01*
X108182717Y-71780299D01*
X108180998Y-71722617D01*
X108217587Y-71661775D01*
X108281261Y-71630372D01*
X108302898Y-71628500D01*
X126365500Y-71628500D01*
X126433621Y-71648502D01*
X126480114Y-71702158D01*
X126491500Y-71754500D01*
X126491500Y-100965500D01*
X126471498Y-101033621D01*
X126417842Y-101080114D01*
X126365500Y-101091500D01*
X123225620Y-101091500D01*
X123157499Y-101071498D01*
X123111006Y-101017842D01*
X123100951Y-100955572D01*
X123100147Y-100955528D01*
X123100331Y-100952131D01*
X123100700Y-100948734D01*
X123100700Y-99152466D01*
X123093945Y-99090284D01*
X123042815Y-98953895D01*
X122955461Y-98837339D01*
X122838905Y-98749985D01*
X122702516Y-98698855D01*
X122640334Y-98692100D01*
X120844066Y-98692100D01*
X120781884Y-98698855D01*
X120645495Y-98749985D01*
X120528939Y-98837339D01*
X120441585Y-98953895D01*
X120438433Y-98962303D01*
X120397119Y-99072507D01*
X120354477Y-99129271D01*
X120287916Y-99153971D01*
X120218567Y-99138763D01*
X120185943Y-99113076D01*
X120135351Y-99057475D01*
X120135342Y-99057466D01*
X120131870Y-99053651D01*
X120127819Y-99050452D01*
X120127815Y-99050448D01*
X119960614Y-98918400D01*
X119960610Y-98918398D01*
X119956559Y-98915198D01*
X119760989Y-98807238D01*
X119756120Y-98805514D01*
X119756116Y-98805512D01*
X119555287Y-98734395D01*
X119555283Y-98734394D01*
X119550412Y-98732669D01*
X119545319Y-98731762D01*
X119545316Y-98731761D01*
X119335573Y-98694400D01*
X119335567Y-98694399D01*
X119330484Y-98693494D01*
X119256652Y-98692592D01*
X119112281Y-98690828D01*
X119112279Y-98690828D01*
X119107111Y-98690765D01*
X118886291Y-98724555D01*
X118673956Y-98793957D01*
X118475807Y-98897107D01*
X118471674Y-98900210D01*
X118471671Y-98900212D01*
X118305405Y-99025048D01*
X118297165Y-99031235D01*
X118272080Y-99057485D01*
X118203480Y-99129271D01*
X118142829Y-99192738D01*
X118139915Y-99197010D01*
X118139914Y-99197011D01*
X118105266Y-99247803D01*
X118016943Y-99377280D01*
X117922888Y-99579905D01*
X117863189Y-99795170D01*
X117839451Y-100017295D01*
X117839748Y-100022448D01*
X117839748Y-100022451D01*
X117844107Y-100098046D01*
X117852310Y-100240315D01*
X117853447Y-100245361D01*
X117853448Y-100245367D01*
X117875680Y-100344014D01*
X117901422Y-100458239D01*
X117985466Y-100665216D01*
X118102187Y-100855688D01*
X118105565Y-100859588D01*
X118105566Y-100859589D01*
X118125848Y-100883003D01*
X118155330Y-100947588D01*
X118145215Y-101017861D01*
X118098714Y-101071509D01*
X118030610Y-101091500D01*
X115955430Y-101091500D01*
X115887309Y-101071498D01*
X115840816Y-101017842D01*
X115830712Y-100947568D01*
X115853107Y-100891974D01*
X115968435Y-100731477D01*
X115971453Y-100727277D01*
X115977019Y-100716016D01*
X116068136Y-100531653D01*
X116068137Y-100531651D01*
X116070430Y-100527011D01*
X116135370Y-100313269D01*
X116164529Y-100091790D01*
X116166156Y-100025200D01*
X116147852Y-99802561D01*
X116093431Y-99585902D01*
X116004354Y-99381040D01*
X115915400Y-99243538D01*
X115885822Y-99197817D01*
X115885820Y-99197814D01*
X115883014Y-99193477D01*
X115732670Y-99028251D01*
X115728619Y-99025052D01*
X115728615Y-99025048D01*
X115561414Y-98893000D01*
X115561410Y-98892998D01*
X115557359Y-98889798D01*
X115361789Y-98781838D01*
X115356920Y-98780114D01*
X115356916Y-98780112D01*
X115156087Y-98708995D01*
X115156083Y-98708994D01*
X115151212Y-98707269D01*
X115146119Y-98706362D01*
X115146116Y-98706361D01*
X114936373Y-98669000D01*
X114936367Y-98668999D01*
X114931284Y-98668094D01*
X114857452Y-98667192D01*
X114713081Y-98665428D01*
X114713079Y-98665428D01*
X114707911Y-98665365D01*
X114487091Y-98699155D01*
X114274756Y-98768557D01*
X114247855Y-98782561D01*
X114128835Y-98844519D01*
X114076607Y-98871707D01*
X114072474Y-98874810D01*
X114072471Y-98874812D01*
X113902100Y-99002730D01*
X113897965Y-99005835D01*
X113821575Y-99085773D01*
X113817283Y-99090264D01*
X113755759Y-99125694D01*
X113684846Y-99122237D01*
X113627060Y-99080991D01*
X113608207Y-99047443D01*
X113566767Y-98936903D01*
X113563615Y-98928495D01*
X113476261Y-98811939D01*
X113359705Y-98724585D01*
X113223316Y-98673455D01*
X113161134Y-98666700D01*
X111364866Y-98666700D01*
X111302684Y-98673455D01*
X111166295Y-98724585D01*
X111049739Y-98811939D01*
X110962385Y-98928495D01*
X110911255Y-99064884D01*
X110904500Y-99127066D01*
X110904500Y-100923334D01*
X110904868Y-100926726D01*
X110904869Y-100926736D01*
X110907602Y-100951894D01*
X110895073Y-101021776D01*
X110846752Y-101073791D01*
X110782339Y-101091500D01*
X109878385Y-101091500D01*
X109810264Y-101071498D01*
X109763771Y-101017842D01*
X109753667Y-100947568D01*
X109776062Y-100891974D01*
X109836635Y-100807677D01*
X109839653Y-100803477D01*
X109875238Y-100731477D01*
X109936336Y-100607853D01*
X109936337Y-100607851D01*
X109938630Y-100603211D01*
X110003570Y-100389469D01*
X110032729Y-100167990D01*
X110034356Y-100101400D01*
X110016052Y-99878761D01*
X109961631Y-99662102D01*
X109872554Y-99457240D01*
X109751214Y-99269677D01*
X109600870Y-99104451D01*
X109596819Y-99101252D01*
X109596815Y-99101248D01*
X109429614Y-98969200D01*
X109429610Y-98969198D01*
X109425559Y-98965998D01*
X109418866Y-98962303D01*
X109357622Y-98928495D01*
X109229989Y-98858038D01*
X109225120Y-98856314D01*
X109225116Y-98856312D01*
X109024287Y-98785195D01*
X109024283Y-98785194D01*
X109019412Y-98783469D01*
X109014319Y-98782562D01*
X109014316Y-98782561D01*
X108804573Y-98745200D01*
X108804567Y-98745199D01*
X108799484Y-98744294D01*
X108725652Y-98743392D01*
X108581281Y-98741628D01*
X108581279Y-98741628D01*
X108576111Y-98741565D01*
X108355291Y-98775355D01*
X108142956Y-98844757D01*
X107944807Y-98947907D01*
X107940674Y-98951010D01*
X107940671Y-98951012D01*
X107770300Y-99078930D01*
X107766165Y-99082035D01*
X107762593Y-99085773D01*
X107635396Y-99218877D01*
X107611829Y-99243538D01*
X107504401Y-99401021D01*
X107449493Y-99446021D01*
X107378968Y-99454192D01*
X107315221Y-99422938D01*
X107294524Y-99398454D01*
X107214022Y-99274017D01*
X107214020Y-99274014D01*
X107211214Y-99269677D01*
X107060870Y-99104451D01*
X107056819Y-99101252D01*
X107056815Y-99101248D01*
X106889614Y-98969200D01*
X106889610Y-98969198D01*
X106885559Y-98965998D01*
X106878866Y-98962303D01*
X106817622Y-98928495D01*
X106689989Y-98858038D01*
X106685120Y-98856314D01*
X106685116Y-98856312D01*
X106484287Y-98785195D01*
X106484283Y-98785194D01*
X106479412Y-98783469D01*
X106474319Y-98782562D01*
X106474316Y-98782561D01*
X106264573Y-98745200D01*
X106264567Y-98745199D01*
X106259484Y-98744294D01*
X106185652Y-98743392D01*
X106041281Y-98741628D01*
X106041279Y-98741628D01*
X106036111Y-98741565D01*
X105815291Y-98775355D01*
X105602956Y-98844757D01*
X105404807Y-98947907D01*
X105400674Y-98951010D01*
X105400671Y-98951012D01*
X105230300Y-99078930D01*
X105226165Y-99082035D01*
X105222593Y-99085773D01*
X105095396Y-99218877D01*
X105071829Y-99243538D01*
X104964401Y-99401021D01*
X104909493Y-99446021D01*
X104838968Y-99454192D01*
X104775221Y-99422938D01*
X104754524Y-99398454D01*
X104674022Y-99274017D01*
X104674020Y-99274014D01*
X104671214Y-99269677D01*
X104520870Y-99104451D01*
X104516819Y-99101252D01*
X104516815Y-99101248D01*
X104349614Y-98969200D01*
X104349610Y-98969198D01*
X104345559Y-98965998D01*
X104338866Y-98962303D01*
X104277622Y-98928495D01*
X104149989Y-98858038D01*
X104145120Y-98856314D01*
X104145116Y-98856312D01*
X103944287Y-98785195D01*
X103944283Y-98785194D01*
X103939412Y-98783469D01*
X103934319Y-98782562D01*
X103934316Y-98782561D01*
X103724573Y-98745200D01*
X103724567Y-98745199D01*
X103719484Y-98744294D01*
X103645652Y-98743392D01*
X103501281Y-98741628D01*
X103501279Y-98741628D01*
X103496111Y-98741565D01*
X103275291Y-98775355D01*
X103062956Y-98844757D01*
X102864807Y-98947907D01*
X102860674Y-98951010D01*
X102860671Y-98951012D01*
X102690300Y-99078930D01*
X102686165Y-99082035D01*
X102682593Y-99085773D01*
X102605098Y-99166866D01*
X102543574Y-99202295D01*
X102472662Y-99198838D01*
X102414876Y-99157592D01*
X102396023Y-99124044D01*
X102354524Y-99013346D01*
X102345986Y-98997751D01*
X102269485Y-98895676D01*
X102256924Y-98883115D01*
X102154849Y-98806614D01*
X102139254Y-98798076D01*
X102018806Y-98752922D01*
X102003551Y-98749295D01*
X101952686Y-98743769D01*
X101945872Y-98743400D01*
X101323315Y-98743400D01*
X101308076Y-98747875D01*
X101306871Y-98749265D01*
X101305200Y-98756948D01*
X101305200Y-100229400D01*
X101285198Y-100297521D01*
X101231542Y-100344014D01*
X101179200Y-100355400D01*
X99711316Y-100355400D01*
X99696077Y-100359875D01*
X99694872Y-100361265D01*
X99693201Y-100368948D01*
X99693201Y-100965500D01*
X99673199Y-101033621D01*
X99619543Y-101080114D01*
X99567201Y-101091500D01*
X97154500Y-101091500D01*
X97086379Y-101071498D01*
X97039886Y-101017842D01*
X97028500Y-100965500D01*
X97028500Y-99829285D01*
X99693200Y-99829285D01*
X99697675Y-99844524D01*
X99699065Y-99845729D01*
X99706748Y-99847400D01*
X100779085Y-99847400D01*
X100794324Y-99842925D01*
X100795529Y-99841535D01*
X100797200Y-99833852D01*
X100797200Y-98761516D01*
X100792725Y-98746277D01*
X100791335Y-98745072D01*
X100783652Y-98743401D01*
X100156531Y-98743401D01*
X100149710Y-98743771D01*
X100098848Y-98749295D01*
X100083596Y-98752921D01*
X99963146Y-98798076D01*
X99947551Y-98806614D01*
X99845476Y-98883115D01*
X99832915Y-98895676D01*
X99756414Y-98997751D01*
X99747876Y-99013346D01*
X99702722Y-99133794D01*
X99699095Y-99149049D01*
X99693569Y-99199914D01*
X99693200Y-99206728D01*
X99693200Y-99829285D01*
X97028500Y-99829285D01*
X97028500Y-97028000D01*
X99772096Y-97028000D01*
X99792058Y-97217928D01*
X99851073Y-97399556D01*
X99946560Y-97564944D01*
X100074347Y-97706866D01*
X100228848Y-97819118D01*
X100234876Y-97821802D01*
X100234878Y-97821803D01*
X100397281Y-97894109D01*
X100403312Y-97896794D01*
X100496712Y-97916647D01*
X100583656Y-97935128D01*
X100583661Y-97935128D01*
X100590113Y-97936500D01*
X100781087Y-97936500D01*
X100787539Y-97935128D01*
X100787544Y-97935128D01*
X100874488Y-97916647D01*
X100967888Y-97896794D01*
X100973919Y-97894109D01*
X101136322Y-97821803D01*
X101136324Y-97821802D01*
X101142352Y-97819118D01*
X101296853Y-97706866D01*
X101424640Y-97564944D01*
X101520127Y-97399556D01*
X101579142Y-97217928D01*
X101599104Y-97028000D01*
X101579142Y-96838072D01*
X101520127Y-96656444D01*
X101424640Y-96491056D01*
X101296853Y-96349134D01*
X101142352Y-96236882D01*
X101136324Y-96234198D01*
X101136322Y-96234197D01*
X100973919Y-96161891D01*
X100973918Y-96161891D01*
X100967888Y-96159206D01*
X100874488Y-96139353D01*
X100787544Y-96120872D01*
X100787539Y-96120872D01*
X100781087Y-96119500D01*
X100590113Y-96119500D01*
X100583661Y-96120872D01*
X100583656Y-96120872D01*
X100496712Y-96139353D01*
X100403312Y-96159206D01*
X100397282Y-96161891D01*
X100397281Y-96161891D01*
X100234878Y-96234197D01*
X100234876Y-96234198D01*
X100228848Y-96236882D01*
X100074347Y-96349134D01*
X99946560Y-96491056D01*
X99851073Y-96656444D01*
X99792058Y-96838072D01*
X99772096Y-97028000D01*
X97028500Y-97028000D01*
X97028500Y-94056200D01*
X106325296Y-94056200D01*
X106345258Y-94246128D01*
X106404273Y-94427756D01*
X106499760Y-94593144D01*
X106504178Y-94598051D01*
X106504179Y-94598052D01*
X106580802Y-94683150D01*
X106627547Y-94735066D01*
X106782048Y-94847318D01*
X106788076Y-94850002D01*
X106788078Y-94850003D01*
X106956512Y-94924994D01*
X106955463Y-94927350D01*
X107004531Y-94960917D01*
X107026806Y-95001719D01*
X107044023Y-95054706D01*
X107139510Y-95220094D01*
X107267297Y-95362016D01*
X107421798Y-95474268D01*
X107427826Y-95476952D01*
X107427828Y-95476953D01*
X107590231Y-95549259D01*
X107596262Y-95551944D01*
X107689662Y-95571797D01*
X107776606Y-95590278D01*
X107776611Y-95590278D01*
X107783063Y-95591650D01*
X107974037Y-95591650D01*
X107980489Y-95590278D01*
X107980494Y-95590278D01*
X108067438Y-95571797D01*
X108160838Y-95551944D01*
X108166869Y-95549259D01*
X108329272Y-95476953D01*
X108329274Y-95476952D01*
X108335302Y-95474268D01*
X108489803Y-95362016D01*
X108617590Y-95220094D01*
X108713077Y-95054706D01*
X108772092Y-94873078D01*
X108774800Y-94847318D01*
X108791364Y-94689715D01*
X108792054Y-94683150D01*
X108772092Y-94493222D01*
X108713077Y-94311594D01*
X108617590Y-94146206D01*
X108542460Y-94062765D01*
X108494225Y-94009195D01*
X108494224Y-94009194D01*
X108489803Y-94004284D01*
X108335302Y-93892032D01*
X108329274Y-93889348D01*
X108329272Y-93889347D01*
X108160838Y-93814356D01*
X108161887Y-93812000D01*
X108112819Y-93778433D01*
X108090544Y-93737631D01*
X108075367Y-93690923D01*
X108073327Y-93684644D01*
X107977840Y-93519256D01*
X107850053Y-93377334D01*
X107695552Y-93265082D01*
X107689524Y-93262398D01*
X107689522Y-93262397D01*
X107527119Y-93190091D01*
X107527118Y-93190091D01*
X107521088Y-93187406D01*
X107427688Y-93167553D01*
X107340744Y-93149072D01*
X107340739Y-93149072D01*
X107334287Y-93147700D01*
X107143313Y-93147700D01*
X107136861Y-93149072D01*
X107136856Y-93149072D01*
X107049913Y-93167553D01*
X106956512Y-93187406D01*
X106950482Y-93190091D01*
X106950481Y-93190091D01*
X106788078Y-93262397D01*
X106788076Y-93262398D01*
X106782048Y-93265082D01*
X106627547Y-93377334D01*
X106499760Y-93519256D01*
X106404273Y-93684644D01*
X106345258Y-93866272D01*
X106344568Y-93872833D01*
X106344568Y-93872835D01*
X106330236Y-94009195D01*
X106325296Y-94056200D01*
X97028500Y-94056200D01*
X97028500Y-91190000D01*
X101606693Y-91190000D01*
X101625885Y-91409371D01*
X101682880Y-91622076D01*
X101726415Y-91715438D01*
X101773618Y-91816666D01*
X101773621Y-91816671D01*
X101775944Y-91821653D01*
X101902251Y-92002038D01*
X102057962Y-92157749D01*
X102238346Y-92284056D01*
X102437924Y-92377120D01*
X102650629Y-92434115D01*
X102870000Y-92453307D01*
X103089371Y-92434115D01*
X103302076Y-92377120D01*
X103501654Y-92284056D01*
X103682038Y-92157749D01*
X103837749Y-92002038D01*
X103964056Y-91821653D01*
X103966379Y-91816671D01*
X103966382Y-91816666D01*
X104013585Y-91715438D01*
X104057120Y-91622076D01*
X104114115Y-91409371D01*
X104133307Y-91190000D01*
X104114115Y-90970629D01*
X104062928Y-90779600D01*
X106680896Y-90779600D01*
X106700858Y-90969528D01*
X106759873Y-91151156D01*
X106855360Y-91316544D01*
X106983147Y-91458466D01*
X107137648Y-91570718D01*
X107143676Y-91573402D01*
X107143678Y-91573403D01*
X107264197Y-91627061D01*
X107312112Y-91648394D01*
X107405513Y-91668247D01*
X107492456Y-91686728D01*
X107492461Y-91686728D01*
X107498913Y-91688100D01*
X107689887Y-91688100D01*
X107696339Y-91686728D01*
X107696344Y-91686728D01*
X107783288Y-91668247D01*
X107876688Y-91648394D01*
X107924603Y-91627061D01*
X108045122Y-91573403D01*
X108045124Y-91573402D01*
X108051152Y-91570718D01*
X108205653Y-91458466D01*
X108333440Y-91316544D01*
X108406500Y-91190000D01*
X119386693Y-91190000D01*
X119405885Y-91409371D01*
X119462880Y-91622076D01*
X119506415Y-91715438D01*
X119553618Y-91816666D01*
X119553621Y-91816671D01*
X119555944Y-91821653D01*
X119682251Y-92002038D01*
X119837962Y-92157749D01*
X120018346Y-92284056D01*
X120217924Y-92377120D01*
X120430629Y-92434115D01*
X120650000Y-92453307D01*
X120869371Y-92434115D01*
X121082076Y-92377120D01*
X121281654Y-92284056D01*
X121462038Y-92157749D01*
X121617749Y-92002038D01*
X121744056Y-91821653D01*
X121746379Y-91816671D01*
X121746382Y-91816666D01*
X121793585Y-91715438D01*
X121837120Y-91622076D01*
X121894115Y-91409371D01*
X121913307Y-91190000D01*
X121894115Y-90970629D01*
X121837120Y-90757924D01*
X121761728Y-90596245D01*
X121746382Y-90563334D01*
X121746379Y-90563329D01*
X121744056Y-90558347D01*
X121714787Y-90516546D01*
X121620908Y-90382473D01*
X121620906Y-90382470D01*
X121617749Y-90377962D01*
X121462038Y-90222251D01*
X121281654Y-90095944D01*
X121276672Y-90093621D01*
X121276667Y-90093618D01*
X121149232Y-90034195D01*
X121095947Y-89987278D01*
X121076486Y-89919001D01*
X121097028Y-89851041D01*
X121149232Y-89805805D01*
X121276667Y-89746382D01*
X121276672Y-89746379D01*
X121281654Y-89744056D01*
X121462038Y-89617749D01*
X121617749Y-89462038D01*
X121624148Y-89452900D01*
X121740899Y-89286162D01*
X121740900Y-89286160D01*
X121744056Y-89281653D01*
X121746379Y-89276671D01*
X121746382Y-89276666D01*
X121834795Y-89087061D01*
X121837120Y-89082076D01*
X121894115Y-88869371D01*
X121913307Y-88650000D01*
X121904068Y-88544400D01*
X123749696Y-88544400D01*
X123769658Y-88734328D01*
X123828673Y-88915956D01*
X123924160Y-89081344D01*
X123928578Y-89086251D01*
X123928579Y-89086252D01*
X124041868Y-89212072D01*
X124051947Y-89223266D01*
X124138516Y-89286162D01*
X124192518Y-89325397D01*
X124206448Y-89335518D01*
X124212476Y-89338202D01*
X124212478Y-89338203D01*
X124374881Y-89410509D01*
X124380912Y-89413194D01*
X124474313Y-89433047D01*
X124561256Y-89451528D01*
X124561261Y-89451528D01*
X124567713Y-89452900D01*
X124758687Y-89452900D01*
X124765139Y-89451528D01*
X124765144Y-89451528D01*
X124852087Y-89433047D01*
X124945488Y-89413194D01*
X124951519Y-89410509D01*
X125113922Y-89338203D01*
X125113924Y-89338202D01*
X125119952Y-89335518D01*
X125133883Y-89325397D01*
X125187884Y-89286162D01*
X125274453Y-89223266D01*
X125284532Y-89212072D01*
X125397821Y-89086252D01*
X125397822Y-89086251D01*
X125402240Y-89081344D01*
X125497727Y-88915956D01*
X125556742Y-88734328D01*
X125576704Y-88544400D01*
X125556742Y-88354472D01*
X125497727Y-88172844D01*
X125402240Y-88007456D01*
X125274453Y-87865534D01*
X125119952Y-87753282D01*
X125113924Y-87750598D01*
X125113922Y-87750597D01*
X124951519Y-87678291D01*
X124951518Y-87678291D01*
X124945488Y-87675606D01*
X124852088Y-87655753D01*
X124765144Y-87637272D01*
X124765139Y-87637272D01*
X124758687Y-87635900D01*
X124567713Y-87635900D01*
X124561261Y-87637272D01*
X124561256Y-87637272D01*
X124474312Y-87655753D01*
X124380912Y-87675606D01*
X124374882Y-87678291D01*
X124374881Y-87678291D01*
X124212478Y-87750597D01*
X124212476Y-87750598D01*
X124206448Y-87753282D01*
X124051947Y-87865534D01*
X123924160Y-88007456D01*
X123828673Y-88172844D01*
X123769658Y-88354472D01*
X123749696Y-88544400D01*
X121904068Y-88544400D01*
X121894115Y-88430629D01*
X121837120Y-88217924D01*
X121793585Y-88124562D01*
X121746382Y-88023334D01*
X121746379Y-88023329D01*
X121744056Y-88018347D01*
X121736430Y-88007456D01*
X121620908Y-87842473D01*
X121620906Y-87842470D01*
X121617749Y-87837962D01*
X121462038Y-87682251D01*
X121281654Y-87555944D01*
X121276672Y-87553621D01*
X121276667Y-87553618D01*
X121149232Y-87494195D01*
X121095947Y-87447278D01*
X121076486Y-87379001D01*
X121097028Y-87311041D01*
X121149232Y-87265805D01*
X121276667Y-87206382D01*
X121276672Y-87206379D01*
X121281654Y-87204056D01*
X121462038Y-87077749D01*
X121617749Y-86922038D01*
X121744056Y-86741653D01*
X121746379Y-86736671D01*
X121746382Y-86736666D01*
X121834795Y-86547061D01*
X121837120Y-86542076D01*
X121894115Y-86329371D01*
X121913307Y-86110000D01*
X121894115Y-85890629D01*
X121837120Y-85677924D01*
X121793585Y-85584562D01*
X121746382Y-85483334D01*
X121746379Y-85483329D01*
X121744056Y-85478347D01*
X121617749Y-85297962D01*
X121462038Y-85142251D01*
X121281654Y-85015944D01*
X121276672Y-85013621D01*
X121276667Y-85013618D01*
X121149232Y-84954195D01*
X121095947Y-84907278D01*
X121076486Y-84839001D01*
X121097028Y-84771041D01*
X121149232Y-84725805D01*
X121276667Y-84666382D01*
X121276672Y-84666379D01*
X121281654Y-84664056D01*
X121462038Y-84537749D01*
X121617749Y-84382038D01*
X121744056Y-84201653D01*
X121746379Y-84196671D01*
X121746382Y-84196666D01*
X121793585Y-84095438D01*
X121837120Y-84002076D01*
X121894115Y-83789371D01*
X121913307Y-83570000D01*
X121894115Y-83350629D01*
X121837120Y-83137924D01*
X121779723Y-83014835D01*
X121746382Y-82943334D01*
X121746379Y-82943329D01*
X121744056Y-82938347D01*
X121740899Y-82933838D01*
X121620908Y-82762473D01*
X121620906Y-82762470D01*
X121617749Y-82757962D01*
X121462038Y-82602251D01*
X121449978Y-82593806D01*
X121359089Y-82530165D01*
X121281654Y-82475944D01*
X121276672Y-82473621D01*
X121276667Y-82473618D01*
X121149232Y-82414195D01*
X121095947Y-82367278D01*
X121076486Y-82299001D01*
X121097028Y-82231041D01*
X121149232Y-82185805D01*
X121276667Y-82126382D01*
X121276672Y-82126379D01*
X121281654Y-82124056D01*
X121462038Y-81997749D01*
X121617749Y-81842038D01*
X121636280Y-81815574D01*
X121740899Y-81666162D01*
X121740900Y-81666160D01*
X121744056Y-81661653D01*
X121746379Y-81656671D01*
X121746382Y-81656666D01*
X121806643Y-81527434D01*
X121837120Y-81462076D01*
X121894115Y-81249371D01*
X121913307Y-81030000D01*
X121894115Y-80810629D01*
X121837120Y-80597924D01*
X121793585Y-80504562D01*
X121746382Y-80403334D01*
X121746379Y-80403329D01*
X121744056Y-80398347D01*
X121617749Y-80217962D01*
X121462038Y-80062251D01*
X121281654Y-79935944D01*
X121276672Y-79933621D01*
X121276667Y-79933618D01*
X121149232Y-79874195D01*
X121095947Y-79827278D01*
X121076486Y-79759001D01*
X121097028Y-79691041D01*
X121149232Y-79645805D01*
X121276667Y-79586382D01*
X121276672Y-79586379D01*
X121281654Y-79584056D01*
X121462038Y-79457749D01*
X121617749Y-79302038D01*
X121651104Y-79254403D01*
X121740899Y-79126162D01*
X121740900Y-79126160D01*
X121744056Y-79121653D01*
X121746379Y-79116671D01*
X121746382Y-79116666D01*
X121834795Y-78927061D01*
X121837120Y-78922076D01*
X121894115Y-78709371D01*
X121913307Y-78490000D01*
X121894115Y-78270629D01*
X121837120Y-78057924D01*
X121793585Y-77964562D01*
X121746382Y-77863334D01*
X121746379Y-77863329D01*
X121744056Y-77858347D01*
X121617749Y-77677962D01*
X121462038Y-77522251D01*
X121444631Y-77510062D01*
X121382759Y-77466739D01*
X121281654Y-77395944D01*
X121276672Y-77393621D01*
X121276667Y-77393618D01*
X121148641Y-77333919D01*
X121095356Y-77287002D01*
X121075895Y-77218724D01*
X121096437Y-77150764D01*
X121148641Y-77105529D01*
X121276416Y-77045947D01*
X121285912Y-77040464D01*
X121327148Y-77011590D01*
X121335523Y-77001112D01*
X121328457Y-76987668D01*
X120662811Y-76322021D01*
X120648868Y-76314408D01*
X120647034Y-76314539D01*
X120640420Y-76318790D01*
X119970820Y-76988391D01*
X119964393Y-77000161D01*
X119973687Y-77012175D01*
X120014088Y-77040464D01*
X120023584Y-77045947D01*
X120151359Y-77105529D01*
X120204644Y-77152446D01*
X120224105Y-77220724D01*
X120203563Y-77288684D01*
X120151359Y-77333919D01*
X120023334Y-77393618D01*
X120023329Y-77393621D01*
X120018347Y-77395944D01*
X120013840Y-77399100D01*
X120013838Y-77399101D01*
X119842473Y-77519092D01*
X119842470Y-77519094D01*
X119837962Y-77522251D01*
X119682251Y-77677962D01*
X119555944Y-77858347D01*
X119553621Y-77863329D01*
X119553618Y-77863334D01*
X119506415Y-77964562D01*
X119462880Y-78057924D01*
X119405885Y-78270629D01*
X119386693Y-78490000D01*
X119405885Y-78709371D01*
X119462880Y-78922076D01*
X119465205Y-78927061D01*
X119553618Y-79116666D01*
X119553621Y-79116671D01*
X119555944Y-79121653D01*
X119559100Y-79126160D01*
X119559101Y-79126162D01*
X119648897Y-79254403D01*
X119682251Y-79302038D01*
X119837962Y-79457749D01*
X120018346Y-79584056D01*
X120023328Y-79586379D01*
X120023333Y-79586382D01*
X120150768Y-79645805D01*
X120204053Y-79692722D01*
X120223514Y-79760999D01*
X120202972Y-79828959D01*
X120150768Y-79874195D01*
X120023334Y-79933618D01*
X120023329Y-79933621D01*
X120018347Y-79935944D01*
X120013840Y-79939100D01*
X120013838Y-79939101D01*
X119842473Y-80059092D01*
X119842470Y-80059094D01*
X119837962Y-80062251D01*
X119682251Y-80217962D01*
X119555944Y-80398347D01*
X119553621Y-80403329D01*
X119553618Y-80403334D01*
X119506415Y-80504562D01*
X119462880Y-80597924D01*
X119405885Y-80810629D01*
X119386693Y-81030000D01*
X119405885Y-81249371D01*
X119462880Y-81462076D01*
X119493357Y-81527434D01*
X119553618Y-81656666D01*
X119553621Y-81656671D01*
X119555944Y-81661653D01*
X119559100Y-81666160D01*
X119559101Y-81666162D01*
X119663721Y-81815574D01*
X119682251Y-81842038D01*
X119837962Y-81997749D01*
X120018346Y-82124056D01*
X120023328Y-82126379D01*
X120023333Y-82126382D01*
X120150768Y-82185805D01*
X120204053Y-82232722D01*
X120223514Y-82300999D01*
X120202972Y-82368959D01*
X120150768Y-82414195D01*
X120023334Y-82473618D01*
X120023329Y-82473621D01*
X120018347Y-82475944D01*
X120013840Y-82479100D01*
X120013838Y-82479101D01*
X119842473Y-82599092D01*
X119842470Y-82599094D01*
X119837962Y-82602251D01*
X119682251Y-82757962D01*
X119679094Y-82762470D01*
X119679092Y-82762473D01*
X119559101Y-82933838D01*
X119555944Y-82938347D01*
X119553621Y-82943329D01*
X119553618Y-82943334D01*
X119520277Y-83014835D01*
X119462880Y-83137924D01*
X119405885Y-83350629D01*
X119386693Y-83570000D01*
X119405885Y-83789371D01*
X119462880Y-84002076D01*
X119506415Y-84095438D01*
X119553618Y-84196666D01*
X119553621Y-84196671D01*
X119555944Y-84201653D01*
X119682251Y-84382038D01*
X119837962Y-84537749D01*
X120018346Y-84664056D01*
X120023328Y-84666379D01*
X120023333Y-84666382D01*
X120150768Y-84725805D01*
X120204053Y-84772722D01*
X120223514Y-84840999D01*
X120202972Y-84908959D01*
X120150768Y-84954195D01*
X120023334Y-85013618D01*
X120023329Y-85013621D01*
X120018347Y-85015944D01*
X120013840Y-85019100D01*
X120013838Y-85019101D01*
X119842473Y-85139092D01*
X119842470Y-85139094D01*
X119837962Y-85142251D01*
X119682251Y-85297962D01*
X119555944Y-85478347D01*
X119553621Y-85483329D01*
X119553618Y-85483334D01*
X119506415Y-85584562D01*
X119462880Y-85677924D01*
X119405885Y-85890629D01*
X119386693Y-86110000D01*
X119405885Y-86329371D01*
X119462880Y-86542076D01*
X119465205Y-86547061D01*
X119553618Y-86736666D01*
X119553621Y-86736671D01*
X119555944Y-86741653D01*
X119682251Y-86922038D01*
X119837962Y-87077749D01*
X120018346Y-87204056D01*
X120023328Y-87206379D01*
X120023333Y-87206382D01*
X120150768Y-87265805D01*
X120204053Y-87312722D01*
X120223514Y-87380999D01*
X120202972Y-87448959D01*
X120150768Y-87494195D01*
X120023334Y-87553618D01*
X120023329Y-87553621D01*
X120018347Y-87555944D01*
X120013840Y-87559100D01*
X120013838Y-87559101D01*
X119842473Y-87679092D01*
X119842470Y-87679094D01*
X119837962Y-87682251D01*
X119682251Y-87837962D01*
X119679094Y-87842470D01*
X119679092Y-87842473D01*
X119563570Y-88007456D01*
X119555944Y-88018347D01*
X119553621Y-88023329D01*
X119553618Y-88023334D01*
X119506415Y-88124562D01*
X119462880Y-88217924D01*
X119405885Y-88430629D01*
X119386693Y-88650000D01*
X119405885Y-88869371D01*
X119462880Y-89082076D01*
X119465205Y-89087061D01*
X119553618Y-89276666D01*
X119553621Y-89276671D01*
X119555944Y-89281653D01*
X119559100Y-89286160D01*
X119559101Y-89286162D01*
X119675853Y-89452900D01*
X119682251Y-89462038D01*
X119837962Y-89617749D01*
X120018346Y-89744056D01*
X120023328Y-89746379D01*
X120023333Y-89746382D01*
X120150768Y-89805805D01*
X120204053Y-89852722D01*
X120223514Y-89920999D01*
X120202972Y-89988959D01*
X120150768Y-90034195D01*
X120023334Y-90093618D01*
X120023329Y-90093621D01*
X120018347Y-90095944D01*
X120013840Y-90099100D01*
X120013838Y-90099101D01*
X119842473Y-90219092D01*
X119842470Y-90219094D01*
X119837962Y-90222251D01*
X119682251Y-90377962D01*
X119679094Y-90382470D01*
X119679092Y-90382473D01*
X119585213Y-90516546D01*
X119555944Y-90558347D01*
X119553621Y-90563329D01*
X119553618Y-90563334D01*
X119538272Y-90596245D01*
X119462880Y-90757924D01*
X119405885Y-90970629D01*
X119386693Y-91190000D01*
X108406500Y-91190000D01*
X108428927Y-91151156D01*
X108487942Y-90969528D01*
X108507904Y-90779600D01*
X108487942Y-90589672D01*
X108486823Y-90586229D01*
X108492138Y-90516546D01*
X108500864Y-90498140D01*
X108505127Y-90490756D01*
X108564142Y-90309128D01*
X108572864Y-90226148D01*
X108583414Y-90125765D01*
X108584104Y-90119200D01*
X108575170Y-90034195D01*
X108564832Y-89935835D01*
X108564832Y-89935833D01*
X108564142Y-89929272D01*
X108505127Y-89747644D01*
X108409640Y-89582256D01*
X108293168Y-89452900D01*
X108286275Y-89445245D01*
X108286274Y-89445244D01*
X108281853Y-89440334D01*
X108182757Y-89368336D01*
X108132694Y-89331963D01*
X108132693Y-89331962D01*
X108127352Y-89328082D01*
X108121324Y-89325398D01*
X108121322Y-89325397D01*
X107958919Y-89253091D01*
X107958918Y-89253091D01*
X107952888Y-89250406D01*
X107843473Y-89227149D01*
X107772544Y-89212072D01*
X107772539Y-89212072D01*
X107766087Y-89210700D01*
X107575113Y-89210700D01*
X107568661Y-89212072D01*
X107568656Y-89212072D01*
X107497727Y-89227149D01*
X107388312Y-89250406D01*
X107382282Y-89253091D01*
X107382281Y-89253091D01*
X107219878Y-89325397D01*
X107219876Y-89325398D01*
X107213848Y-89328082D01*
X107208507Y-89331962D01*
X107208506Y-89331963D01*
X107158443Y-89368336D01*
X107059347Y-89440334D01*
X107054926Y-89445244D01*
X107054925Y-89445245D01*
X107048033Y-89452900D01*
X106931560Y-89582256D01*
X106836073Y-89747644D01*
X106777058Y-89929272D01*
X106776368Y-89935833D01*
X106776368Y-89935835D01*
X106766030Y-90034195D01*
X106757096Y-90119200D01*
X106757786Y-90125765D01*
X106768337Y-90226148D01*
X106777058Y-90309128D01*
X106778177Y-90312571D01*
X106772862Y-90382254D01*
X106764136Y-90400660D01*
X106759873Y-90408044D01*
X106700858Y-90589672D01*
X106680896Y-90779600D01*
X104062928Y-90779600D01*
X104057120Y-90757924D01*
X103981728Y-90596245D01*
X103966382Y-90563334D01*
X103966379Y-90563329D01*
X103964056Y-90558347D01*
X103934787Y-90516546D01*
X103840908Y-90382473D01*
X103840906Y-90382470D01*
X103837749Y-90377962D01*
X103682038Y-90222251D01*
X103501654Y-90095944D01*
X103496672Y-90093621D01*
X103496667Y-90093618D01*
X103369232Y-90034195D01*
X103315947Y-89987278D01*
X103296486Y-89919001D01*
X103317028Y-89851041D01*
X103369232Y-89805805D01*
X103496667Y-89746382D01*
X103496672Y-89746379D01*
X103501654Y-89744056D01*
X103682038Y-89617749D01*
X103837749Y-89462038D01*
X103844148Y-89452900D01*
X103960899Y-89286162D01*
X103960900Y-89286160D01*
X103964056Y-89281653D01*
X103966379Y-89276671D01*
X103966382Y-89276666D01*
X104054795Y-89087061D01*
X104057120Y-89082076D01*
X104114115Y-88869371D01*
X104133307Y-88650000D01*
X104114115Y-88430629D01*
X104057120Y-88217924D01*
X104013585Y-88124562D01*
X103966382Y-88023334D01*
X103966379Y-88023329D01*
X103964056Y-88018347D01*
X103956430Y-88007456D01*
X103840908Y-87842473D01*
X103840906Y-87842470D01*
X103837749Y-87837962D01*
X103682038Y-87682251D01*
X103501654Y-87555944D01*
X103496672Y-87553621D01*
X103496667Y-87553618D01*
X103369232Y-87494195D01*
X103315947Y-87447278D01*
X103296486Y-87379001D01*
X103317028Y-87311041D01*
X103369232Y-87265805D01*
X103496667Y-87206382D01*
X103496672Y-87206379D01*
X103501654Y-87204056D01*
X103682038Y-87077749D01*
X103837749Y-86922038D01*
X103964056Y-86741653D01*
X103966379Y-86736671D01*
X103966382Y-86736666D01*
X104054795Y-86547061D01*
X104057120Y-86542076D01*
X104114115Y-86329371D01*
X104133307Y-86110000D01*
X104114115Y-85890629D01*
X104057120Y-85677924D01*
X104013585Y-85584562D01*
X103966382Y-85483334D01*
X103966379Y-85483329D01*
X103964056Y-85478347D01*
X103837749Y-85297962D01*
X103682038Y-85142251D01*
X103501654Y-85015944D01*
X103496672Y-85013621D01*
X103496667Y-85013618D01*
X103369232Y-84954195D01*
X103315947Y-84907278D01*
X103296486Y-84839001D01*
X103317028Y-84771041D01*
X103369232Y-84725805D01*
X103496667Y-84666382D01*
X103496672Y-84666379D01*
X103501654Y-84664056D01*
X103682038Y-84537749D01*
X103837749Y-84382038D01*
X103964056Y-84201653D01*
X103966379Y-84196671D01*
X103966382Y-84196666D01*
X104013585Y-84095438D01*
X104057120Y-84002076D01*
X104114115Y-83789371D01*
X104133307Y-83570000D01*
X104114115Y-83350629D01*
X104057120Y-83137924D01*
X103999723Y-83014835D01*
X103966382Y-82943334D01*
X103966379Y-82943329D01*
X103964056Y-82938347D01*
X103960899Y-82933838D01*
X103840908Y-82762473D01*
X103840906Y-82762470D01*
X103837749Y-82757962D01*
X103682038Y-82602251D01*
X103669978Y-82593806D01*
X103579089Y-82530165D01*
X103501654Y-82475944D01*
X103496672Y-82473621D01*
X103496667Y-82473618D01*
X103369232Y-82414195D01*
X103315947Y-82367278D01*
X103310110Y-82346800D01*
X108154096Y-82346800D01*
X108174058Y-82536728D01*
X108233073Y-82718356D01*
X108328560Y-82883744D01*
X108332978Y-82888651D01*
X108332979Y-82888652D01*
X108382215Y-82943334D01*
X108456347Y-83025666D01*
X108610848Y-83137918D01*
X108616876Y-83140602D01*
X108616878Y-83140603D01*
X108779281Y-83212909D01*
X108785312Y-83215594D01*
X108878713Y-83235447D01*
X108965656Y-83253928D01*
X108965661Y-83253928D01*
X108972113Y-83255300D01*
X109163087Y-83255300D01*
X109169539Y-83253928D01*
X109169544Y-83253928D01*
X109256487Y-83235447D01*
X109349888Y-83215594D01*
X109355919Y-83212909D01*
X109518322Y-83140603D01*
X109518324Y-83140602D01*
X109524352Y-83137918D01*
X109678853Y-83025666D01*
X109752985Y-82943334D01*
X109802221Y-82888652D01*
X109802222Y-82888651D01*
X109806640Y-82883744D01*
X109902127Y-82718356D01*
X109961142Y-82536728D01*
X109975765Y-82397600D01*
X116764696Y-82397600D01*
X116765386Y-82404165D01*
X116779979Y-82543006D01*
X116784658Y-82587528D01*
X116843673Y-82769156D01*
X116939160Y-82934544D01*
X116943578Y-82939451D01*
X116943579Y-82939452D01*
X117024703Y-83029549D01*
X117066947Y-83076466D01*
X117221448Y-83188718D01*
X117227476Y-83191402D01*
X117227478Y-83191403D01*
X117370994Y-83255300D01*
X117395912Y-83266394D01*
X117489313Y-83286247D01*
X117576256Y-83304728D01*
X117576261Y-83304728D01*
X117582713Y-83306100D01*
X117773687Y-83306100D01*
X117780139Y-83304728D01*
X117780144Y-83304728D01*
X117867087Y-83286247D01*
X117960488Y-83266394D01*
X117985406Y-83255300D01*
X118128922Y-83191403D01*
X118128924Y-83191402D01*
X118134952Y-83188718D01*
X118289453Y-83076466D01*
X118331697Y-83029549D01*
X118412821Y-82939452D01*
X118412822Y-82939451D01*
X118417240Y-82934544D01*
X118512727Y-82769156D01*
X118571742Y-82587528D01*
X118576422Y-82543006D01*
X118591014Y-82404165D01*
X118591704Y-82397600D01*
X118584167Y-82325885D01*
X118572432Y-82214235D01*
X118572432Y-82214233D01*
X118571742Y-82207672D01*
X118512727Y-82026044D01*
X118417240Y-81860656D01*
X118367081Y-81804948D01*
X118293875Y-81723645D01*
X118293874Y-81723644D01*
X118289453Y-81718734D01*
X118134952Y-81606482D01*
X118128924Y-81603798D01*
X118128922Y-81603797D01*
X117966519Y-81531491D01*
X117966518Y-81531491D01*
X117960488Y-81528806D01*
X117867088Y-81508953D01*
X117780144Y-81490472D01*
X117780139Y-81490472D01*
X117773687Y-81489100D01*
X117582713Y-81489100D01*
X117576261Y-81490472D01*
X117576256Y-81490472D01*
X117489312Y-81508953D01*
X117395912Y-81528806D01*
X117389882Y-81531491D01*
X117389881Y-81531491D01*
X117227478Y-81603797D01*
X117227476Y-81603798D01*
X117221448Y-81606482D01*
X117066947Y-81718734D01*
X117062526Y-81723644D01*
X117062525Y-81723645D01*
X116989320Y-81804948D01*
X116939160Y-81860656D01*
X116843673Y-82026044D01*
X116784658Y-82207672D01*
X116783968Y-82214233D01*
X116783968Y-82214235D01*
X116772233Y-82325885D01*
X116764696Y-82397600D01*
X109975765Y-82397600D01*
X109981104Y-82346800D01*
X109969114Y-82232722D01*
X109961832Y-82163435D01*
X109961832Y-82163433D01*
X109961142Y-82156872D01*
X109902127Y-81975244D01*
X109806640Y-81809856D01*
X109724594Y-81718734D01*
X109683275Y-81672845D01*
X109683274Y-81672844D01*
X109678853Y-81667934D01*
X109524352Y-81555682D01*
X109518324Y-81552998D01*
X109518322Y-81552997D01*
X109355919Y-81480691D01*
X109355918Y-81480691D01*
X109349888Y-81478006D01*
X109249958Y-81456765D01*
X109169544Y-81439672D01*
X109169539Y-81439672D01*
X109163087Y-81438300D01*
X108972113Y-81438300D01*
X108965661Y-81439672D01*
X108965656Y-81439672D01*
X108885242Y-81456765D01*
X108785312Y-81478006D01*
X108779282Y-81480691D01*
X108779281Y-81480691D01*
X108616878Y-81552997D01*
X108616876Y-81552998D01*
X108610848Y-81555682D01*
X108456347Y-81667934D01*
X108451926Y-81672844D01*
X108451925Y-81672845D01*
X108410607Y-81718734D01*
X108328560Y-81809856D01*
X108233073Y-81975244D01*
X108174058Y-82156872D01*
X108173368Y-82163433D01*
X108173368Y-82163435D01*
X108166086Y-82232722D01*
X108154096Y-82346800D01*
X103310110Y-82346800D01*
X103296486Y-82299001D01*
X103317028Y-82231041D01*
X103369232Y-82185805D01*
X103496667Y-82126382D01*
X103496672Y-82126379D01*
X103501654Y-82124056D01*
X103682038Y-81997749D01*
X103837749Y-81842038D01*
X103856280Y-81815574D01*
X103960899Y-81666162D01*
X103960900Y-81666160D01*
X103964056Y-81661653D01*
X103966379Y-81656671D01*
X103966382Y-81656666D01*
X104026643Y-81527434D01*
X104057120Y-81462076D01*
X104114115Y-81249371D01*
X104133307Y-81030000D01*
X104114115Y-80810629D01*
X104057120Y-80597924D01*
X104013585Y-80504562D01*
X103966382Y-80403334D01*
X103966379Y-80403329D01*
X103964056Y-80398347D01*
X103837749Y-80217962D01*
X103682038Y-80062251D01*
X103501654Y-79935944D01*
X103496672Y-79933621D01*
X103496667Y-79933618D01*
X103369232Y-79874195D01*
X103315947Y-79827278D01*
X103296486Y-79759001D01*
X103317028Y-79691041D01*
X103369232Y-79645805D01*
X103496667Y-79586382D01*
X103496672Y-79586379D01*
X103501654Y-79584056D01*
X103682038Y-79457749D01*
X103837749Y-79302038D01*
X103871104Y-79254403D01*
X103960899Y-79126162D01*
X103960900Y-79126160D01*
X103964056Y-79121653D01*
X103966379Y-79116671D01*
X103966382Y-79116666D01*
X104054795Y-78927061D01*
X104057120Y-78922076D01*
X104114115Y-78709371D01*
X104133307Y-78490000D01*
X104130735Y-78460600D01*
X108560496Y-78460600D01*
X108580458Y-78650528D01*
X108639473Y-78832156D01*
X108734960Y-78997544D01*
X108862747Y-79139466D01*
X109017248Y-79251718D01*
X109023276Y-79254402D01*
X109023278Y-79254403D01*
X109120137Y-79297527D01*
X109191712Y-79329394D01*
X109285112Y-79349247D01*
X109372056Y-79367728D01*
X109372061Y-79367728D01*
X109378513Y-79369100D01*
X109569487Y-79369100D01*
X109575939Y-79367728D01*
X109575944Y-79367728D01*
X109662888Y-79349247D01*
X109756288Y-79329394D01*
X109827863Y-79297527D01*
X109924722Y-79254403D01*
X109924724Y-79254402D01*
X109930752Y-79251718D01*
X110085253Y-79139466D01*
X110213040Y-78997544D01*
X110308527Y-78832156D01*
X110367542Y-78650528D01*
X110387504Y-78460600D01*
X110367542Y-78270672D01*
X110308527Y-78089044D01*
X110213040Y-77923656D01*
X110085253Y-77781734D01*
X109930752Y-77669482D01*
X109924724Y-77666798D01*
X109924722Y-77666797D01*
X109762319Y-77594491D01*
X109762318Y-77594491D01*
X109756288Y-77591806D01*
X109662888Y-77571953D01*
X109575944Y-77553472D01*
X109575939Y-77553472D01*
X109569487Y-77552100D01*
X109378513Y-77552100D01*
X109372061Y-77553472D01*
X109372056Y-77553472D01*
X109285112Y-77571953D01*
X109191712Y-77591806D01*
X109185682Y-77594491D01*
X109185681Y-77594491D01*
X109023278Y-77666797D01*
X109023276Y-77666798D01*
X109017248Y-77669482D01*
X108862747Y-77781734D01*
X108734960Y-77923656D01*
X108639473Y-78089044D01*
X108580458Y-78270672D01*
X108560496Y-78460600D01*
X104130735Y-78460600D01*
X104114115Y-78270629D01*
X104057120Y-78057924D01*
X104013585Y-77964562D01*
X103966382Y-77863334D01*
X103966379Y-77863329D01*
X103964056Y-77858347D01*
X103837749Y-77677962D01*
X103682038Y-77522251D01*
X103664631Y-77510062D01*
X103602759Y-77466739D01*
X103501654Y-77395944D01*
X103496672Y-77393621D01*
X103496667Y-77393618D01*
X103369232Y-77334195D01*
X103315947Y-77287278D01*
X103296486Y-77219001D01*
X103317028Y-77151041D01*
X103369232Y-77105805D01*
X103496667Y-77046382D01*
X103496672Y-77046379D01*
X103501654Y-77044056D01*
X103682038Y-76917749D01*
X103837749Y-76762038D01*
X103879921Y-76701811D01*
X103960899Y-76586162D01*
X103960900Y-76586160D01*
X103964056Y-76581653D01*
X103966379Y-76576671D01*
X103966382Y-76576666D01*
X104054795Y-76387061D01*
X104057120Y-76382076D01*
X104114115Y-76169371D01*
X104133307Y-75950000D01*
X104114115Y-75730629D01*
X104057120Y-75517924D01*
X104013585Y-75424562D01*
X103966382Y-75323334D01*
X103966379Y-75323329D01*
X103964056Y-75318347D01*
X103940516Y-75284728D01*
X103840908Y-75142473D01*
X103840906Y-75142470D01*
X103837749Y-75137962D01*
X103794587Y-75094800D01*
X113094696Y-75094800D01*
X113095386Y-75101365D01*
X113113410Y-75272851D01*
X113114658Y-75284728D01*
X113173673Y-75466356D01*
X113269160Y-75631744D01*
X113396947Y-75773666D01*
X113551448Y-75885918D01*
X113557476Y-75888602D01*
X113557478Y-75888603D01*
X113702041Y-75952966D01*
X113725912Y-75963594D01*
X113814961Y-75982522D01*
X113906256Y-76001928D01*
X113906261Y-76001928D01*
X113912713Y-76003300D01*
X114103687Y-76003300D01*
X114110139Y-76001928D01*
X114110144Y-76001928D01*
X114201439Y-75982522D01*
X114290488Y-75963594D01*
X114308724Y-75955475D01*
X119387674Y-75955475D01*
X119405901Y-76163804D01*
X119407804Y-76174599D01*
X119461928Y-76376595D01*
X119465674Y-76386887D01*
X119554054Y-76576417D01*
X119559534Y-76585907D01*
X119588411Y-76627149D01*
X119598887Y-76635523D01*
X119612334Y-76628455D01*
X120277979Y-75962811D01*
X120284356Y-75951132D01*
X121014408Y-75951132D01*
X121014539Y-75952966D01*
X121018790Y-75959580D01*
X121688391Y-76629180D01*
X121700161Y-76635607D01*
X121712176Y-76626311D01*
X121740466Y-76585907D01*
X121745946Y-76576417D01*
X121834326Y-76386887D01*
X121838072Y-76376595D01*
X121892196Y-76174599D01*
X121894099Y-76163804D01*
X121912326Y-75955475D01*
X121912326Y-75944525D01*
X121894099Y-75736196D01*
X121892196Y-75725401D01*
X121838072Y-75523405D01*
X121834326Y-75513113D01*
X121745946Y-75323583D01*
X121740466Y-75314093D01*
X121711589Y-75272851D01*
X121701113Y-75264477D01*
X121687666Y-75271545D01*
X121022021Y-75937189D01*
X121014408Y-75951132D01*
X120284356Y-75951132D01*
X120285592Y-75948868D01*
X120285461Y-75947034D01*
X120281210Y-75940420D01*
X119611609Y-75270820D01*
X119599839Y-75264393D01*
X119587824Y-75273689D01*
X119559534Y-75314093D01*
X119554054Y-75323583D01*
X119465674Y-75513113D01*
X119461928Y-75523405D01*
X119407804Y-75725401D01*
X119405901Y-75736196D01*
X119387674Y-75944525D01*
X119387674Y-75955475D01*
X114308724Y-75955475D01*
X114314359Y-75952966D01*
X114458922Y-75888603D01*
X114458924Y-75888602D01*
X114464952Y-75885918D01*
X114619453Y-75773666D01*
X114747240Y-75631744D01*
X114842727Y-75466356D01*
X114901742Y-75284728D01*
X114902991Y-75272851D01*
X114921014Y-75101365D01*
X114921704Y-75094800D01*
X114901742Y-74904872D01*
X114842727Y-74723244D01*
X114747240Y-74557856D01*
X114619453Y-74415934D01*
X114464952Y-74303682D01*
X114458924Y-74300998D01*
X114458922Y-74300997D01*
X114296519Y-74228691D01*
X114296518Y-74228691D01*
X114290488Y-74226006D01*
X114197087Y-74206153D01*
X114110144Y-74187672D01*
X114110139Y-74187672D01*
X114103687Y-74186300D01*
X113912713Y-74186300D01*
X113906261Y-74187672D01*
X113906256Y-74187672D01*
X113819313Y-74206153D01*
X113725912Y-74226006D01*
X113719882Y-74228691D01*
X113719881Y-74228691D01*
X113557478Y-74300997D01*
X113557476Y-74300998D01*
X113551448Y-74303682D01*
X113396947Y-74415934D01*
X113269160Y-74557856D01*
X113173673Y-74723244D01*
X113114658Y-74904872D01*
X113094696Y-75094800D01*
X103794587Y-75094800D01*
X103682038Y-74982251D01*
X103655641Y-74963767D01*
X103564342Y-74899839D01*
X103501654Y-74855944D01*
X103496672Y-74853621D01*
X103496667Y-74853618D01*
X103369232Y-74794195D01*
X103315947Y-74747278D01*
X103296486Y-74679001D01*
X103317028Y-74611041D01*
X103369232Y-74565805D01*
X103496667Y-74506382D01*
X103496672Y-74506379D01*
X103501654Y-74504056D01*
X103620491Y-74420845D01*
X103677527Y-74380908D01*
X103677529Y-74380906D01*
X103682038Y-74377749D01*
X103837749Y-74222038D01*
X103861813Y-74187672D01*
X103960899Y-74046162D01*
X103960900Y-74046160D01*
X103964056Y-74041653D01*
X103966379Y-74036671D01*
X103966382Y-74036666D01*
X104054795Y-73847061D01*
X104057120Y-73842076D01*
X104114115Y-73629371D01*
X104133307Y-73410000D01*
X119386693Y-73410000D01*
X119405885Y-73629371D01*
X119462880Y-73842076D01*
X119465205Y-73847061D01*
X119553618Y-74036666D01*
X119553621Y-74036671D01*
X119555944Y-74041653D01*
X119559100Y-74046160D01*
X119559101Y-74046162D01*
X119658188Y-74187672D01*
X119682251Y-74222038D01*
X119837962Y-74377749D01*
X119842471Y-74380906D01*
X119842473Y-74380908D01*
X119899509Y-74420845D01*
X120018346Y-74504056D01*
X120023328Y-74506379D01*
X120023333Y-74506382D01*
X120151359Y-74566081D01*
X120204644Y-74612998D01*
X120224105Y-74681276D01*
X120203563Y-74749236D01*
X120151359Y-74794471D01*
X120023583Y-74854054D01*
X120014093Y-74859534D01*
X119972851Y-74888411D01*
X119964477Y-74898887D01*
X119971545Y-74912334D01*
X120637189Y-75577979D01*
X120651132Y-75585592D01*
X120652966Y-75585461D01*
X120659580Y-75581210D01*
X121329180Y-74911609D01*
X121335607Y-74899839D01*
X121326313Y-74887825D01*
X121285912Y-74859536D01*
X121276416Y-74854053D01*
X121148641Y-74794471D01*
X121095356Y-74747554D01*
X121075895Y-74679276D01*
X121096437Y-74611316D01*
X121148641Y-74566081D01*
X121276667Y-74506382D01*
X121276672Y-74506379D01*
X121281654Y-74504056D01*
X121400491Y-74420845D01*
X121457527Y-74380908D01*
X121457529Y-74380906D01*
X121462038Y-74377749D01*
X121617749Y-74222038D01*
X121641813Y-74187672D01*
X121740899Y-74046162D01*
X121740900Y-74046160D01*
X121744056Y-74041653D01*
X121746379Y-74036671D01*
X121746382Y-74036666D01*
X121834795Y-73847061D01*
X121837120Y-73842076D01*
X121894115Y-73629371D01*
X121913307Y-73410000D01*
X121894115Y-73190629D01*
X121837120Y-72977924D01*
X121793585Y-72884562D01*
X121746382Y-72783334D01*
X121746379Y-72783329D01*
X121744056Y-72778347D01*
X121740899Y-72773838D01*
X121620908Y-72602473D01*
X121620906Y-72602470D01*
X121617749Y-72597962D01*
X121462038Y-72442251D01*
X121281654Y-72315944D01*
X121082076Y-72222880D01*
X120869371Y-72165885D01*
X120650000Y-72146693D01*
X120430629Y-72165885D01*
X120217924Y-72222880D01*
X120124562Y-72266415D01*
X120023334Y-72313618D01*
X120023329Y-72313621D01*
X120018347Y-72315944D01*
X120013840Y-72319100D01*
X120013838Y-72319101D01*
X119842473Y-72439092D01*
X119842470Y-72439094D01*
X119837962Y-72442251D01*
X119682251Y-72597962D01*
X119679094Y-72602470D01*
X119679092Y-72602473D01*
X119559101Y-72773838D01*
X119555944Y-72778347D01*
X119553621Y-72783329D01*
X119553618Y-72783334D01*
X119506415Y-72884562D01*
X119462880Y-72977924D01*
X119405885Y-73190629D01*
X119386693Y-73410000D01*
X104133307Y-73410000D01*
X104114115Y-73190629D01*
X104057120Y-72977924D01*
X104013585Y-72884562D01*
X103966382Y-72783334D01*
X103966379Y-72783329D01*
X103964056Y-72778347D01*
X103960899Y-72773838D01*
X103840908Y-72602473D01*
X103840906Y-72602470D01*
X103837749Y-72597962D01*
X103682038Y-72442251D01*
X103501654Y-72315944D01*
X103302076Y-72222880D01*
X103089371Y-72165885D01*
X102870000Y-72146693D01*
X102650629Y-72165885D01*
X102437924Y-72222880D01*
X102344562Y-72266415D01*
X102243334Y-72313618D01*
X102243329Y-72313621D01*
X102238347Y-72315944D01*
X102233840Y-72319100D01*
X102233838Y-72319101D01*
X102062473Y-72439092D01*
X102062470Y-72439094D01*
X102057962Y-72442251D01*
X101902251Y-72597962D01*
X101899094Y-72602470D01*
X101899092Y-72602473D01*
X101779101Y-72773838D01*
X101775944Y-72778347D01*
X101773621Y-72783329D01*
X101773618Y-72783334D01*
X101726415Y-72884562D01*
X101682880Y-72977924D01*
X101625885Y-73190629D01*
X101606693Y-73410000D01*
X101625885Y-73629371D01*
X101682880Y-73842076D01*
X101685205Y-73847061D01*
X101773618Y-74036666D01*
X101773621Y-74036671D01*
X101775944Y-74041653D01*
X101779100Y-74046160D01*
X101779101Y-74046162D01*
X101878188Y-74187672D01*
X101902251Y-74222038D01*
X102057962Y-74377749D01*
X102062471Y-74380906D01*
X102062473Y-74380908D01*
X102119509Y-74420845D01*
X102238346Y-74504056D01*
X102243328Y-74506379D01*
X102243333Y-74506382D01*
X102370768Y-74565805D01*
X102424053Y-74612722D01*
X102443514Y-74680999D01*
X102422972Y-74748959D01*
X102370768Y-74794195D01*
X102243334Y-74853618D01*
X102243329Y-74853621D01*
X102238347Y-74855944D01*
X102233840Y-74859100D01*
X102233838Y-74859101D01*
X102062473Y-74979092D01*
X102062470Y-74979094D01*
X102057962Y-74982251D01*
X101902251Y-75137962D01*
X101899094Y-75142470D01*
X101899092Y-75142473D01*
X101799484Y-75284728D01*
X101775944Y-75318347D01*
X101773621Y-75323329D01*
X101773618Y-75323334D01*
X101726415Y-75424562D01*
X101682880Y-75517924D01*
X101625885Y-75730629D01*
X101606693Y-75950000D01*
X101625885Y-76169371D01*
X101682880Y-76382076D01*
X101685205Y-76387061D01*
X101773618Y-76576666D01*
X101773621Y-76576671D01*
X101775944Y-76581653D01*
X101779100Y-76586160D01*
X101779101Y-76586162D01*
X101860080Y-76701811D01*
X101902251Y-76762038D01*
X102057962Y-76917749D01*
X102238346Y-77044056D01*
X102243328Y-77046379D01*
X102243333Y-77046382D01*
X102370768Y-77105805D01*
X102424053Y-77152722D01*
X102443514Y-77220999D01*
X102422972Y-77288959D01*
X102370768Y-77334195D01*
X102243334Y-77393618D01*
X102243329Y-77393621D01*
X102238347Y-77395944D01*
X102233840Y-77399100D01*
X102233838Y-77399101D01*
X102062473Y-77519092D01*
X102062470Y-77519094D01*
X102057962Y-77522251D01*
X101902251Y-77677962D01*
X101775944Y-77858347D01*
X101773621Y-77863329D01*
X101773618Y-77863334D01*
X101726415Y-77964562D01*
X101682880Y-78057924D01*
X101625885Y-78270629D01*
X101606693Y-78490000D01*
X101625885Y-78709371D01*
X101682880Y-78922076D01*
X101685205Y-78927061D01*
X101773618Y-79116666D01*
X101773621Y-79116671D01*
X101775944Y-79121653D01*
X101779100Y-79126160D01*
X101779101Y-79126162D01*
X101868897Y-79254403D01*
X101902251Y-79302038D01*
X102057962Y-79457749D01*
X102238346Y-79584056D01*
X102243328Y-79586379D01*
X102243333Y-79586382D01*
X102370768Y-79645805D01*
X102424053Y-79692722D01*
X102443514Y-79760999D01*
X102422972Y-79828959D01*
X102370768Y-79874195D01*
X102243334Y-79933618D01*
X102243329Y-79933621D01*
X102238347Y-79935944D01*
X102233840Y-79939100D01*
X102233838Y-79939101D01*
X102062473Y-80059092D01*
X102062470Y-80059094D01*
X102057962Y-80062251D01*
X101902251Y-80217962D01*
X101775944Y-80398347D01*
X101773621Y-80403329D01*
X101773618Y-80403334D01*
X101726415Y-80504562D01*
X101682880Y-80597924D01*
X101625885Y-80810629D01*
X101606693Y-81030000D01*
X101625885Y-81249371D01*
X101682880Y-81462076D01*
X101713357Y-81527434D01*
X101773618Y-81656666D01*
X101773621Y-81656671D01*
X101775944Y-81661653D01*
X101779100Y-81666160D01*
X101779101Y-81666162D01*
X101883721Y-81815574D01*
X101902251Y-81842038D01*
X102057962Y-81997749D01*
X102238346Y-82124056D01*
X102243328Y-82126379D01*
X102243333Y-82126382D01*
X102370768Y-82185805D01*
X102424053Y-82232722D01*
X102443514Y-82300999D01*
X102422972Y-82368959D01*
X102370768Y-82414195D01*
X102243334Y-82473618D01*
X102243329Y-82473621D01*
X102238347Y-82475944D01*
X102233840Y-82479100D01*
X102233838Y-82479101D01*
X102062473Y-82599092D01*
X102062470Y-82599094D01*
X102057962Y-82602251D01*
X101902251Y-82757962D01*
X101899094Y-82762470D01*
X101899092Y-82762473D01*
X101779101Y-82933838D01*
X101775944Y-82938347D01*
X101773621Y-82943329D01*
X101773618Y-82943334D01*
X101740277Y-83014835D01*
X101682880Y-83137924D01*
X101625885Y-83350629D01*
X101606693Y-83570000D01*
X101625885Y-83789371D01*
X101682880Y-84002076D01*
X101726415Y-84095438D01*
X101773618Y-84196666D01*
X101773621Y-84196671D01*
X101775944Y-84201653D01*
X101902251Y-84382038D01*
X102057962Y-84537749D01*
X102238346Y-84664056D01*
X102243328Y-84666379D01*
X102243333Y-84666382D01*
X102370768Y-84725805D01*
X102424053Y-84772722D01*
X102443514Y-84840999D01*
X102422972Y-84908959D01*
X102370768Y-84954195D01*
X102243334Y-85013618D01*
X102243329Y-85013621D01*
X102238347Y-85015944D01*
X102233840Y-85019100D01*
X102233838Y-85019101D01*
X102062473Y-85139092D01*
X102062470Y-85139094D01*
X102057962Y-85142251D01*
X101902251Y-85297962D01*
X101775944Y-85478347D01*
X101773621Y-85483329D01*
X101773618Y-85483334D01*
X101726415Y-85584562D01*
X101682880Y-85677924D01*
X101625885Y-85890629D01*
X101606693Y-86110000D01*
X101625885Y-86329371D01*
X101682880Y-86542076D01*
X101685205Y-86547061D01*
X101773618Y-86736666D01*
X101773621Y-86736671D01*
X101775944Y-86741653D01*
X101902251Y-86922038D01*
X102057962Y-87077749D01*
X102238346Y-87204056D01*
X102243328Y-87206379D01*
X102243333Y-87206382D01*
X102370768Y-87265805D01*
X102424053Y-87312722D01*
X102443514Y-87380999D01*
X102422972Y-87448959D01*
X102370768Y-87494195D01*
X102243334Y-87553618D01*
X102243329Y-87553621D01*
X102238347Y-87555944D01*
X102233840Y-87559100D01*
X102233838Y-87559101D01*
X102062473Y-87679092D01*
X102062470Y-87679094D01*
X102057962Y-87682251D01*
X101902251Y-87837962D01*
X101899094Y-87842470D01*
X101899092Y-87842473D01*
X101783570Y-88007456D01*
X101775944Y-88018347D01*
X101773621Y-88023329D01*
X101773618Y-88023334D01*
X101726415Y-88124562D01*
X101682880Y-88217924D01*
X101625885Y-88430629D01*
X101606693Y-88650000D01*
X101625885Y-88869371D01*
X101682880Y-89082076D01*
X101685205Y-89087061D01*
X101773618Y-89276666D01*
X101773621Y-89276671D01*
X101775944Y-89281653D01*
X101779100Y-89286160D01*
X101779101Y-89286162D01*
X101895853Y-89452900D01*
X101902251Y-89462038D01*
X102057962Y-89617749D01*
X102238346Y-89744056D01*
X102243328Y-89746379D01*
X102243333Y-89746382D01*
X102370768Y-89805805D01*
X102424053Y-89852722D01*
X102443514Y-89920999D01*
X102422972Y-89988959D01*
X102370768Y-90034195D01*
X102243334Y-90093618D01*
X102243329Y-90093621D01*
X102238347Y-90095944D01*
X102233840Y-90099100D01*
X102233838Y-90099101D01*
X102062473Y-90219092D01*
X102062470Y-90219094D01*
X102057962Y-90222251D01*
X101902251Y-90377962D01*
X101899094Y-90382470D01*
X101899092Y-90382473D01*
X101805213Y-90516546D01*
X101775944Y-90558347D01*
X101773621Y-90563329D01*
X101773618Y-90563334D01*
X101758272Y-90596245D01*
X101682880Y-90757924D01*
X101625885Y-90970629D01*
X101606693Y-91190000D01*
X97028500Y-91190000D01*
X97028500Y-84132252D01*
X97048502Y-84064131D01*
X97102158Y-84017638D01*
X97172432Y-84007534D01*
X97205749Y-84017145D01*
X97311282Y-84064131D01*
X97317712Y-84066994D01*
X97411113Y-84086847D01*
X97498056Y-84105328D01*
X97498061Y-84105328D01*
X97504513Y-84106700D01*
X97695487Y-84106700D01*
X97701939Y-84105328D01*
X97701944Y-84105328D01*
X97788887Y-84086847D01*
X97882288Y-84066994D01*
X97888319Y-84064309D01*
X98050722Y-83992003D01*
X98050724Y-83992002D01*
X98056752Y-83989318D01*
X98211253Y-83877066D01*
X98290214Y-83789371D01*
X98334621Y-83740052D01*
X98334622Y-83740051D01*
X98339040Y-83735144D01*
X98434527Y-83569756D01*
X98493542Y-83388128D01*
X98498042Y-83345319D01*
X98512814Y-83204765D01*
X98513504Y-83198200D01*
X98501118Y-83080349D01*
X98494232Y-83014835D01*
X98494232Y-83014833D01*
X98493542Y-83008272D01*
X98434527Y-82826644D01*
X98339040Y-82661256D01*
X98211253Y-82519334D01*
X98056752Y-82407082D01*
X98050724Y-82404398D01*
X98050722Y-82404397D01*
X97888319Y-82332091D01*
X97888318Y-82332091D01*
X97882288Y-82329406D01*
X97788888Y-82309553D01*
X97701944Y-82291072D01*
X97701939Y-82291072D01*
X97695487Y-82289700D01*
X97504513Y-82289700D01*
X97498061Y-82291072D01*
X97498056Y-82291072D01*
X97411112Y-82309553D01*
X97317712Y-82329406D01*
X97311682Y-82332091D01*
X97311681Y-82332091D01*
X97205749Y-82379255D01*
X97135382Y-82388689D01*
X97071085Y-82358583D01*
X97033271Y-82298494D01*
X97028500Y-82264148D01*
X97028500Y-77546305D01*
X97048502Y-77478184D01*
X97102158Y-77431691D01*
X97172432Y-77421587D01*
X97200684Y-77430165D01*
X97201000Y-77429338D01*
X97409692Y-77509030D01*
X97414760Y-77510061D01*
X97414763Y-77510062D01*
X97493829Y-77526148D01*
X97628597Y-77553567D01*
X97633772Y-77553757D01*
X97633774Y-77553757D01*
X97846673Y-77561564D01*
X97846677Y-77561564D01*
X97851837Y-77561753D01*
X97856957Y-77561097D01*
X97856959Y-77561097D01*
X98068288Y-77534025D01*
X98068289Y-77534025D01*
X98073416Y-77533368D01*
X98078366Y-77531883D01*
X98282429Y-77470661D01*
X98282434Y-77470659D01*
X98287384Y-77469174D01*
X98487994Y-77370896D01*
X98669860Y-77241173D01*
X98828096Y-77083489D01*
X98859013Y-77040464D01*
X98955435Y-76906277D01*
X98958453Y-76902077D01*
X99057430Y-76701811D01*
X99122370Y-76488069D01*
X99151529Y-76266590D01*
X99153156Y-76200000D01*
X99134852Y-75977361D01*
X99080431Y-75760702D01*
X98991354Y-75555840D01*
X98870014Y-75368277D01*
X98829119Y-75323334D01*
X98722798Y-75206488D01*
X98691746Y-75142642D01*
X98700141Y-75072143D01*
X98745317Y-75017375D01*
X98771761Y-75003706D01*
X98878297Y-74963767D01*
X98886705Y-74960615D01*
X99003261Y-74873261D01*
X99090615Y-74756705D01*
X99141745Y-74620316D01*
X99148500Y-74558134D01*
X99148500Y-72761866D01*
X99141745Y-72699684D01*
X99090615Y-72563295D01*
X99003261Y-72446739D01*
X98886705Y-72359385D01*
X98750316Y-72308255D01*
X98688134Y-72301500D01*
X97154500Y-72301500D01*
X97086379Y-72281498D01*
X97039886Y-72227842D01*
X97028500Y-72175500D01*
X97028500Y-71754500D01*
X97048502Y-71686379D01*
X97102158Y-71639886D01*
X97154500Y-71628500D01*
X103981408Y-71628500D01*
X104049529Y-71648502D01*
G37*
%TD.AperFunction*%
%TD*%
M02*
