%TF.GenerationSoftware,KiCad,Pcbnew,(6.0.9)*%
%TF.CreationDate,2023-11-13T03:06:44-05:00*%
%TF.ProjectId,ALRT_v1,414c5254-5f76-4312-9e6b-696361645f70,rev?*%
%TF.SameCoordinates,Original*%
%TF.FileFunction,Soldermask,Top*%
%TF.FilePolarity,Negative*%
%FSLAX46Y46*%
G04 Gerber Fmt 4.6, Leading zero omitted, Abs format (unit mm)*
G04 Created by KiCad (PCBNEW (6.0.9)) date 2023-11-13 03:06:44*
%MOMM*%
%LPD*%
G01*
G04 APERTURE LIST*
G04 Aperture macros list*
%AMRoundRect*
0 Rectangle with rounded corners*
0 $1 Rounding radius*
0 $2 $3 $4 $5 $6 $7 $8 $9 X,Y pos of 4 corners*
0 Add a 4 corners polygon primitive as box body*
4,1,4,$2,$3,$4,$5,$6,$7,$8,$9,$2,$3,0*
0 Add four circle primitives for the rounded corners*
1,1,$1+$1,$2,$3*
1,1,$1+$1,$4,$5*
1,1,$1+$1,$6,$7*
1,1,$1+$1,$8,$9*
0 Add four rect primitives between the rounded corners*
20,1,$1+$1,$2,$3,$4,$5,0*
20,1,$1+$1,$4,$5,$6,$7,0*
20,1,$1+$1,$6,$7,$8,$9,0*
20,1,$1+$1,$8,$9,$2,$3,0*%
G04 Aperture macros list end*
%ADD10RoundRect,0.200000X0.275000X-0.200000X0.275000X0.200000X-0.275000X0.200000X-0.275000X-0.200000X0*%
%ADD11RoundRect,0.200000X0.200000X0.275000X-0.200000X0.275000X-0.200000X-0.275000X0.200000X-0.275000X0*%
%ADD12RoundRect,0.102000X-0.525000X-0.325000X0.525000X-0.325000X0.525000X0.325000X-0.525000X0.325000X0*%
%ADD13RoundRect,0.200000X-0.200000X-0.275000X0.200000X-0.275000X0.200000X0.275000X-0.200000X0.275000X0*%
%ADD14RoundRect,0.150000X-0.587500X-0.150000X0.587500X-0.150000X0.587500X0.150000X-0.587500X0.150000X0*%
%ADD15R,1.200000X0.900000*%
%ADD16RoundRect,0.225000X-0.250000X0.225000X-0.250000X-0.225000X0.250000X-0.225000X0.250000X0.225000X0*%
%ADD17RoundRect,0.250000X0.325000X0.650000X-0.325000X0.650000X-0.325000X-0.650000X0.325000X-0.650000X0*%
%ADD18RoundRect,0.250000X0.250000X0.475000X-0.250000X0.475000X-0.250000X-0.475000X0.250000X-0.475000X0*%
%ADD19R,2.300000X2.300000*%
%ADD20R,1.700000X1.700000*%
%ADD21O,1.700000X1.700000*%
%ADD22RoundRect,0.144000X0.258000X-0.573000X0.258000X0.573000X-0.258000X0.573000X-0.258000X-0.573000X0*%
%ADD23RoundRect,0.225000X-0.225000X-0.250000X0.225000X-0.250000X0.225000X0.250000X-0.225000X0.250000X0*%
%ADD24RoundRect,0.218750X-0.256250X0.218750X-0.256250X-0.218750X0.256250X-0.218750X0.256250X0.218750X0*%
%ADD25RoundRect,0.200000X-0.275000X0.200000X-0.275000X-0.200000X0.275000X-0.200000X0.275000X0.200000X0*%
%ADD26RoundRect,0.075000X-0.350000X-0.075000X0.350000X-0.075000X0.350000X0.075000X-0.350000X0.075000X0*%
%ADD27RoundRect,0.075000X0.075000X-0.350000X0.075000X0.350000X-0.075000X0.350000X-0.075000X-0.350000X0*%
%ADD28RoundRect,0.144000X0.573000X0.258000X-0.573000X0.258000X-0.573000X-0.258000X0.573000X-0.258000X0*%
%ADD29C,1.500000*%
G04 APERTURE END LIST*
D10*
%TO.C,R14*%
X117678200Y-85584800D03*
X117678200Y-83934800D03*
%TD*%
D11*
%TO.C,R13*%
X109919000Y-96875600D03*
X111569000Y-96875600D03*
%TD*%
D12*
%TO.C,SW1*%
X108602100Y-84091200D03*
X112752100Y-84091200D03*
X108602100Y-86241200D03*
X112752100Y-86241200D03*
%TD*%
D13*
%TO.C,R12*%
X105118400Y-92506800D03*
X106768400Y-92506800D03*
%TD*%
D14*
%TO.C,Q3*%
X108942900Y-92928400D03*
X108942900Y-94828400D03*
X110817900Y-93878400D03*
%TD*%
D15*
%TO.C,D5*%
X123571000Y-96823800D03*
X123571000Y-93523800D03*
%TD*%
D16*
%TO.C,C7*%
X120650000Y-95618000D03*
X120650000Y-97168000D03*
%TD*%
D17*
%TO.C,C6*%
X110999800Y-88468200D03*
X108049800Y-88468200D03*
%TD*%
D18*
%TO.C,C1*%
X110500200Y-90906600D03*
X108600200Y-90906600D03*
%TD*%
D19*
%TO.C,L1*%
X113851800Y-92312600D03*
X113851800Y-96612600D03*
X118151800Y-96612600D03*
X118151800Y-92312600D03*
%TD*%
D16*
%TO.C,C2*%
X106476800Y-79616000D03*
X106476800Y-81166000D03*
%TD*%
D10*
%TO.C,R1*%
X123621800Y-81190600D03*
X123621800Y-79540600D03*
%TD*%
D20*
%TO.C,J3*%
X112263000Y-100025200D03*
D21*
X114803000Y-100025200D03*
%TD*%
D22*
%TO.C,Q2*%
X105018800Y-96665600D03*
X106918800Y-96665600D03*
X105968800Y-94545600D03*
%TD*%
D23*
%TO.C,C5*%
X114033600Y-73355200D03*
X112483600Y-73355200D03*
%TD*%
D10*
%TO.C,R3*%
X123621800Y-87616800D03*
X123621800Y-85966800D03*
%TD*%
D24*
%TO.C,D1*%
X125603000Y-79628900D03*
X125603000Y-81203900D03*
%TD*%
%TO.C,D2*%
X125603000Y-82854700D03*
X125603000Y-84429700D03*
%TD*%
D16*
%TO.C,C4*%
X109042200Y-79590600D03*
X109042200Y-81140600D03*
%TD*%
D13*
%TO.C,R11*%
X100673400Y-95377000D03*
X102323400Y-95377000D03*
%TD*%
%TO.C,R10*%
X97600000Y-81711800D03*
X99250000Y-81711800D03*
%TD*%
D10*
%TO.C,R4*%
X123621800Y-90842600D03*
X123621800Y-89192600D03*
%TD*%
D24*
%TO.C,D4*%
X125603000Y-90855900D03*
X125603000Y-89280900D03*
%TD*%
D20*
%TO.C,J4*%
X101051200Y-100101400D03*
D21*
X103591200Y-100101400D03*
X106131200Y-100101400D03*
X108671200Y-100101400D03*
%TD*%
D25*
%TO.C,R7*%
X105130600Y-88862400D03*
X105130600Y-90512400D03*
%TD*%
D13*
%TO.C,R8*%
X98221800Y-84201000D03*
X99871800Y-84201000D03*
%TD*%
D10*
%TO.C,R6*%
X105130600Y-86245200D03*
X105130600Y-84595200D03*
%TD*%
D11*
%TO.C,R5*%
X114413800Y-88112600D03*
X112763800Y-88112600D03*
%TD*%
D20*
%TO.C,J1*%
X97790000Y-73660000D03*
D21*
X97790000Y-76200000D03*
%TD*%
D20*
%TO.C,J2*%
X121742200Y-100050600D03*
D21*
X119202200Y-100050600D03*
%TD*%
D13*
%TO.C,R9*%
X97600000Y-79375000D03*
X99250000Y-79375000D03*
%TD*%
D26*
%TO.C,U2*%
X106076200Y-74035600D03*
X106076200Y-74535600D03*
X106076200Y-75035600D03*
X106076200Y-75535600D03*
X106076200Y-76035600D03*
X106076200Y-76535600D03*
D27*
X106776200Y-77235600D03*
X107276200Y-77235600D03*
X107776200Y-77235600D03*
X108276200Y-77235600D03*
X108776200Y-77235600D03*
X109276200Y-77235600D03*
D26*
X109976200Y-76535600D03*
X109976200Y-76035600D03*
X109976200Y-75535600D03*
X109976200Y-75035600D03*
X109976200Y-74535600D03*
X109976200Y-74035600D03*
D27*
X109276200Y-73335600D03*
X108776200Y-73335600D03*
X108276200Y-73335600D03*
X107776200Y-73335600D03*
X107276200Y-73335600D03*
X106776200Y-73335600D03*
%TD*%
D24*
%TO.C,D3*%
X125603000Y-86029700D03*
X125603000Y-87604700D03*
%TD*%
D10*
%TO.C,R2*%
X123621800Y-84416400D03*
X123621800Y-82766400D03*
%TD*%
D23*
%TO.C,C3*%
X112458200Y-76581000D03*
X114008200Y-76581000D03*
%TD*%
D28*
%TO.C,Q1*%
X118331800Y-89875400D03*
X118331800Y-87975400D03*
X116211800Y-88925400D03*
%TD*%
D29*
%TO.C,U1*%
X120650000Y-73410000D03*
X120650000Y-75950000D03*
X120650000Y-78490000D03*
X120650000Y-81030000D03*
X120650000Y-83570000D03*
X120650000Y-86110000D03*
X120650000Y-88650000D03*
X120650000Y-91190000D03*
X102870000Y-73410000D03*
X102870000Y-75950000D03*
X102870000Y-78490000D03*
X102870000Y-81030000D03*
X102870000Y-83570000D03*
X102870000Y-86110000D03*
X102870000Y-88650000D03*
X102870000Y-91190000D03*
%TD*%
M02*
