%TF.GenerationSoftware,KiCad,Pcbnew,(6.0.9)*%
%TF.CreationDate,2023-11-13T03:06:44-05:00*%
%TF.ProjectId,ALRT_v1,414c5254-5f76-4312-9e6b-696361645f70,rev?*%
%TF.SameCoordinates,Original*%
%TF.FileFunction,Copper,L1,Top*%
%TF.FilePolarity,Positive*%
%FSLAX46Y46*%
G04 Gerber Fmt 4.6, Leading zero omitted, Abs format (unit mm)*
G04 Created by KiCad (PCBNEW (6.0.9)) date 2023-11-13 03:06:44*
%MOMM*%
%LPD*%
G01*
G04 APERTURE LIST*
G04 Aperture macros list*
%AMRoundRect*
0 Rectangle with rounded corners*
0 $1 Rounding radius*
0 $2 $3 $4 $5 $6 $7 $8 $9 X,Y pos of 4 corners*
0 Add a 4 corners polygon primitive as box body*
4,1,4,$2,$3,$4,$5,$6,$7,$8,$9,$2,$3,0*
0 Add four circle primitives for the rounded corners*
1,1,$1+$1,$2,$3*
1,1,$1+$1,$4,$5*
1,1,$1+$1,$6,$7*
1,1,$1+$1,$8,$9*
0 Add four rect primitives between the rounded corners*
20,1,$1+$1,$2,$3,$4,$5,0*
20,1,$1+$1,$4,$5,$6,$7,0*
20,1,$1+$1,$6,$7,$8,$9,0*
20,1,$1+$1,$8,$9,$2,$3,0*%
G04 Aperture macros list end*
%TA.AperFunction,SMDPad,CuDef*%
%ADD10RoundRect,0.200000X0.275000X-0.200000X0.275000X0.200000X-0.275000X0.200000X-0.275000X-0.200000X0*%
%TD*%
%TA.AperFunction,SMDPad,CuDef*%
%ADD11RoundRect,0.200000X0.200000X0.275000X-0.200000X0.275000X-0.200000X-0.275000X0.200000X-0.275000X0*%
%TD*%
%TA.AperFunction,SMDPad,CuDef*%
%ADD12R,1.050000X0.650000*%
%TD*%
%TA.AperFunction,SMDPad,CuDef*%
%ADD13RoundRect,0.200000X-0.200000X-0.275000X0.200000X-0.275000X0.200000X0.275000X-0.200000X0.275000X0*%
%TD*%
%TA.AperFunction,SMDPad,CuDef*%
%ADD14RoundRect,0.150000X-0.587500X-0.150000X0.587500X-0.150000X0.587500X0.150000X-0.587500X0.150000X0*%
%TD*%
%TA.AperFunction,SMDPad,CuDef*%
%ADD15R,1.200000X0.900000*%
%TD*%
%TA.AperFunction,SMDPad,CuDef*%
%ADD16RoundRect,0.225000X-0.250000X0.225000X-0.250000X-0.225000X0.250000X-0.225000X0.250000X0.225000X0*%
%TD*%
%TA.AperFunction,SMDPad,CuDef*%
%ADD17RoundRect,0.250000X0.325000X0.650000X-0.325000X0.650000X-0.325000X-0.650000X0.325000X-0.650000X0*%
%TD*%
%TA.AperFunction,SMDPad,CuDef*%
%ADD18RoundRect,0.250000X0.250000X0.475000X-0.250000X0.475000X-0.250000X-0.475000X0.250000X-0.475000X0*%
%TD*%
%TA.AperFunction,SMDPad,CuDef*%
%ADD19R,2.300000X2.300000*%
%TD*%
%TA.AperFunction,ComponentPad*%
%ADD20R,1.700000X1.700000*%
%TD*%
%TA.AperFunction,ComponentPad*%
%ADD21O,1.700000X1.700000*%
%TD*%
%TA.AperFunction,SMDPad,CuDef*%
%ADD22RoundRect,0.042000X0.258000X-0.573000X0.258000X0.573000X-0.258000X0.573000X-0.258000X-0.573000X0*%
%TD*%
%TA.AperFunction,SMDPad,CuDef*%
%ADD23RoundRect,0.225000X-0.225000X-0.250000X0.225000X-0.250000X0.225000X0.250000X-0.225000X0.250000X0*%
%TD*%
%TA.AperFunction,SMDPad,CuDef*%
%ADD24RoundRect,0.218750X-0.256250X0.218750X-0.256250X-0.218750X0.256250X-0.218750X0.256250X0.218750X0*%
%TD*%
%TA.AperFunction,SMDPad,CuDef*%
%ADD25RoundRect,0.200000X-0.275000X0.200000X-0.275000X-0.200000X0.275000X-0.200000X0.275000X0.200000X0*%
%TD*%
%TA.AperFunction,SMDPad,CuDef*%
%ADD26RoundRect,0.075000X-0.350000X-0.075000X0.350000X-0.075000X0.350000X0.075000X-0.350000X0.075000X0*%
%TD*%
%TA.AperFunction,SMDPad,CuDef*%
%ADD27RoundRect,0.075000X0.075000X-0.350000X0.075000X0.350000X-0.075000X0.350000X-0.075000X-0.350000X0*%
%TD*%
%TA.AperFunction,SMDPad,CuDef*%
%ADD28RoundRect,0.042000X0.573000X0.258000X-0.573000X0.258000X-0.573000X-0.258000X0.573000X-0.258000X0*%
%TD*%
%TA.AperFunction,ComponentPad*%
%ADD29C,1.500000*%
%TD*%
%TA.AperFunction,ViaPad*%
%ADD30C,0.800000*%
%TD*%
%TA.AperFunction,Conductor*%
%ADD31C,0.250000*%
%TD*%
%TA.AperFunction,Conductor*%
%ADD32C,0.500000*%
%TD*%
%TA.AperFunction,Conductor*%
%ADD33C,0.750000*%
%TD*%
G04 APERTURE END LIST*
D10*
%TO.P,R14,1*%
%TO.N,/Shock_chg*%
X117678200Y-85584800D03*
%TO.P,R14,2*%
%TO.N,GND*%
X117678200Y-83934800D03*
%TD*%
D11*
%TO.P,R13,2*%
%TO.N,Net-(Q3-Pad3)*%
X109919000Y-96875600D03*
%TO.P,R13,1*%
%TO.N,Net-(R13-Pad1)*%
X111569000Y-96875600D03*
%TD*%
D12*
%TO.P,SW1,1*%
%TO.N,/PBNO*%
X108602100Y-84091200D03*
%TO.P,SW1,2*%
X112752100Y-84091200D03*
%TO.P,SW1,3*%
%TO.N,+3V3*%
X108602100Y-86241200D03*
%TO.P,SW1,4*%
X112752100Y-86241200D03*
%TD*%
D13*
%TO.P,R12,1*%
%TO.N,Net-(Q3-Pad1)*%
X105118400Y-92506800D03*
%TO.P,R12,2*%
%TO.N,/Shock_dis*%
X106768400Y-92506800D03*
%TD*%
D14*
%TO.P,Q3,1,B*%
%TO.N,Net-(Q3-Pad1)*%
X108942900Y-92928400D03*
%TO.P,Q3,2,E*%
%TO.N,GND*%
X108942900Y-94828400D03*
%TO.P,Q3,3,C*%
%TO.N,Net-(Q3-Pad3)*%
X110817900Y-93878400D03*
%TD*%
D15*
%TO.P,D5,1,A*%
%TO.N,/Electrode_p*%
X123571000Y-96823800D03*
%TO.P,D5,2,K*%
%TO.N,Net-(D5-Pad2)*%
X123571000Y-93523800D03*
%TD*%
D16*
%TO.P,C7,1*%
%TO.N,/Electrode_p*%
X120650000Y-95618000D03*
%TO.P,C7,2*%
%TO.N,/Electrode_n*%
X120650000Y-97168000D03*
%TD*%
D17*
%TO.P,C6,1*%
%TO.N,Net-(C1-Pad1)*%
X110999800Y-88468200D03*
%TO.P,C6,2*%
%TO.N,GND*%
X108049800Y-88468200D03*
%TD*%
D18*
%TO.P,C1,1*%
%TO.N,Net-(C1-Pad1)*%
X110500200Y-90906600D03*
%TO.P,C1,2*%
%TO.N,GND*%
X108600200Y-90906600D03*
%TD*%
D19*
%TO.P,L1,1,1*%
%TO.N,Net-(C1-Pad1)*%
X113851800Y-92312600D03*
%TO.P,L1,2,2*%
%TO.N,Net-(R13-Pad1)*%
X113851800Y-96612600D03*
%TO.P,L1,3,3*%
%TO.N,/Electrode_n*%
X118151800Y-96612600D03*
%TO.P,L1,4,4*%
%TO.N,Net-(D5-Pad2)*%
X118151800Y-92312600D03*
%TD*%
D16*
%TO.P,C2,1*%
%TO.N,+3V3*%
X106476800Y-79616000D03*
%TO.P,C2,2*%
%TO.N,GND*%
X106476800Y-81166000D03*
%TD*%
D10*
%TO.P,R1,1*%
%TO.N,Net-(D1-Pad2)*%
X123621800Y-81190600D03*
%TO.P,R1,2*%
%TO.N,/LED1*%
X123621800Y-79540600D03*
%TD*%
D20*
%TO.P,J3,1,Pin_1*%
%TO.N,/Vib_out*%
X112263000Y-100025200D03*
D21*
%TO.P,J3,2,Pin_2*%
%TO.N,GND*%
X114803000Y-100025200D03*
%TD*%
D22*
%TO.P,Q2,1*%
%TO.N,/Vib*%
X105018800Y-96665600D03*
%TO.P,Q2,2*%
%TO.N,/Vib_out*%
X106918800Y-96665600D03*
%TO.P,Q2,3*%
%TO.N,+3V3*%
X105968800Y-94545600D03*
%TD*%
D23*
%TO.P,C5,2*%
%TO.N,GND*%
X114033600Y-73355200D03*
%TO.P,C5,1*%
%TO.N,Net-(C5-Pad1)*%
X112483600Y-73355200D03*
%TD*%
D10*
%TO.P,R3,1*%
%TO.N,Net-(D3-Pad2)*%
X123621800Y-87616800D03*
%TO.P,R3,2*%
%TO.N,/LED3*%
X123621800Y-85966800D03*
%TD*%
D24*
%TO.P,D1,1,K*%
%TO.N,GND*%
X125603000Y-79628900D03*
%TO.P,D1,2,A*%
%TO.N,Net-(D1-Pad2)*%
X125603000Y-81203900D03*
%TD*%
%TO.P,D2,1,K*%
%TO.N,GND*%
X125603000Y-82854700D03*
%TO.P,D2,2,A*%
%TO.N,Net-(D2-Pad2)*%
X125603000Y-84429700D03*
%TD*%
D16*
%TO.P,C4,1*%
%TO.N,Net-(C4-Pad1)*%
X109042200Y-79590600D03*
%TO.P,C4,2*%
%TO.N,GND*%
X109042200Y-81140600D03*
%TD*%
D13*
%TO.P,R11,1*%
%TO.N,GND*%
X100673400Y-95377000D03*
%TO.P,R11,2*%
%TO.N,/Vib*%
X102323400Y-95377000D03*
%TD*%
%TO.P,R10,1*%
%TO.N,GND*%
X97600000Y-81711800D03*
%TO.P,R10,2*%
%TO.N,/Vref*%
X99250000Y-81711800D03*
%TD*%
D10*
%TO.P,R4,1*%
%TO.N,Net-(D4-Pad2)*%
X123621800Y-90842600D03*
%TO.P,R4,2*%
%TO.N,/LED4*%
X123621800Y-89192600D03*
%TD*%
D24*
%TO.P,D4,2,A*%
%TO.N,Net-(D4-Pad2)*%
X125603000Y-90855900D03*
%TO.P,D4,1,K*%
%TO.N,GND*%
X125603000Y-89280900D03*
%TD*%
D20*
%TO.P,J4,1,Pin_1*%
%TO.N,+3V3*%
X101051200Y-100101400D03*
D21*
%TO.P,J4,2,Pin_2*%
%TO.N,GND*%
X103591200Y-100101400D03*
%TO.P,J4,3,Pin_3*%
%TO.N,/SDA*%
X106131200Y-100101400D03*
%TO.P,J4,4,Pin_4*%
%TO.N,/SCL*%
X108671200Y-100101400D03*
%TD*%
D25*
%TO.P,R7,1*%
%TO.N,/SCL*%
X105130600Y-88862400D03*
%TO.P,R7,2*%
%TO.N,+3V3*%
X105130600Y-90512400D03*
%TD*%
D13*
%TO.P,R8,1*%
%TO.N,GND*%
X98221800Y-84201000D03*
%TO.P,R8,2*%
%TO.N,/PBNO*%
X99871800Y-84201000D03*
%TD*%
D10*
%TO.P,R6,1*%
%TO.N,/SDA*%
X105130600Y-86245200D03*
%TO.P,R6,2*%
%TO.N,+3V3*%
X105130600Y-84595200D03*
%TD*%
D11*
%TO.P,R5,1*%
%TO.N,Net-(Q1-Pad2)*%
X114413800Y-88112600D03*
%TO.P,R5,2*%
%TO.N,Net-(C1-Pad1)*%
X112763800Y-88112600D03*
%TD*%
D20*
%TO.P,J1,1,Pin_1*%
%TO.N,+BATT*%
X97790000Y-73660000D03*
D21*
%TO.P,J1,2,Pin_2*%
%TO.N,GND*%
X97790000Y-76200000D03*
%TD*%
D20*
%TO.P,J2,1,Pin_1*%
%TO.N,/Electrode_p*%
X121742200Y-100050600D03*
D21*
%TO.P,J2,2,Pin_2*%
%TO.N,/Electrode_n*%
X119202200Y-100050600D03*
%TD*%
D13*
%TO.P,R9,1*%
%TO.N,/Vref*%
X97600000Y-79375000D03*
%TO.P,R9,2*%
%TO.N,+BATT*%
X99250000Y-79375000D03*
%TD*%
D26*
%TO.P,U2,1,CLKIN*%
%TO.N,GND*%
X106076200Y-74035600D03*
%TO.P,U2,2,NC*%
%TO.N,unconnected-(U2-Pad2)*%
X106076200Y-74535600D03*
%TO.P,U2,3,NC*%
%TO.N,unconnected-(U2-Pad3)*%
X106076200Y-75035600D03*
%TO.P,U2,4,NC*%
%TO.N,unconnected-(U2-Pad4)*%
X106076200Y-75535600D03*
%TO.P,U2,5,NC*%
%TO.N,unconnected-(U2-Pad5)*%
X106076200Y-76035600D03*
%TO.P,U2,6,AUX_SDA*%
%TO.N,unconnected-(U2-Pad6)*%
X106076200Y-76535600D03*
D27*
%TO.P,U2,7,AUX_SCL*%
%TO.N,unconnected-(U2-Pad7)*%
X106776200Y-77235600D03*
%TO.P,U2,8,VDDIO*%
%TO.N,+3V3*%
X107276200Y-77235600D03*
%TO.P,U2,9,AD0*%
%TO.N,GND*%
X107776200Y-77235600D03*
%TO.P,U2,10,REGOUT*%
%TO.N,Net-(C4-Pad1)*%
X108276200Y-77235600D03*
%TO.P,U2,11,FSYNC*%
%TO.N,GND*%
X108776200Y-77235600D03*
%TO.P,U2,12,INT*%
%TO.N,unconnected-(U2-Pad12)*%
X109276200Y-77235600D03*
D26*
%TO.P,U2,13,VDD*%
%TO.N,+3V3*%
X109976200Y-76535600D03*
%TO.P,U2,14,NC*%
%TO.N,unconnected-(U2-Pad14)*%
X109976200Y-76035600D03*
%TO.P,U2,15,NC*%
%TO.N,unconnected-(U2-Pad15)*%
X109976200Y-75535600D03*
%TO.P,U2,16,NC*%
%TO.N,unconnected-(U2-Pad16)*%
X109976200Y-75035600D03*
%TO.P,U2,17,NC*%
%TO.N,unconnected-(U2-Pad17)*%
X109976200Y-74535600D03*
%TO.P,U2,18,GND*%
%TO.N,GND*%
X109976200Y-74035600D03*
D27*
%TO.P,U2,19,NC*%
%TO.N,unconnected-(U2-Pad19)*%
X109276200Y-73335600D03*
%TO.P,U2,20,CPOUT*%
%TO.N,Net-(C5-Pad1)*%
X108776200Y-73335600D03*
%TO.P,U2,21,NC*%
%TO.N,unconnected-(U2-Pad21)*%
X108276200Y-73335600D03*
%TO.P,U2,22,NC*%
%TO.N,unconnected-(U2-Pad22)*%
X107776200Y-73335600D03*
%TO.P,U2,23,SCL*%
%TO.N,/SCL*%
X107276200Y-73335600D03*
%TO.P,U2,24,SDA*%
%TO.N,/SDA*%
X106776200Y-73335600D03*
%TD*%
D24*
%TO.P,D3,1,K*%
%TO.N,GND*%
X125603000Y-86029700D03*
%TO.P,D3,2,A*%
%TO.N,Net-(D3-Pad2)*%
X125603000Y-87604700D03*
%TD*%
D10*
%TO.P,R2,1*%
%TO.N,Net-(D2-Pad2)*%
X123621800Y-84416400D03*
%TO.P,R2,2*%
%TO.N,/LED2*%
X123621800Y-82766400D03*
%TD*%
D23*
%TO.P,C3,1*%
%TO.N,+3V3*%
X112458200Y-76581000D03*
%TO.P,C3,2*%
%TO.N,GND*%
X114008200Y-76581000D03*
%TD*%
D28*
%TO.P,Q1,1*%
%TO.N,/Shock_chg*%
X118331800Y-89875400D03*
%TO.P,Q1,2*%
%TO.N,Net-(Q1-Pad2)*%
X118331800Y-87975400D03*
%TO.P,Q1,3*%
%TO.N,+3V3*%
X116211800Y-88925400D03*
%TD*%
D29*
%TO.P,U1,1,GND*%
%TO.N,GND*%
X120650000Y-73410000D03*
%TO.P,U1,2,3V3*%
%TO.N,+3V3*%
X120650000Y-75950000D03*
%TO.P,U1,3,0*%
%TO.N,/Vref*%
X120650000Y-78490000D03*
%TO.P,U1,4,1*%
%TO.N,/LED1*%
X120650000Y-81030000D03*
%TO.P,U1,5,4*%
%TO.N,/LED2*%
X120650000Y-83570000D03*
%TO.P,U1,6,6*%
%TO.N,/LED3*%
X120650000Y-86110000D03*
%TO.P,U1,7,5*%
%TO.N,/LED4*%
X120650000Y-88650000D03*
%TO.P,U1,8,7*%
%TO.N,/Shock_chg*%
X120650000Y-91190000D03*
%TO.P,U1,9,BAT*%
%TO.N,+BATT*%
X102870000Y-73410000D03*
%TO.P,U1,10,GND*%
%TO.N,GND*%
X102870000Y-75950000D03*
%TO.P,U1,11,VIN*%
%TO.N,unconnected-(U1-Pad11)*%
X102870000Y-78490000D03*
%TO.P,U1,12,20*%
%TO.N,/Vib*%
X102870000Y-81030000D03*
%TO.P,U1,13,21*%
%TO.N,/PBNO*%
X102870000Y-83570000D03*
%TO.P,U1,14,8*%
%TO.N,/SDA*%
X102870000Y-86110000D03*
%TO.P,U1,15,9*%
%TO.N,/SCL*%
X102870000Y-88650000D03*
%TO.P,U1,16,2*%
%TO.N,/Shock_dis*%
X102870000Y-91190000D03*
%TD*%
D30*
%TO.N,GND*%
X97600000Y-83198200D03*
X107238800Y-94056200D03*
X100685600Y-97028000D03*
X107878550Y-94683150D03*
X107594400Y-90779600D03*
X107670600Y-90119200D03*
%TO.N,+3V3*%
X112369600Y-78155800D03*
%TO.N,GND*%
X109474000Y-78460600D03*
%TO.N,+3V3*%
X104851200Y-94335600D03*
X106476800Y-78525685D03*
X110955400Y-86241200D03*
X114808000Y-89865200D03*
%TO.N,GND*%
X114008200Y-75094800D03*
X109067600Y-82346800D03*
X117678200Y-82397600D03*
X124663200Y-88544400D03*
%TO.N,/SCL*%
X107289600Y-71983600D03*
%TO.N,/SDA*%
X104978200Y-72034400D03*
%TD*%
D31*
%TO.N,GND*%
X97600000Y-81711800D02*
X97600000Y-83198200D01*
X97600000Y-83198200D02*
X97600000Y-83579200D01*
X108011000Y-94828400D02*
X107238800Y-94056200D01*
X108942900Y-94828400D02*
X108011000Y-94828400D01*
D32*
%TO.N,Net-(Q3-Pad3)*%
X110817900Y-95976700D02*
X109919000Y-96875600D01*
X110817900Y-93878400D02*
X110817900Y-95976700D01*
D31*
%TO.N,/Shock_dis*%
X104347200Y-89712800D02*
X102870000Y-91190000D01*
X105748462Y-89712800D02*
X104347200Y-89712800D01*
X106768400Y-90732738D02*
X105748462Y-89712800D01*
X106768400Y-92506800D02*
X106768400Y-90732738D01*
%TO.N,GND*%
X100673400Y-97015800D02*
X100685600Y-97028000D01*
X100673400Y-95377000D02*
X100673400Y-97015800D01*
X108023800Y-94828400D02*
X107878550Y-94683150D01*
X108942900Y-94828400D02*
X108023800Y-94828400D01*
%TO.N,Net-(Q3-Pad1)*%
X105918400Y-93306800D02*
X105118400Y-92506800D01*
X108564500Y-93306800D02*
X105918400Y-93306800D01*
X108942900Y-92928400D02*
X108564500Y-93306800D01*
D32*
%TO.N,GND*%
X107721400Y-90906600D02*
X107594400Y-90779600D01*
X108600200Y-90906600D02*
X107721400Y-90906600D01*
X107922800Y-89867000D02*
X107670600Y-90119200D01*
X108049800Y-89867000D02*
X107922800Y-89867000D01*
X108049800Y-89867000D02*
X108049800Y-90356200D01*
X108049800Y-88468200D02*
X108049800Y-89867000D01*
D31*
%TO.N,+3V3*%
X112458200Y-78067200D02*
X112369600Y-78155800D01*
X112458200Y-76581000D02*
X112458200Y-78067200D01*
X109976200Y-76535600D02*
X112412800Y-76535600D01*
X112412800Y-76535600D02*
X112458200Y-76581000D01*
%TO.N,GND*%
X107776200Y-77235600D02*
X107776200Y-81123600D01*
X107733800Y-81166000D02*
X109016800Y-81166000D01*
X107776200Y-81123600D02*
X107733800Y-81166000D01*
X106476800Y-81166000D02*
X107733800Y-81166000D01*
%TO.N,/Vref*%
X105029000Y-80971017D02*
X107141383Y-83083400D01*
X105029000Y-79883000D02*
X105029000Y-80971017D01*
X114274600Y-80365600D02*
X118774400Y-80365600D01*
X100392000Y-79883000D02*
X105029000Y-79883000D01*
X107141383Y-83083400D02*
X111556800Y-83083400D01*
X111556800Y-83083400D02*
X114274600Y-80365600D01*
%TO.N,GND*%
X108776200Y-77762800D02*
X109474000Y-78460600D01*
X108776200Y-77235600D02*
X108776200Y-77762800D01*
%TO.N,+3V3*%
X105156000Y-94030800D02*
X104851200Y-94335600D01*
X105156000Y-94030800D02*
X105670800Y-94545600D01*
X104393400Y-93268200D02*
X105156000Y-94030800D01*
X105670800Y-94545600D02*
X105968800Y-94545600D01*
X105130600Y-90512400D02*
X104393400Y-91249600D01*
X104393400Y-91249600D02*
X104393400Y-93268200D01*
X106476800Y-79616000D02*
X106476800Y-78525685D01*
X108602100Y-86241200D02*
X112752100Y-86241200D01*
X115747800Y-88925400D02*
X114808000Y-89865200D01*
X116211800Y-88925400D02*
X115747800Y-88925400D01*
%TO.N,GND*%
X114008200Y-73380600D02*
X114033600Y-73355200D01*
X114008200Y-76581000D02*
X114008200Y-73380600D01*
X109042200Y-82321400D02*
X109067600Y-82346800D01*
X109042200Y-81140600D02*
X109042200Y-82321400D01*
X109016800Y-81166000D02*
X109042200Y-81140600D01*
X117678200Y-83934800D02*
X117678200Y-82397600D01*
X125399700Y-89280900D02*
X124663200Y-88544400D01*
X125603000Y-89280900D02*
X125399700Y-89280900D01*
X126364900Y-82854700D02*
X126403000Y-82892800D01*
X125603000Y-82854700D02*
X126364900Y-82854700D01*
X126403000Y-82892800D02*
X126403000Y-86042400D01*
X126403000Y-80428900D02*
X126403000Y-82892800D01*
X126390300Y-86029700D02*
X126403000Y-86042400D01*
X125603000Y-86029700D02*
X126390300Y-86029700D01*
X126403000Y-86042400D02*
X126403000Y-88480900D01*
X126403000Y-88480900D02*
X125603000Y-89280900D01*
X125603000Y-79628900D02*
X126403000Y-80428900D01*
X125603000Y-78363000D02*
X120650000Y-73410000D01*
X125603000Y-79628900D02*
X125603000Y-78363000D01*
X97600000Y-83579200D02*
X98221800Y-84201000D01*
%TO.N,/Vib_out*%
X110278400Y-100025200D02*
X112263000Y-100025200D01*
X106918800Y-96665600D02*
X110278400Y-100025200D01*
D32*
%TO.N,Net-(Q1-Pad2)*%
X118194600Y-88112600D02*
X118331800Y-87975400D01*
X114413800Y-88112600D02*
X118194600Y-88112600D01*
%TO.N,GND*%
X108049800Y-90356200D02*
X108600200Y-90906600D01*
%TO.N,Net-(C1-Pad1)*%
X112408200Y-88468200D02*
X112763800Y-88112600D01*
X110999800Y-88468200D02*
X112408200Y-88468200D01*
X110999800Y-90407000D02*
X110500200Y-90906600D01*
X110999800Y-88468200D02*
X110999800Y-90407000D01*
X111906200Y-92312600D02*
X110500200Y-90906600D01*
X113851800Y-92312600D02*
X111906200Y-92312600D01*
%TO.N,Net-(R13-Pad1)*%
X111832000Y-96612600D02*
X111569000Y-96875600D01*
X113851800Y-96612600D02*
X111832000Y-96612600D01*
%TO.N,Net-(D5-Pad2)*%
X119363000Y-93523800D02*
X118151800Y-92312600D01*
X123571000Y-93523800D02*
X119363000Y-93523800D01*
%TO.N,/Electrode_n*%
X118151800Y-99000200D02*
X119202200Y-100050600D01*
X118151800Y-96612600D02*
X118151800Y-99000200D01*
X118707200Y-97168000D02*
X118151800Y-96612600D01*
X120650000Y-97168000D02*
X118707200Y-97168000D01*
%TO.N,/Electrode_p*%
X122365200Y-95618000D02*
X123571000Y-96823800D01*
X120650000Y-95618000D02*
X122365200Y-95618000D01*
X123571000Y-98221800D02*
X121742200Y-100050600D01*
X123571000Y-96823800D02*
X123571000Y-98221800D01*
D31*
%TO.N,+3V3*%
X106776600Y-86241200D02*
X108602100Y-86241200D01*
X105130600Y-84595200D02*
X106776600Y-86241200D01*
%TO.N,/Vref*%
X99250000Y-81025000D02*
X100392000Y-79883000D01*
X118774400Y-80365600D02*
X120650000Y-78490000D01*
%TO.N,Net-(C5-Pad1)*%
X108776200Y-72644915D02*
X108776200Y-73335600D01*
X108835515Y-72585600D02*
X108776200Y-72644915D01*
X111714000Y-72585600D02*
X108835515Y-72585600D01*
X112483600Y-73355200D02*
X111714000Y-72585600D01*
%TO.N,+3V3*%
X107276200Y-77726285D02*
X107276200Y-77235600D01*
X106476800Y-78525685D02*
X107276200Y-77726285D01*
%TO.N,Net-(C4-Pad1)*%
X108276200Y-78824600D02*
X109042200Y-79590600D01*
X108276200Y-77235600D02*
X108276200Y-78824600D01*
%TO.N,GND*%
X104784400Y-74035600D02*
X102870000Y-75950000D01*
X106076200Y-74035600D02*
X104784400Y-74035600D01*
X111911183Y-74035600D02*
X112030783Y-74155200D01*
X109976200Y-74035600D02*
X111911183Y-74035600D01*
X112030783Y-74155200D02*
X113233600Y-74155200D01*
X113233600Y-74155200D02*
X114033600Y-73355200D01*
%TO.N,/Vib*%
X101723000Y-81030000D02*
X102870000Y-81030000D01*
X98946800Y-83806200D02*
X101723000Y-81030000D01*
X98946800Y-92000400D02*
X98946800Y-83806200D01*
X102323400Y-95377000D02*
X98946800Y-92000400D01*
X103612000Y-96665600D02*
X102323400Y-95377000D01*
X105018800Y-96665600D02*
X103612000Y-96665600D01*
%TO.N,/SCL*%
X107289600Y-71983600D02*
X107289600Y-73322200D01*
X107289600Y-73322200D02*
X107276200Y-73335600D01*
%TO.N,/SDA*%
X105475000Y-72034400D02*
X106776200Y-73335600D01*
X104978200Y-72034400D02*
X105475000Y-72034400D01*
X103005200Y-86245200D02*
X102870000Y-86110000D01*
X105130600Y-86245200D02*
X103005200Y-86245200D01*
%TO.N,/SCL*%
X104829800Y-88650000D02*
X102870000Y-88650000D01*
%TO.N,+BATT*%
X102620000Y-73660000D02*
X102870000Y-73410000D01*
D33*
X97790000Y-73660000D02*
X102620000Y-73660000D01*
D31*
X99250000Y-75120000D02*
X97790000Y-73660000D01*
X99250000Y-79375000D02*
X99250000Y-75120000D01*
%TO.N,/Vref*%
X99250000Y-81025000D02*
X97600000Y-79375000D01*
X99250000Y-81711800D02*
X99250000Y-81025000D01*
%TO.N,/PBNO*%
X108602100Y-84091200D02*
X112752100Y-84091200D01*
X108080900Y-83570000D02*
X108602100Y-84091200D01*
X102870000Y-83570000D02*
X108080900Y-83570000D01*
X100502800Y-83570000D02*
X99871800Y-84201000D01*
X102870000Y-83570000D02*
X100502800Y-83570000D01*
%TO.N,/Shock_chg*%
X119575000Y-89635800D02*
X119335400Y-89875400D01*
X119575000Y-87481600D02*
X119575000Y-89635800D01*
X117678200Y-85584800D02*
X119575000Y-87481600D01*
X119335400Y-89875400D02*
X118331800Y-89875400D01*
X120650000Y-91190000D02*
X119335400Y-89875400D01*
%TO.N,Net-(D4-Pad2)*%
X125589700Y-90842600D02*
X125603000Y-90855900D01*
X123621800Y-90842600D02*
X125589700Y-90842600D01*
%TO.N,/LED4*%
X123079200Y-88650000D02*
X120650000Y-88650000D01*
X123621800Y-89192600D02*
X123079200Y-88650000D01*
%TO.N,Net-(D3-Pad2)*%
X125590900Y-87616800D02*
X125603000Y-87604700D01*
X123621800Y-87616800D02*
X125590900Y-87616800D01*
%TO.N,/LED3*%
X123478600Y-86110000D02*
X120650000Y-86110000D01*
X123621800Y-85966800D02*
X123478600Y-86110000D01*
%TO.N,Net-(D2-Pad2)*%
X125589700Y-84416400D02*
X125603000Y-84429700D01*
X123621800Y-84416400D02*
X125589700Y-84416400D01*
%TO.N,/LED2*%
X122818200Y-83570000D02*
X120650000Y-83570000D01*
X123621800Y-82766400D02*
X122818200Y-83570000D01*
%TO.N,Net-(D1-Pad2)*%
X125589700Y-81190600D02*
X125603000Y-81203900D01*
X123621800Y-81190600D02*
X125589700Y-81190600D01*
%TO.N,/LED1*%
X122139400Y-79540600D02*
X120650000Y-81030000D01*
X123621800Y-79540600D02*
X122139400Y-79540600D01*
%TD*%
M02*
