%TF.GenerationSoftware,KiCad,Pcbnew,(6.0.9)*%
%TF.CreationDate,2023-11-13T03:06:44-05:00*%
%TF.ProjectId,ALRT_v1,414c5254-5f76-4312-9e6b-696361645f70,rev?*%
%TF.SameCoordinates,Original*%
%TF.FileFunction,Copper,L2,Inr*%
%TF.FilePolarity,Positive*%
%FSLAX46Y46*%
G04 Gerber Fmt 4.6, Leading zero omitted, Abs format (unit mm)*
G04 Created by KiCad (PCBNEW (6.0.9)) date 2023-11-13 03:06:44*
%MOMM*%
%LPD*%
G01*
G04 APERTURE LIST*
%TA.AperFunction,ComponentPad*%
%ADD10R,1.700000X1.700000*%
%TD*%
%TA.AperFunction,ComponentPad*%
%ADD11O,1.700000X1.700000*%
%TD*%
%TA.AperFunction,ComponentPad*%
%ADD12C,1.500000*%
%TD*%
%TA.AperFunction,ViaPad*%
%ADD13C,0.800000*%
%TD*%
G04 APERTURE END LIST*
D10*
%TO.N,/Vib_out*%
%TO.C,J3*%
X112263000Y-100025200D03*
D11*
%TO.N,GND*%
X114803000Y-100025200D03*
%TD*%
D10*
%TO.N,+3V3*%
%TO.C,J4*%
X101051200Y-100101400D03*
D11*
%TO.N,GND*%
X103591200Y-100101400D03*
%TO.N,/SDA*%
X106131200Y-100101400D03*
%TO.N,/SCL*%
X108671200Y-100101400D03*
%TD*%
D10*
%TO.N,+BATT*%
%TO.C,J1*%
X97790000Y-73660000D03*
D11*
%TO.N,GND*%
X97790000Y-76200000D03*
%TD*%
D10*
%TO.N,/Electrode_p*%
%TO.C,J2*%
X121742200Y-100050600D03*
D11*
%TO.N,/Electrode_n*%
X119202200Y-100050600D03*
%TD*%
D12*
%TO.N,GND*%
%TO.C,U1*%
X120650000Y-73410000D03*
%TO.N,+3V3*%
X120650000Y-75950000D03*
%TO.N,/Vref*%
X120650000Y-78490000D03*
%TO.N,/LED1*%
X120650000Y-81030000D03*
%TO.N,/LED2*%
X120650000Y-83570000D03*
%TO.N,/LED3*%
X120650000Y-86110000D03*
%TO.N,/LED4*%
X120650000Y-88650000D03*
%TO.N,/Shock_chg*%
X120650000Y-91190000D03*
%TO.N,+BATT*%
X102870000Y-73410000D03*
%TO.N,GND*%
X102870000Y-75950000D03*
%TO.N,unconnected-(U1-Pad11)*%
X102870000Y-78490000D03*
%TO.N,/Vib*%
X102870000Y-81030000D03*
%TO.N,/PBNO*%
X102870000Y-83570000D03*
%TO.N,/SDA*%
X102870000Y-86110000D03*
%TO.N,/SCL*%
X102870000Y-88650000D03*
%TO.N,/Shock_dis*%
X102870000Y-91190000D03*
%TD*%
D13*
%TO.N,GND*%
X97600000Y-83198200D03*
X107238800Y-94056200D03*
X100685600Y-97028000D03*
X107878550Y-94683150D03*
X107594400Y-90779600D03*
X107670600Y-90119200D03*
%TO.N,+3V3*%
X112369600Y-78155800D03*
%TO.N,GND*%
X109474000Y-78460600D03*
%TO.N,+3V3*%
X104851200Y-94335600D03*
X106476800Y-78525685D03*
X110955400Y-86241200D03*
X114808000Y-89865200D03*
%TO.N,GND*%
X114008200Y-75094800D03*
X109067600Y-82346800D03*
X117678200Y-82397600D03*
X124663200Y-88544400D03*
%TO.N,/SCL*%
X107289600Y-71983600D03*
%TO.N,/SDA*%
X104978200Y-72034400D03*
%TD*%
%TA.AperFunction,Conductor*%
%TO.N,GND*%
G36*
X104049529Y-71648502D02*
G01*
X104096022Y-71702158D01*
X104106126Y-71772432D01*
X104101242Y-71793431D01*
X104084658Y-71844472D01*
X104064696Y-72034400D01*
X104065386Y-72040965D01*
X104079979Y-72179806D01*
X104084658Y-72224328D01*
X104143673Y-72405956D01*
X104146976Y-72411678D01*
X104146977Y-72411679D01*
X104180886Y-72470410D01*
X104239160Y-72571344D01*
X104243578Y-72576251D01*
X104243579Y-72576252D01*
X104324703Y-72666349D01*
X104366947Y-72713266D01*
X104521448Y-72825518D01*
X104527476Y-72828202D01*
X104527478Y-72828203D01*
X104670994Y-72892100D01*
X104695912Y-72903194D01*
X104789312Y-72923047D01*
X104876256Y-72941528D01*
X104876261Y-72941528D01*
X104882713Y-72942900D01*
X105073687Y-72942900D01*
X105080139Y-72941528D01*
X105080144Y-72941528D01*
X105167088Y-72923047D01*
X105260488Y-72903194D01*
X105285406Y-72892100D01*
X105428922Y-72828203D01*
X105428924Y-72828202D01*
X105434952Y-72825518D01*
X105589453Y-72713266D01*
X105631697Y-72666349D01*
X105712821Y-72576252D01*
X105712822Y-72576251D01*
X105717240Y-72571344D01*
X105775514Y-72470410D01*
X105809423Y-72411679D01*
X105809424Y-72411678D01*
X105812727Y-72405956D01*
X105871742Y-72224328D01*
X105876422Y-72179806D01*
X105891014Y-72040965D01*
X105891704Y-72034400D01*
X105871742Y-71844472D01*
X105855159Y-71793435D01*
X105853131Y-71722469D01*
X105889793Y-71661671D01*
X105953505Y-71630346D01*
X105974992Y-71628500D01*
X106276302Y-71628500D01*
X106344423Y-71648502D01*
X106390916Y-71702158D01*
X106401020Y-71772432D01*
X106399058Y-71780846D01*
X106399471Y-71780934D01*
X106398098Y-71787395D01*
X106396058Y-71793672D01*
X106376096Y-71983600D01*
X106376786Y-71990165D01*
X106395255Y-72165885D01*
X106396058Y-72173528D01*
X106455073Y-72355156D01*
X106550560Y-72520544D01*
X106554978Y-72525451D01*
X106554979Y-72525452D01*
X106620267Y-72597962D01*
X106678347Y-72662466D01*
X106832848Y-72774718D01*
X106838876Y-72777402D01*
X106838878Y-72777403D01*
X107001281Y-72849709D01*
X107007312Y-72852394D01*
X107100713Y-72872247D01*
X107187656Y-72890728D01*
X107187661Y-72890728D01*
X107194113Y-72892100D01*
X107385087Y-72892100D01*
X107391539Y-72890728D01*
X107391544Y-72890728D01*
X107478487Y-72872247D01*
X107571888Y-72852394D01*
X107577919Y-72849709D01*
X107740322Y-72777403D01*
X107740324Y-72777402D01*
X107746352Y-72774718D01*
X107900853Y-72662466D01*
X107958933Y-72597962D01*
X108024221Y-72525452D01*
X108024222Y-72525451D01*
X108028640Y-72520544D01*
X108121973Y-72358887D01*
X119964477Y-72358887D01*
X119971545Y-72372334D01*
X120637189Y-73037979D01*
X120651132Y-73045592D01*
X120652966Y-73045461D01*
X120659580Y-73041210D01*
X121329180Y-72371609D01*
X121335607Y-72359839D01*
X121326313Y-72347825D01*
X121285912Y-72319536D01*
X121276416Y-72314053D01*
X121086887Y-72225674D01*
X121076595Y-72221928D01*
X120874599Y-72167804D01*
X120863804Y-72165901D01*
X120655475Y-72147674D01*
X120644525Y-72147674D01*
X120436196Y-72165901D01*
X120425401Y-72167804D01*
X120223405Y-72221928D01*
X120213113Y-72225674D01*
X120023583Y-72314054D01*
X120014093Y-72319534D01*
X119972851Y-72348411D01*
X119964477Y-72358887D01*
X108121973Y-72358887D01*
X108124127Y-72355156D01*
X108183142Y-72173528D01*
X108183946Y-72165885D01*
X108202414Y-71990165D01*
X108203104Y-71983600D01*
X108183142Y-71793672D01*
X108181102Y-71787395D01*
X108179729Y-71780934D01*
X108182717Y-71780299D01*
X108180998Y-71722617D01*
X108217587Y-71661775D01*
X108281261Y-71630372D01*
X108302898Y-71628500D01*
X126365500Y-71628500D01*
X126433621Y-71648502D01*
X126480114Y-71702158D01*
X126491500Y-71754500D01*
X126491500Y-100965500D01*
X126471498Y-101033621D01*
X126417842Y-101080114D01*
X126365500Y-101091500D01*
X123225620Y-101091500D01*
X123157499Y-101071498D01*
X123111006Y-101017842D01*
X123100951Y-100955572D01*
X123100147Y-100955528D01*
X123100331Y-100952131D01*
X123100700Y-100948734D01*
X123100700Y-99152466D01*
X123093945Y-99090284D01*
X123042815Y-98953895D01*
X122955461Y-98837339D01*
X122838905Y-98749985D01*
X122702516Y-98698855D01*
X122640334Y-98692100D01*
X120844066Y-98692100D01*
X120781884Y-98698855D01*
X120645495Y-98749985D01*
X120528939Y-98837339D01*
X120441585Y-98953895D01*
X120438433Y-98962303D01*
X120397119Y-99072507D01*
X120354477Y-99129271D01*
X120287916Y-99153971D01*
X120218567Y-99138763D01*
X120185943Y-99113076D01*
X120135351Y-99057475D01*
X120135342Y-99057466D01*
X120131870Y-99053651D01*
X120127819Y-99050452D01*
X120127815Y-99050448D01*
X119960614Y-98918400D01*
X119960610Y-98918398D01*
X119956559Y-98915198D01*
X119760989Y-98807238D01*
X119756120Y-98805514D01*
X119756116Y-98805512D01*
X119555287Y-98734395D01*
X119555283Y-98734394D01*
X119550412Y-98732669D01*
X119545319Y-98731762D01*
X119545316Y-98731761D01*
X119335573Y-98694400D01*
X119335567Y-98694399D01*
X119330484Y-98693494D01*
X119256652Y-98692592D01*
X119112281Y-98690828D01*
X119112279Y-98690828D01*
X119107111Y-98690765D01*
X118886291Y-98724555D01*
X118673956Y-98793957D01*
X118643643Y-98809737D01*
X118528375Y-98869742D01*
X118475807Y-98897107D01*
X118471674Y-98900210D01*
X118471671Y-98900212D01*
X118301300Y-99028130D01*
X118297165Y-99031235D01*
X118272080Y-99057485D01*
X118203480Y-99129271D01*
X118142829Y-99192738D01*
X118139915Y-99197010D01*
X118139914Y-99197011D01*
X118105266Y-99247803D01*
X118016943Y-99377280D01*
X117922888Y-99579905D01*
X117863189Y-99795170D01*
X117839451Y-100017295D01*
X117852310Y-100240315D01*
X117853447Y-100245361D01*
X117853448Y-100245367D01*
X117863758Y-100291115D01*
X117901422Y-100458239D01*
X117985466Y-100665216D01*
X118102187Y-100855688D01*
X118105565Y-100859588D01*
X118105566Y-100859589D01*
X118125848Y-100883003D01*
X118155330Y-100947588D01*
X118145215Y-101017861D01*
X118098714Y-101071509D01*
X118030610Y-101091500D01*
X115954812Y-101091500D01*
X115886691Y-101071498D01*
X115840198Y-101017842D01*
X115830094Y-100947568D01*
X115852489Y-100891974D01*
X115968009Y-100731211D01*
X115973313Y-100722383D01*
X116067670Y-100531467D01*
X116071469Y-100521872D01*
X116133377Y-100318110D01*
X116135555Y-100308037D01*
X116136986Y-100297162D01*
X116134775Y-100282978D01*
X116121617Y-100279200D01*
X114675000Y-100279200D01*
X114606879Y-100259198D01*
X114560386Y-100205542D01*
X114549000Y-100153200D01*
X114549000Y-99753085D01*
X115057000Y-99753085D01*
X115061475Y-99768324D01*
X115062865Y-99769529D01*
X115070548Y-99771200D01*
X116121344Y-99771200D01*
X116134875Y-99767227D01*
X116136180Y-99758147D01*
X116094214Y-99591075D01*
X116090894Y-99581324D01*
X116005972Y-99386014D01*
X116001105Y-99376939D01*
X115885426Y-99198126D01*
X115879136Y-99189957D01*
X115735806Y-99032440D01*
X115728273Y-99025415D01*
X115561139Y-98893422D01*
X115552552Y-98887717D01*
X115366117Y-98784799D01*
X115356705Y-98780569D01*
X115155959Y-98709480D01*
X115145988Y-98706846D01*
X115074837Y-98694172D01*
X115061540Y-98695632D01*
X115057000Y-98710189D01*
X115057000Y-99753085D01*
X114549000Y-99753085D01*
X114549000Y-98708302D01*
X114545082Y-98694958D01*
X114530806Y-98692971D01*
X114492324Y-98698860D01*
X114482288Y-98701251D01*
X114279868Y-98767412D01*
X114270359Y-98771409D01*
X114081463Y-98869742D01*
X114072738Y-98875236D01*
X113902433Y-99003105D01*
X113894726Y-99009948D01*
X113817478Y-99090784D01*
X113755954Y-99126214D01*
X113685042Y-99122757D01*
X113627255Y-99081511D01*
X113608402Y-99047963D01*
X113566767Y-98936903D01*
X113563615Y-98928495D01*
X113476261Y-98811939D01*
X113359705Y-98724585D01*
X113223316Y-98673455D01*
X113161134Y-98666700D01*
X111364866Y-98666700D01*
X111302684Y-98673455D01*
X111166295Y-98724585D01*
X111049739Y-98811939D01*
X110962385Y-98928495D01*
X110911255Y-99064884D01*
X110904500Y-99127066D01*
X110904500Y-100923334D01*
X110904868Y-100926726D01*
X110904869Y-100926736D01*
X110907602Y-100951894D01*
X110895073Y-101021776D01*
X110846752Y-101073791D01*
X110782339Y-101091500D01*
X109878385Y-101091500D01*
X109810264Y-101071498D01*
X109763771Y-101017842D01*
X109753667Y-100947568D01*
X109776062Y-100891974D01*
X109836635Y-100807677D01*
X109839653Y-100803477D01*
X109907986Y-100665216D01*
X109936336Y-100607853D01*
X109936337Y-100607851D01*
X109938630Y-100603211D01*
X110003570Y-100389469D01*
X110032729Y-100167990D01*
X110032811Y-100164640D01*
X110034274Y-100104765D01*
X110034274Y-100104761D01*
X110034356Y-100101400D01*
X110016052Y-99878761D01*
X109961631Y-99662102D01*
X109872554Y-99457240D01*
X109751214Y-99269677D01*
X109600870Y-99104451D01*
X109596819Y-99101252D01*
X109596815Y-99101248D01*
X109429614Y-98969200D01*
X109429610Y-98969198D01*
X109425559Y-98965998D01*
X109418866Y-98962303D01*
X109357622Y-98928495D01*
X109229989Y-98858038D01*
X109225120Y-98856314D01*
X109225116Y-98856312D01*
X109024287Y-98785195D01*
X109024283Y-98785194D01*
X109019412Y-98783469D01*
X109014319Y-98782562D01*
X109014316Y-98782561D01*
X108804573Y-98745200D01*
X108804567Y-98745199D01*
X108799484Y-98744294D01*
X108725652Y-98743392D01*
X108581281Y-98741628D01*
X108581279Y-98741628D01*
X108576111Y-98741565D01*
X108355291Y-98775355D01*
X108142956Y-98844757D01*
X107944807Y-98947907D01*
X107940674Y-98951010D01*
X107940671Y-98951012D01*
X107770300Y-99078930D01*
X107766165Y-99082035D01*
X107762593Y-99085773D01*
X107635396Y-99218877D01*
X107611829Y-99243538D01*
X107504401Y-99401021D01*
X107449493Y-99446021D01*
X107378968Y-99454192D01*
X107315221Y-99422938D01*
X107294524Y-99398454D01*
X107214022Y-99274017D01*
X107214020Y-99274014D01*
X107211214Y-99269677D01*
X107060870Y-99104451D01*
X107056819Y-99101252D01*
X107056815Y-99101248D01*
X106889614Y-98969200D01*
X106889610Y-98969198D01*
X106885559Y-98965998D01*
X106878866Y-98962303D01*
X106817622Y-98928495D01*
X106689989Y-98858038D01*
X106685120Y-98856314D01*
X106685116Y-98856312D01*
X106484287Y-98785195D01*
X106484283Y-98785194D01*
X106479412Y-98783469D01*
X106474319Y-98782562D01*
X106474316Y-98782561D01*
X106264573Y-98745200D01*
X106264567Y-98745199D01*
X106259484Y-98744294D01*
X106185652Y-98743392D01*
X106041281Y-98741628D01*
X106041279Y-98741628D01*
X106036111Y-98741565D01*
X105815291Y-98775355D01*
X105602956Y-98844757D01*
X105404807Y-98947907D01*
X105400674Y-98951010D01*
X105400671Y-98951012D01*
X105230300Y-99078930D01*
X105226165Y-99082035D01*
X105222593Y-99085773D01*
X105095396Y-99218877D01*
X105071829Y-99243538D01*
X104964404Y-99401018D01*
X104964098Y-99401466D01*
X104909187Y-99446469D01*
X104838662Y-99454640D01*
X104774915Y-99423386D01*
X104754218Y-99398902D01*
X104673626Y-99274326D01*
X104667336Y-99266157D01*
X104524006Y-99108640D01*
X104516473Y-99101615D01*
X104349339Y-98969622D01*
X104340752Y-98963917D01*
X104154317Y-98860999D01*
X104144905Y-98856769D01*
X103944159Y-98785680D01*
X103934188Y-98783046D01*
X103863037Y-98770372D01*
X103849740Y-98771832D01*
X103845200Y-98786389D01*
X103845200Y-100229400D01*
X103825198Y-100297521D01*
X103771542Y-100344014D01*
X103719200Y-100355400D01*
X103463200Y-100355400D01*
X103395079Y-100335398D01*
X103348586Y-100281742D01*
X103337200Y-100229400D01*
X103337200Y-98784502D01*
X103333282Y-98771158D01*
X103319006Y-98769171D01*
X103280524Y-98775060D01*
X103270488Y-98777451D01*
X103068068Y-98843612D01*
X103058559Y-98847609D01*
X102869663Y-98945942D01*
X102860938Y-98951436D01*
X102690633Y-99079305D01*
X102682926Y-99086148D01*
X102605678Y-99166984D01*
X102544154Y-99202414D01*
X102473242Y-99198957D01*
X102415455Y-99157711D01*
X102396602Y-99124163D01*
X102354967Y-99013103D01*
X102351815Y-99004695D01*
X102264461Y-98888139D01*
X102147905Y-98800785D01*
X102011516Y-98749655D01*
X101949334Y-98742900D01*
X100153066Y-98742900D01*
X100090884Y-98749655D01*
X99954495Y-98800785D01*
X99837939Y-98888139D01*
X99750585Y-99004695D01*
X99699455Y-99141084D01*
X99692700Y-99203266D01*
X99692700Y-100965500D01*
X99672698Y-101033621D01*
X99619042Y-101080114D01*
X99566700Y-101091500D01*
X97154500Y-101091500D01*
X97086379Y-101071498D01*
X97039886Y-101017842D01*
X97028500Y-100965500D01*
X97028500Y-94335600D01*
X103937696Y-94335600D01*
X103957658Y-94525528D01*
X104016673Y-94707156D01*
X104112160Y-94872544D01*
X104239947Y-95014466D01*
X104394448Y-95126718D01*
X104400476Y-95129402D01*
X104400478Y-95129403D01*
X104562881Y-95201709D01*
X104568912Y-95204394D01*
X104662312Y-95224247D01*
X104749256Y-95242728D01*
X104749261Y-95242728D01*
X104755713Y-95244100D01*
X104946687Y-95244100D01*
X104953139Y-95242728D01*
X104953144Y-95242728D01*
X105040087Y-95224247D01*
X105133488Y-95204394D01*
X105139519Y-95201709D01*
X105301922Y-95129403D01*
X105301924Y-95129402D01*
X105307952Y-95126718D01*
X105462453Y-95014466D01*
X105590240Y-94872544D01*
X105685727Y-94707156D01*
X105744742Y-94525528D01*
X105764704Y-94335600D01*
X105744742Y-94145672D01*
X105685727Y-93964044D01*
X105590240Y-93798656D01*
X105462453Y-93656734D01*
X105307952Y-93544482D01*
X105301924Y-93541798D01*
X105301922Y-93541797D01*
X105139519Y-93469491D01*
X105139518Y-93469491D01*
X105133488Y-93466806D01*
X105040088Y-93446953D01*
X104953144Y-93428472D01*
X104953139Y-93428472D01*
X104946687Y-93427100D01*
X104755713Y-93427100D01*
X104749261Y-93428472D01*
X104749256Y-93428472D01*
X104662312Y-93446953D01*
X104568912Y-93466806D01*
X104562882Y-93469491D01*
X104562881Y-93469491D01*
X104400478Y-93541797D01*
X104400476Y-93541798D01*
X104394448Y-93544482D01*
X104239947Y-93656734D01*
X104112160Y-93798656D01*
X104016673Y-93964044D01*
X103957658Y-94145672D01*
X103937696Y-94335600D01*
X97028500Y-94335600D01*
X97028500Y-91190000D01*
X101606693Y-91190000D01*
X101625885Y-91409371D01*
X101682880Y-91622076D01*
X101685205Y-91627061D01*
X101773618Y-91816666D01*
X101773621Y-91816671D01*
X101775944Y-91821653D01*
X101902251Y-92002038D01*
X102057962Y-92157749D01*
X102238346Y-92284056D01*
X102437924Y-92377120D01*
X102650629Y-92434115D01*
X102870000Y-92453307D01*
X103089371Y-92434115D01*
X103302076Y-92377120D01*
X103501654Y-92284056D01*
X103682038Y-92157749D01*
X103837749Y-92002038D01*
X103964056Y-91821653D01*
X103966379Y-91816671D01*
X103966382Y-91816666D01*
X104054795Y-91627061D01*
X104057120Y-91622076D01*
X104114115Y-91409371D01*
X104133307Y-91190000D01*
X119386693Y-91190000D01*
X119405885Y-91409371D01*
X119462880Y-91622076D01*
X119465205Y-91627061D01*
X119553618Y-91816666D01*
X119553621Y-91816671D01*
X119555944Y-91821653D01*
X119682251Y-92002038D01*
X119837962Y-92157749D01*
X120018346Y-92284056D01*
X120217924Y-92377120D01*
X120430629Y-92434115D01*
X120650000Y-92453307D01*
X120869371Y-92434115D01*
X121082076Y-92377120D01*
X121281654Y-92284056D01*
X121462038Y-92157749D01*
X121617749Y-92002038D01*
X121744056Y-91821653D01*
X121746379Y-91816671D01*
X121746382Y-91816666D01*
X121834795Y-91627061D01*
X121837120Y-91622076D01*
X121894115Y-91409371D01*
X121913307Y-91190000D01*
X121894115Y-90970629D01*
X121837120Y-90757924D01*
X121790993Y-90659003D01*
X121746382Y-90563334D01*
X121746379Y-90563329D01*
X121744056Y-90558347D01*
X121736775Y-90547949D01*
X121620908Y-90382473D01*
X121620906Y-90382470D01*
X121617749Y-90377962D01*
X121462038Y-90222251D01*
X121281654Y-90095944D01*
X121276672Y-90093621D01*
X121276667Y-90093618D01*
X121149232Y-90034195D01*
X121095947Y-89987278D01*
X121076486Y-89919001D01*
X121097028Y-89851041D01*
X121149232Y-89805805D01*
X121276667Y-89746382D01*
X121276672Y-89746379D01*
X121281654Y-89744056D01*
X121462038Y-89617749D01*
X121617749Y-89462038D01*
X121707421Y-89333974D01*
X121740899Y-89286162D01*
X121740900Y-89286160D01*
X121744056Y-89281653D01*
X121746379Y-89276671D01*
X121746382Y-89276666D01*
X121834795Y-89087061D01*
X121837120Y-89082076D01*
X121894115Y-88869371D01*
X121913307Y-88650000D01*
X121894115Y-88430629D01*
X121837120Y-88217924D01*
X121793585Y-88124562D01*
X121746382Y-88023334D01*
X121746379Y-88023329D01*
X121744056Y-88018347D01*
X121617749Y-87837962D01*
X121462038Y-87682251D01*
X121281654Y-87555944D01*
X121276672Y-87553621D01*
X121276667Y-87553618D01*
X121149232Y-87494195D01*
X121095947Y-87447278D01*
X121076486Y-87379001D01*
X121097028Y-87311041D01*
X121149232Y-87265805D01*
X121276667Y-87206382D01*
X121276672Y-87206379D01*
X121281654Y-87204056D01*
X121462038Y-87077749D01*
X121617749Y-86922038D01*
X121744056Y-86741653D01*
X121746379Y-86736671D01*
X121746382Y-86736666D01*
X121834795Y-86547061D01*
X121837120Y-86542076D01*
X121894115Y-86329371D01*
X121913307Y-86110000D01*
X121894115Y-85890629D01*
X121837120Y-85677924D01*
X121781409Y-85558451D01*
X121746382Y-85483334D01*
X121746379Y-85483329D01*
X121744056Y-85478347D01*
X121722385Y-85447397D01*
X121620908Y-85302473D01*
X121620906Y-85302470D01*
X121617749Y-85297962D01*
X121462038Y-85142251D01*
X121281654Y-85015944D01*
X121276672Y-85013621D01*
X121276667Y-85013618D01*
X121149232Y-84954195D01*
X121095947Y-84907278D01*
X121076486Y-84839001D01*
X121097028Y-84771041D01*
X121149232Y-84725805D01*
X121276667Y-84666382D01*
X121276672Y-84666379D01*
X121281654Y-84664056D01*
X121462038Y-84537749D01*
X121617749Y-84382038D01*
X121744056Y-84201653D01*
X121746379Y-84196671D01*
X121746382Y-84196666D01*
X121834795Y-84007061D01*
X121837120Y-84002076D01*
X121894115Y-83789371D01*
X121913307Y-83570000D01*
X121894115Y-83350629D01*
X121837120Y-83137924D01*
X121793585Y-83044562D01*
X121746382Y-82943334D01*
X121746379Y-82943329D01*
X121744056Y-82938347D01*
X121617749Y-82757962D01*
X121462038Y-82602251D01*
X121281654Y-82475944D01*
X121276672Y-82473621D01*
X121276667Y-82473618D01*
X121149232Y-82414195D01*
X121095947Y-82367278D01*
X121076486Y-82299001D01*
X121097028Y-82231041D01*
X121149232Y-82185805D01*
X121276667Y-82126382D01*
X121276672Y-82126379D01*
X121281654Y-82124056D01*
X121462038Y-81997749D01*
X121617749Y-81842038D01*
X121744056Y-81661653D01*
X121746379Y-81656671D01*
X121746382Y-81656666D01*
X121834795Y-81467061D01*
X121837120Y-81462076D01*
X121894115Y-81249371D01*
X121913307Y-81030000D01*
X121894115Y-80810629D01*
X121837120Y-80597924D01*
X121793585Y-80504562D01*
X121746382Y-80403334D01*
X121746379Y-80403329D01*
X121744056Y-80398347D01*
X121617749Y-80217962D01*
X121462038Y-80062251D01*
X121281654Y-79935944D01*
X121276672Y-79933621D01*
X121276667Y-79933618D01*
X121149232Y-79874195D01*
X121095947Y-79827278D01*
X121076486Y-79759001D01*
X121097028Y-79691041D01*
X121149232Y-79645805D01*
X121276667Y-79586382D01*
X121276672Y-79586379D01*
X121281654Y-79584056D01*
X121462038Y-79457749D01*
X121617749Y-79302038D01*
X121683292Y-79208434D01*
X121740899Y-79126162D01*
X121740900Y-79126160D01*
X121744056Y-79121653D01*
X121746379Y-79116671D01*
X121746382Y-79116666D01*
X121825536Y-78946918D01*
X121837120Y-78922076D01*
X121894115Y-78709371D01*
X121913307Y-78490000D01*
X121894115Y-78270629D01*
X121837120Y-78057924D01*
X121791268Y-77959594D01*
X121746382Y-77863334D01*
X121746379Y-77863329D01*
X121744056Y-77858347D01*
X121733265Y-77842936D01*
X121620908Y-77682473D01*
X121620906Y-77682470D01*
X121617749Y-77677962D01*
X121462038Y-77522251D01*
X121456706Y-77518517D01*
X121382322Y-77466433D01*
X121281654Y-77395944D01*
X121276672Y-77393621D01*
X121276667Y-77393618D01*
X121149232Y-77334195D01*
X121095947Y-77287278D01*
X121076486Y-77219001D01*
X121097028Y-77151041D01*
X121149232Y-77105805D01*
X121276667Y-77046382D01*
X121276672Y-77046379D01*
X121281654Y-77044056D01*
X121462038Y-76917749D01*
X121617749Y-76762038D01*
X121656801Y-76706267D01*
X121740899Y-76586162D01*
X121740900Y-76586160D01*
X121744056Y-76581653D01*
X121746379Y-76576671D01*
X121746382Y-76576666D01*
X121797264Y-76467548D01*
X121837120Y-76382076D01*
X121894115Y-76169371D01*
X121913307Y-75950000D01*
X121894115Y-75730629D01*
X121837120Y-75517924D01*
X121769507Y-75372926D01*
X121746382Y-75323334D01*
X121746379Y-75323329D01*
X121744056Y-75318347D01*
X121712786Y-75273689D01*
X121620908Y-75142473D01*
X121620906Y-75142470D01*
X121617749Y-75137962D01*
X121462038Y-74982251D01*
X121435641Y-74963767D01*
X121344342Y-74899839D01*
X121281654Y-74855944D01*
X121276672Y-74853621D01*
X121276667Y-74853618D01*
X121148641Y-74793919D01*
X121095356Y-74747002D01*
X121075895Y-74678724D01*
X121096437Y-74610764D01*
X121148641Y-74565529D01*
X121276416Y-74505947D01*
X121285912Y-74500464D01*
X121327148Y-74471590D01*
X121335523Y-74461112D01*
X121328457Y-74447668D01*
X120662811Y-73782021D01*
X120648868Y-73774408D01*
X120647034Y-73774539D01*
X120640420Y-73778790D01*
X119970820Y-74448391D01*
X119964393Y-74460161D01*
X119973687Y-74472175D01*
X120014088Y-74500464D01*
X120023584Y-74505947D01*
X120151359Y-74565529D01*
X120204644Y-74612446D01*
X120224105Y-74680724D01*
X120203563Y-74748684D01*
X120151359Y-74793919D01*
X120023334Y-74853618D01*
X120023329Y-74853621D01*
X120018347Y-74855944D01*
X120013840Y-74859100D01*
X120013838Y-74859101D01*
X119842473Y-74979092D01*
X119842470Y-74979094D01*
X119837962Y-74982251D01*
X119682251Y-75137962D01*
X119679094Y-75142470D01*
X119679092Y-75142473D01*
X119587214Y-75273689D01*
X119555944Y-75318347D01*
X119553621Y-75323329D01*
X119553618Y-75323334D01*
X119530493Y-75372926D01*
X119462880Y-75517924D01*
X119405885Y-75730629D01*
X119386693Y-75950000D01*
X119405885Y-76169371D01*
X119462880Y-76382076D01*
X119502736Y-76467548D01*
X119553618Y-76576666D01*
X119553621Y-76576671D01*
X119555944Y-76581653D01*
X119559100Y-76586160D01*
X119559101Y-76586162D01*
X119643200Y-76706267D01*
X119682251Y-76762038D01*
X119837962Y-76917749D01*
X120018346Y-77044056D01*
X120023328Y-77046379D01*
X120023333Y-77046382D01*
X120150768Y-77105805D01*
X120204053Y-77152722D01*
X120223514Y-77220999D01*
X120202972Y-77288959D01*
X120150768Y-77334195D01*
X120023334Y-77393618D01*
X120023329Y-77393621D01*
X120018347Y-77395944D01*
X120013840Y-77399100D01*
X120013838Y-77399101D01*
X119842473Y-77519092D01*
X119842470Y-77519094D01*
X119837962Y-77522251D01*
X119682251Y-77677962D01*
X119679094Y-77682470D01*
X119679092Y-77682473D01*
X119566735Y-77842936D01*
X119555944Y-77858347D01*
X119553621Y-77863329D01*
X119553618Y-77863334D01*
X119508732Y-77959594D01*
X119462880Y-78057924D01*
X119405885Y-78270629D01*
X119386693Y-78490000D01*
X119405885Y-78709371D01*
X119462880Y-78922076D01*
X119474464Y-78946918D01*
X119553618Y-79116666D01*
X119553621Y-79116671D01*
X119555944Y-79121653D01*
X119559100Y-79126160D01*
X119559101Y-79126162D01*
X119616709Y-79208434D01*
X119682251Y-79302038D01*
X119837962Y-79457749D01*
X120018346Y-79584056D01*
X120023328Y-79586379D01*
X120023333Y-79586382D01*
X120150768Y-79645805D01*
X120204053Y-79692722D01*
X120223514Y-79760999D01*
X120202972Y-79828959D01*
X120150768Y-79874195D01*
X120023334Y-79933618D01*
X120023329Y-79933621D01*
X120018347Y-79935944D01*
X120013840Y-79939100D01*
X120013838Y-79939101D01*
X119842473Y-80059092D01*
X119842470Y-80059094D01*
X119837962Y-80062251D01*
X119682251Y-80217962D01*
X119555944Y-80398347D01*
X119553621Y-80403329D01*
X119553618Y-80403334D01*
X119506415Y-80504562D01*
X119462880Y-80597924D01*
X119405885Y-80810629D01*
X119386693Y-81030000D01*
X119405885Y-81249371D01*
X119462880Y-81462076D01*
X119465205Y-81467061D01*
X119553618Y-81656666D01*
X119553621Y-81656671D01*
X119555944Y-81661653D01*
X119682251Y-81842038D01*
X119837962Y-81997749D01*
X120018346Y-82124056D01*
X120023328Y-82126379D01*
X120023333Y-82126382D01*
X120150768Y-82185805D01*
X120204053Y-82232722D01*
X120223514Y-82300999D01*
X120202972Y-82368959D01*
X120150768Y-82414195D01*
X120023334Y-82473618D01*
X120023329Y-82473621D01*
X120018347Y-82475944D01*
X120013840Y-82479100D01*
X120013838Y-82479101D01*
X119842473Y-82599092D01*
X119842470Y-82599094D01*
X119837962Y-82602251D01*
X119682251Y-82757962D01*
X119555944Y-82938347D01*
X119553621Y-82943329D01*
X119553618Y-82943334D01*
X119506415Y-83044562D01*
X119462880Y-83137924D01*
X119405885Y-83350629D01*
X119386693Y-83570000D01*
X119405885Y-83789371D01*
X119462880Y-84002076D01*
X119465205Y-84007061D01*
X119553618Y-84196666D01*
X119553621Y-84196671D01*
X119555944Y-84201653D01*
X119682251Y-84382038D01*
X119837962Y-84537749D01*
X120018346Y-84664056D01*
X120023328Y-84666379D01*
X120023333Y-84666382D01*
X120150768Y-84725805D01*
X120204053Y-84772722D01*
X120223514Y-84840999D01*
X120202972Y-84908959D01*
X120150768Y-84954195D01*
X120023334Y-85013618D01*
X120023329Y-85013621D01*
X120018347Y-85015944D01*
X120013840Y-85019100D01*
X120013838Y-85019101D01*
X119842473Y-85139092D01*
X119842470Y-85139094D01*
X119837962Y-85142251D01*
X119682251Y-85297962D01*
X119679094Y-85302470D01*
X119679092Y-85302473D01*
X119577615Y-85447397D01*
X119555944Y-85478347D01*
X119553621Y-85483329D01*
X119553618Y-85483334D01*
X119518591Y-85558451D01*
X119462880Y-85677924D01*
X119405885Y-85890629D01*
X119386693Y-86110000D01*
X119405885Y-86329371D01*
X119462880Y-86542076D01*
X119465205Y-86547061D01*
X119553618Y-86736666D01*
X119553621Y-86736671D01*
X119555944Y-86741653D01*
X119682251Y-86922038D01*
X119837962Y-87077749D01*
X120018346Y-87204056D01*
X120023328Y-87206379D01*
X120023333Y-87206382D01*
X120150768Y-87265805D01*
X120204053Y-87312722D01*
X120223514Y-87380999D01*
X120202972Y-87448959D01*
X120150768Y-87494195D01*
X120023334Y-87553618D01*
X120023329Y-87553621D01*
X120018347Y-87555944D01*
X120013840Y-87559100D01*
X120013838Y-87559101D01*
X119842473Y-87679092D01*
X119842470Y-87679094D01*
X119837962Y-87682251D01*
X119682251Y-87837962D01*
X119555944Y-88018347D01*
X119553621Y-88023329D01*
X119553618Y-88023334D01*
X119506415Y-88124562D01*
X119462880Y-88217924D01*
X119405885Y-88430629D01*
X119386693Y-88650000D01*
X119405885Y-88869371D01*
X119462880Y-89082076D01*
X119465205Y-89087061D01*
X119553618Y-89276666D01*
X119553621Y-89276671D01*
X119555944Y-89281653D01*
X119559100Y-89286160D01*
X119559101Y-89286162D01*
X119592580Y-89333974D01*
X119682251Y-89462038D01*
X119837962Y-89617749D01*
X120018346Y-89744056D01*
X120023328Y-89746379D01*
X120023333Y-89746382D01*
X120150768Y-89805805D01*
X120204053Y-89852722D01*
X120223514Y-89920999D01*
X120202972Y-89988959D01*
X120150768Y-90034195D01*
X120023334Y-90093618D01*
X120023329Y-90093621D01*
X120018347Y-90095944D01*
X120013840Y-90099100D01*
X120013838Y-90099101D01*
X119842473Y-90219092D01*
X119842470Y-90219094D01*
X119837962Y-90222251D01*
X119682251Y-90377962D01*
X119679094Y-90382470D01*
X119679092Y-90382473D01*
X119563225Y-90547949D01*
X119555944Y-90558347D01*
X119553621Y-90563329D01*
X119553618Y-90563334D01*
X119509007Y-90659003D01*
X119462880Y-90757924D01*
X119405885Y-90970629D01*
X119386693Y-91190000D01*
X104133307Y-91190000D01*
X104114115Y-90970629D01*
X104057120Y-90757924D01*
X104010993Y-90659003D01*
X103966382Y-90563334D01*
X103966379Y-90563329D01*
X103964056Y-90558347D01*
X103956775Y-90547949D01*
X103840908Y-90382473D01*
X103840906Y-90382470D01*
X103837749Y-90377962D01*
X103682038Y-90222251D01*
X103501654Y-90095944D01*
X103496672Y-90093621D01*
X103496667Y-90093618D01*
X103369232Y-90034195D01*
X103315947Y-89987278D01*
X103296486Y-89919001D01*
X103312748Y-89865200D01*
X113894496Y-89865200D01*
X113895186Y-89871765D01*
X113908967Y-90002880D01*
X113914458Y-90055128D01*
X113973473Y-90236756D01*
X114068960Y-90402144D01*
X114196747Y-90544066D01*
X114351248Y-90656318D01*
X114357276Y-90659002D01*
X114357278Y-90659003D01*
X114519681Y-90731309D01*
X114525712Y-90733994D01*
X114614841Y-90752939D01*
X114706056Y-90772328D01*
X114706061Y-90772328D01*
X114712513Y-90773700D01*
X114903487Y-90773700D01*
X114909939Y-90772328D01*
X114909944Y-90772328D01*
X115001159Y-90752939D01*
X115090288Y-90733994D01*
X115096319Y-90731309D01*
X115258722Y-90659003D01*
X115258724Y-90659002D01*
X115264752Y-90656318D01*
X115419253Y-90544066D01*
X115547040Y-90402144D01*
X115642527Y-90236756D01*
X115701542Y-90055128D01*
X115707034Y-90002880D01*
X115720814Y-89871765D01*
X115721504Y-89865200D01*
X115709016Y-89746382D01*
X115702232Y-89681835D01*
X115702232Y-89681833D01*
X115701542Y-89675272D01*
X115642527Y-89493644D01*
X115547040Y-89328256D01*
X115509139Y-89286162D01*
X115423675Y-89191245D01*
X115423674Y-89191244D01*
X115419253Y-89186334D01*
X115264752Y-89074082D01*
X115258724Y-89071398D01*
X115258722Y-89071397D01*
X115096319Y-88999091D01*
X115096318Y-88999091D01*
X115090288Y-88996406D01*
X114996887Y-88976553D01*
X114909944Y-88958072D01*
X114909939Y-88958072D01*
X114903487Y-88956700D01*
X114712513Y-88956700D01*
X114706061Y-88958072D01*
X114706056Y-88958072D01*
X114619113Y-88976553D01*
X114525712Y-88996406D01*
X114519682Y-88999091D01*
X114519681Y-88999091D01*
X114357278Y-89071397D01*
X114357276Y-89071398D01*
X114351248Y-89074082D01*
X114196747Y-89186334D01*
X114192326Y-89191244D01*
X114192325Y-89191245D01*
X114106862Y-89286162D01*
X114068960Y-89328256D01*
X113973473Y-89493644D01*
X113914458Y-89675272D01*
X113913768Y-89681833D01*
X113913768Y-89681835D01*
X113906984Y-89746382D01*
X113894496Y-89865200D01*
X103312748Y-89865200D01*
X103317028Y-89851041D01*
X103369232Y-89805805D01*
X103496667Y-89746382D01*
X103496672Y-89746379D01*
X103501654Y-89744056D01*
X103682038Y-89617749D01*
X103837749Y-89462038D01*
X103927421Y-89333974D01*
X103960899Y-89286162D01*
X103960900Y-89286160D01*
X103964056Y-89281653D01*
X103966379Y-89276671D01*
X103966382Y-89276666D01*
X104054795Y-89087061D01*
X104057120Y-89082076D01*
X104114115Y-88869371D01*
X104133307Y-88650000D01*
X104114115Y-88430629D01*
X104057120Y-88217924D01*
X104013585Y-88124562D01*
X103966382Y-88023334D01*
X103966379Y-88023329D01*
X103964056Y-88018347D01*
X103837749Y-87837962D01*
X103682038Y-87682251D01*
X103501654Y-87555944D01*
X103496672Y-87553621D01*
X103496667Y-87553618D01*
X103369232Y-87494195D01*
X103315947Y-87447278D01*
X103296486Y-87379001D01*
X103317028Y-87311041D01*
X103369232Y-87265805D01*
X103496667Y-87206382D01*
X103496672Y-87206379D01*
X103501654Y-87204056D01*
X103682038Y-87077749D01*
X103837749Y-86922038D01*
X103964056Y-86741653D01*
X103966379Y-86736671D01*
X103966382Y-86736666D01*
X104054795Y-86547061D01*
X104057120Y-86542076D01*
X104114115Y-86329371D01*
X104121829Y-86241200D01*
X110041896Y-86241200D01*
X110061858Y-86431128D01*
X110120873Y-86612756D01*
X110216360Y-86778144D01*
X110344147Y-86920066D01*
X110498648Y-87032318D01*
X110504676Y-87035002D01*
X110504678Y-87035003D01*
X110591935Y-87073852D01*
X110673112Y-87109994D01*
X110766513Y-87129847D01*
X110853456Y-87148328D01*
X110853461Y-87148328D01*
X110859913Y-87149700D01*
X111050887Y-87149700D01*
X111057339Y-87148328D01*
X111057344Y-87148328D01*
X111144287Y-87129847D01*
X111237688Y-87109994D01*
X111318865Y-87073852D01*
X111406122Y-87035003D01*
X111406124Y-87035002D01*
X111412152Y-87032318D01*
X111566653Y-86920066D01*
X111694440Y-86778144D01*
X111789927Y-86612756D01*
X111848942Y-86431128D01*
X111868904Y-86241200D01*
X111855690Y-86115475D01*
X111849632Y-86057835D01*
X111849632Y-86057833D01*
X111848942Y-86051272D01*
X111789927Y-85869644D01*
X111694440Y-85704256D01*
X111566653Y-85562334D01*
X111412152Y-85450082D01*
X111406124Y-85447398D01*
X111406122Y-85447397D01*
X111243719Y-85375091D01*
X111243718Y-85375091D01*
X111237688Y-85372406D01*
X111144287Y-85352553D01*
X111057344Y-85334072D01*
X111057339Y-85334072D01*
X111050887Y-85332700D01*
X110859913Y-85332700D01*
X110853461Y-85334072D01*
X110853456Y-85334072D01*
X110766513Y-85352553D01*
X110673112Y-85372406D01*
X110667082Y-85375091D01*
X110667081Y-85375091D01*
X110504678Y-85447397D01*
X110504676Y-85447398D01*
X110498648Y-85450082D01*
X110344147Y-85562334D01*
X110216360Y-85704256D01*
X110120873Y-85869644D01*
X110061858Y-86051272D01*
X110061168Y-86057833D01*
X110061168Y-86057835D01*
X110055110Y-86115475D01*
X110041896Y-86241200D01*
X104121829Y-86241200D01*
X104133307Y-86110000D01*
X104114115Y-85890629D01*
X104057120Y-85677924D01*
X104001409Y-85558451D01*
X103966382Y-85483334D01*
X103966379Y-85483329D01*
X103964056Y-85478347D01*
X103942385Y-85447397D01*
X103840908Y-85302473D01*
X103840906Y-85302470D01*
X103837749Y-85297962D01*
X103682038Y-85142251D01*
X103501654Y-85015944D01*
X103496672Y-85013621D01*
X103496667Y-85013618D01*
X103369232Y-84954195D01*
X103315947Y-84907278D01*
X103296486Y-84839001D01*
X103317028Y-84771041D01*
X103369232Y-84725805D01*
X103496667Y-84666382D01*
X103496672Y-84666379D01*
X103501654Y-84664056D01*
X103682038Y-84537749D01*
X103837749Y-84382038D01*
X103964056Y-84201653D01*
X103966379Y-84196671D01*
X103966382Y-84196666D01*
X104054795Y-84007061D01*
X104057120Y-84002076D01*
X104114115Y-83789371D01*
X104133307Y-83570000D01*
X104114115Y-83350629D01*
X104057120Y-83137924D01*
X104013585Y-83044562D01*
X103966382Y-82943334D01*
X103966379Y-82943329D01*
X103964056Y-82938347D01*
X103837749Y-82757962D01*
X103682038Y-82602251D01*
X103501654Y-82475944D01*
X103496672Y-82473621D01*
X103496667Y-82473618D01*
X103369232Y-82414195D01*
X103315947Y-82367278D01*
X103296486Y-82299001D01*
X103317028Y-82231041D01*
X103369232Y-82185805D01*
X103496667Y-82126382D01*
X103496672Y-82126379D01*
X103501654Y-82124056D01*
X103682038Y-81997749D01*
X103837749Y-81842038D01*
X103964056Y-81661653D01*
X103966379Y-81656671D01*
X103966382Y-81656666D01*
X104054795Y-81467061D01*
X104057120Y-81462076D01*
X104114115Y-81249371D01*
X104133307Y-81030000D01*
X104114115Y-80810629D01*
X104057120Y-80597924D01*
X104013585Y-80504562D01*
X103966382Y-80403334D01*
X103966379Y-80403329D01*
X103964056Y-80398347D01*
X103837749Y-80217962D01*
X103682038Y-80062251D01*
X103501654Y-79935944D01*
X103496672Y-79933621D01*
X103496667Y-79933618D01*
X103369232Y-79874195D01*
X103315947Y-79827278D01*
X103296486Y-79759001D01*
X103317028Y-79691041D01*
X103369232Y-79645805D01*
X103496667Y-79586382D01*
X103496672Y-79586379D01*
X103501654Y-79584056D01*
X103682038Y-79457749D01*
X103837749Y-79302038D01*
X103903292Y-79208434D01*
X103960899Y-79126162D01*
X103960900Y-79126160D01*
X103964056Y-79121653D01*
X103966379Y-79116671D01*
X103966382Y-79116666D01*
X104045536Y-78946918D01*
X104057120Y-78922076D01*
X104114115Y-78709371D01*
X104130185Y-78525685D01*
X105563296Y-78525685D01*
X105583258Y-78715613D01*
X105642273Y-78897241D01*
X105645576Y-78902963D01*
X105645577Y-78902964D01*
X105659490Y-78927061D01*
X105737760Y-79062629D01*
X105865547Y-79204551D01*
X105964643Y-79276549D01*
X106005090Y-79305935D01*
X106020048Y-79316803D01*
X106026076Y-79319487D01*
X106026078Y-79319488D01*
X106188481Y-79391794D01*
X106194512Y-79394479D01*
X106287912Y-79414332D01*
X106374856Y-79432813D01*
X106374861Y-79432813D01*
X106381313Y-79434185D01*
X106572287Y-79434185D01*
X106578739Y-79432813D01*
X106578744Y-79432813D01*
X106665688Y-79414332D01*
X106759088Y-79394479D01*
X106765119Y-79391794D01*
X106927522Y-79319488D01*
X106927524Y-79319487D01*
X106933552Y-79316803D01*
X106948511Y-79305935D01*
X106988957Y-79276549D01*
X107088053Y-79204551D01*
X107215840Y-79062629D01*
X107294110Y-78927061D01*
X107308023Y-78902964D01*
X107308024Y-78902963D01*
X107311327Y-78897241D01*
X107370342Y-78715613D01*
X107390304Y-78525685D01*
X107370342Y-78335757D01*
X107311870Y-78155800D01*
X111456096Y-78155800D01*
X111456786Y-78162365D01*
X111468741Y-78276106D01*
X111476058Y-78345728D01*
X111535073Y-78527356D01*
X111630560Y-78692744D01*
X111758347Y-78834666D01*
X111912848Y-78946918D01*
X111918876Y-78949602D01*
X111918878Y-78949603D01*
X112081281Y-79021909D01*
X112087312Y-79024594D01*
X112180712Y-79044447D01*
X112267656Y-79062928D01*
X112267661Y-79062928D01*
X112274113Y-79064300D01*
X112465087Y-79064300D01*
X112471539Y-79062928D01*
X112471544Y-79062928D01*
X112558488Y-79044447D01*
X112651888Y-79024594D01*
X112657919Y-79021909D01*
X112820322Y-78949603D01*
X112820324Y-78949602D01*
X112826352Y-78946918D01*
X112980853Y-78834666D01*
X113108640Y-78692744D01*
X113204127Y-78527356D01*
X113263142Y-78345728D01*
X113270460Y-78276106D01*
X113282414Y-78162365D01*
X113283104Y-78155800D01*
X113263142Y-77965872D01*
X113204127Y-77784244D01*
X113108640Y-77618856D01*
X113029180Y-77530606D01*
X112985275Y-77481845D01*
X112985274Y-77481844D01*
X112980853Y-77476934D01*
X112881757Y-77404936D01*
X112831694Y-77368563D01*
X112831693Y-77368562D01*
X112826352Y-77364682D01*
X112820324Y-77361998D01*
X112820322Y-77361997D01*
X112657919Y-77289691D01*
X112657918Y-77289691D01*
X112651888Y-77287006D01*
X112558487Y-77267153D01*
X112471544Y-77248672D01*
X112471539Y-77248672D01*
X112465087Y-77247300D01*
X112274113Y-77247300D01*
X112267661Y-77248672D01*
X112267656Y-77248672D01*
X112180713Y-77267153D01*
X112087312Y-77287006D01*
X112081282Y-77289691D01*
X112081281Y-77289691D01*
X111918878Y-77361997D01*
X111918876Y-77361998D01*
X111912848Y-77364682D01*
X111907507Y-77368562D01*
X111907506Y-77368563D01*
X111857443Y-77404936D01*
X111758347Y-77476934D01*
X111753926Y-77481844D01*
X111753925Y-77481845D01*
X111710021Y-77530606D01*
X111630560Y-77618856D01*
X111535073Y-77784244D01*
X111476058Y-77965872D01*
X111456096Y-78155800D01*
X107311870Y-78155800D01*
X107311327Y-78154129D01*
X107215840Y-77988741D01*
X107088053Y-77846819D01*
X106933552Y-77734567D01*
X106927524Y-77731883D01*
X106927522Y-77731882D01*
X106765119Y-77659576D01*
X106765118Y-77659576D01*
X106759088Y-77656891D01*
X106665688Y-77637038D01*
X106578744Y-77618557D01*
X106578739Y-77618557D01*
X106572287Y-77617185D01*
X106381313Y-77617185D01*
X106374861Y-77618557D01*
X106374856Y-77618557D01*
X106287912Y-77637038D01*
X106194512Y-77656891D01*
X106188482Y-77659576D01*
X106188481Y-77659576D01*
X106026078Y-77731882D01*
X106026076Y-77731883D01*
X106020048Y-77734567D01*
X105865547Y-77846819D01*
X105737760Y-77988741D01*
X105642273Y-78154129D01*
X105583258Y-78335757D01*
X105563296Y-78525685D01*
X104130185Y-78525685D01*
X104133307Y-78490000D01*
X104114115Y-78270629D01*
X104057120Y-78057924D01*
X104011268Y-77959594D01*
X103966382Y-77863334D01*
X103966379Y-77863329D01*
X103964056Y-77858347D01*
X103953265Y-77842936D01*
X103840908Y-77682473D01*
X103840906Y-77682470D01*
X103837749Y-77677962D01*
X103682038Y-77522251D01*
X103676706Y-77518517D01*
X103602322Y-77466433D01*
X103501654Y-77395944D01*
X103496672Y-77393621D01*
X103496667Y-77393618D01*
X103368641Y-77333919D01*
X103315356Y-77287002D01*
X103295895Y-77218724D01*
X103316437Y-77150764D01*
X103368641Y-77105529D01*
X103496416Y-77045947D01*
X103505912Y-77040464D01*
X103547148Y-77011590D01*
X103555523Y-77001112D01*
X103548457Y-76987668D01*
X102882811Y-76322021D01*
X102868868Y-76314408D01*
X102867034Y-76314539D01*
X102860420Y-76318790D01*
X102190820Y-76988391D01*
X102184393Y-77000161D01*
X102193687Y-77012175D01*
X102234088Y-77040464D01*
X102243584Y-77045947D01*
X102371359Y-77105529D01*
X102424644Y-77152446D01*
X102444105Y-77220724D01*
X102423563Y-77288684D01*
X102371359Y-77333919D01*
X102243334Y-77393618D01*
X102243329Y-77393621D01*
X102238347Y-77395944D01*
X102233840Y-77399100D01*
X102233838Y-77399101D01*
X102062473Y-77519092D01*
X102062470Y-77519094D01*
X102057962Y-77522251D01*
X101902251Y-77677962D01*
X101899094Y-77682470D01*
X101899092Y-77682473D01*
X101786735Y-77842936D01*
X101775944Y-77858347D01*
X101773621Y-77863329D01*
X101773618Y-77863334D01*
X101728732Y-77959594D01*
X101682880Y-78057924D01*
X101625885Y-78270629D01*
X101606693Y-78490000D01*
X101625885Y-78709371D01*
X101682880Y-78922076D01*
X101694464Y-78946918D01*
X101773618Y-79116666D01*
X101773621Y-79116671D01*
X101775944Y-79121653D01*
X101779100Y-79126160D01*
X101779101Y-79126162D01*
X101836709Y-79208434D01*
X101902251Y-79302038D01*
X102057962Y-79457749D01*
X102238346Y-79584056D01*
X102243328Y-79586379D01*
X102243333Y-79586382D01*
X102370768Y-79645805D01*
X102424053Y-79692722D01*
X102443514Y-79760999D01*
X102422972Y-79828959D01*
X102370768Y-79874195D01*
X102243334Y-79933618D01*
X102243329Y-79933621D01*
X102238347Y-79935944D01*
X102233840Y-79939100D01*
X102233838Y-79939101D01*
X102062473Y-80059092D01*
X102062470Y-80059094D01*
X102057962Y-80062251D01*
X101902251Y-80217962D01*
X101775944Y-80398347D01*
X101773621Y-80403329D01*
X101773618Y-80403334D01*
X101726415Y-80504562D01*
X101682880Y-80597924D01*
X101625885Y-80810629D01*
X101606693Y-81030000D01*
X101625885Y-81249371D01*
X101682880Y-81462076D01*
X101685205Y-81467061D01*
X101773618Y-81656666D01*
X101773621Y-81656671D01*
X101775944Y-81661653D01*
X101902251Y-81842038D01*
X102057962Y-81997749D01*
X102238346Y-82124056D01*
X102243328Y-82126379D01*
X102243333Y-82126382D01*
X102370768Y-82185805D01*
X102424053Y-82232722D01*
X102443514Y-82300999D01*
X102422972Y-82368959D01*
X102370768Y-82414195D01*
X102243334Y-82473618D01*
X102243329Y-82473621D01*
X102238347Y-82475944D01*
X102233840Y-82479100D01*
X102233838Y-82479101D01*
X102062473Y-82599092D01*
X102062470Y-82599094D01*
X102057962Y-82602251D01*
X101902251Y-82757962D01*
X101775944Y-82938347D01*
X101773621Y-82943329D01*
X101773618Y-82943334D01*
X101726415Y-83044562D01*
X101682880Y-83137924D01*
X101625885Y-83350629D01*
X101606693Y-83570000D01*
X101625885Y-83789371D01*
X101682880Y-84002076D01*
X101685205Y-84007061D01*
X101773618Y-84196666D01*
X101773621Y-84196671D01*
X101775944Y-84201653D01*
X101902251Y-84382038D01*
X102057962Y-84537749D01*
X102238346Y-84664056D01*
X102243328Y-84666379D01*
X102243333Y-84666382D01*
X102370768Y-84725805D01*
X102424053Y-84772722D01*
X102443514Y-84840999D01*
X102422972Y-84908959D01*
X102370768Y-84954195D01*
X102243334Y-85013618D01*
X102243329Y-85013621D01*
X102238347Y-85015944D01*
X102233840Y-85019100D01*
X102233838Y-85019101D01*
X102062473Y-85139092D01*
X102062470Y-85139094D01*
X102057962Y-85142251D01*
X101902251Y-85297962D01*
X101899094Y-85302470D01*
X101899092Y-85302473D01*
X101797615Y-85447397D01*
X101775944Y-85478347D01*
X101773621Y-85483329D01*
X101773618Y-85483334D01*
X101738591Y-85558451D01*
X101682880Y-85677924D01*
X101625885Y-85890629D01*
X101606693Y-86110000D01*
X101625885Y-86329371D01*
X101682880Y-86542076D01*
X101685205Y-86547061D01*
X101773618Y-86736666D01*
X101773621Y-86736671D01*
X101775944Y-86741653D01*
X101902251Y-86922038D01*
X102057962Y-87077749D01*
X102238346Y-87204056D01*
X102243328Y-87206379D01*
X102243333Y-87206382D01*
X102370768Y-87265805D01*
X102424053Y-87312722D01*
X102443514Y-87380999D01*
X102422972Y-87448959D01*
X102370768Y-87494195D01*
X102243334Y-87553618D01*
X102243329Y-87553621D01*
X102238347Y-87555944D01*
X102233840Y-87559100D01*
X102233838Y-87559101D01*
X102062473Y-87679092D01*
X102062470Y-87679094D01*
X102057962Y-87682251D01*
X101902251Y-87837962D01*
X101775944Y-88018347D01*
X101773621Y-88023329D01*
X101773618Y-88023334D01*
X101726415Y-88124562D01*
X101682880Y-88217924D01*
X101625885Y-88430629D01*
X101606693Y-88650000D01*
X101625885Y-88869371D01*
X101682880Y-89082076D01*
X101685205Y-89087061D01*
X101773618Y-89276666D01*
X101773621Y-89276671D01*
X101775944Y-89281653D01*
X101779100Y-89286160D01*
X101779101Y-89286162D01*
X101812580Y-89333974D01*
X101902251Y-89462038D01*
X102057962Y-89617749D01*
X102238346Y-89744056D01*
X102243328Y-89746379D01*
X102243333Y-89746382D01*
X102370768Y-89805805D01*
X102424053Y-89852722D01*
X102443514Y-89920999D01*
X102422972Y-89988959D01*
X102370768Y-90034195D01*
X102243334Y-90093618D01*
X102243329Y-90093621D01*
X102238347Y-90095944D01*
X102233840Y-90099100D01*
X102233838Y-90099101D01*
X102062473Y-90219092D01*
X102062470Y-90219094D01*
X102057962Y-90222251D01*
X101902251Y-90377962D01*
X101899094Y-90382470D01*
X101899092Y-90382473D01*
X101783225Y-90547949D01*
X101775944Y-90558347D01*
X101773621Y-90563329D01*
X101773618Y-90563334D01*
X101729007Y-90659003D01*
X101682880Y-90757924D01*
X101625885Y-90970629D01*
X101606693Y-91190000D01*
X97028500Y-91190000D01*
X97028500Y-77545749D01*
X97048502Y-77477628D01*
X97102158Y-77431135D01*
X97172432Y-77421031D01*
X97200914Y-77429680D01*
X97201217Y-77428886D01*
X97405001Y-77506703D01*
X97414899Y-77509579D01*
X97518250Y-77530606D01*
X97532299Y-77529410D01*
X97536000Y-77519065D01*
X97536000Y-77518517D01*
X98044000Y-77518517D01*
X98048064Y-77532359D01*
X98061478Y-77534393D01*
X98068184Y-77533534D01*
X98078262Y-77531392D01*
X98282255Y-77470191D01*
X98291842Y-77466433D01*
X98483095Y-77372739D01*
X98491945Y-77367464D01*
X98665328Y-77243792D01*
X98673200Y-77237139D01*
X98824052Y-77086812D01*
X98830730Y-77078965D01*
X98955003Y-76906020D01*
X98960313Y-76897183D01*
X99054670Y-76706267D01*
X99058469Y-76696672D01*
X99120377Y-76492910D01*
X99122555Y-76482837D01*
X99123986Y-76471962D01*
X99121775Y-76457778D01*
X99108617Y-76454000D01*
X98062115Y-76454000D01*
X98046876Y-76458475D01*
X98045671Y-76459865D01*
X98044000Y-76467548D01*
X98044000Y-77518517D01*
X97536000Y-77518517D01*
X97536000Y-76072000D01*
X97556002Y-76003879D01*
X97609658Y-75957386D01*
X97618443Y-75955475D01*
X101607674Y-75955475D01*
X101625901Y-76163804D01*
X101627804Y-76174599D01*
X101681928Y-76376595D01*
X101685674Y-76386887D01*
X101774054Y-76576417D01*
X101779534Y-76585907D01*
X101808411Y-76627149D01*
X101818887Y-76635523D01*
X101832334Y-76628455D01*
X102497979Y-75962811D01*
X102504356Y-75951132D01*
X103234408Y-75951132D01*
X103234539Y-75952966D01*
X103238790Y-75959580D01*
X103908391Y-76629180D01*
X103920161Y-76635607D01*
X103932176Y-76626311D01*
X103960466Y-76585907D01*
X103965946Y-76576417D01*
X104054326Y-76386887D01*
X104058072Y-76376595D01*
X104112196Y-76174599D01*
X104114099Y-76163804D01*
X104132326Y-75955475D01*
X104132326Y-75944525D01*
X104114099Y-75736196D01*
X104112196Y-75725401D01*
X104058072Y-75523405D01*
X104054326Y-75513113D01*
X103965946Y-75323583D01*
X103960466Y-75314093D01*
X103931589Y-75272851D01*
X103921113Y-75264477D01*
X103907666Y-75271545D01*
X103242021Y-75937189D01*
X103234408Y-75951132D01*
X102504356Y-75951132D01*
X102505592Y-75948868D01*
X102505461Y-75947034D01*
X102501210Y-75940420D01*
X101831609Y-75270820D01*
X101819839Y-75264393D01*
X101807824Y-75273689D01*
X101779534Y-75314093D01*
X101774054Y-75323583D01*
X101685674Y-75513113D01*
X101681928Y-75523405D01*
X101627804Y-75725401D01*
X101625901Y-75736196D01*
X101607674Y-75944525D01*
X101607674Y-75955475D01*
X97618443Y-75955475D01*
X97662000Y-75946000D01*
X99108344Y-75946000D01*
X99121875Y-75942027D01*
X99123180Y-75932947D01*
X99081214Y-75765875D01*
X99077894Y-75756124D01*
X98992972Y-75560814D01*
X98988105Y-75551739D01*
X98872426Y-75372926D01*
X98866136Y-75364757D01*
X98722293Y-75206677D01*
X98691241Y-75142831D01*
X98699635Y-75072333D01*
X98744812Y-75017564D01*
X98771256Y-75003895D01*
X98878297Y-74963767D01*
X98886705Y-74960615D01*
X99003261Y-74873261D01*
X99090615Y-74756705D01*
X99141745Y-74620316D01*
X99148500Y-74558134D01*
X99148500Y-73410000D01*
X101606693Y-73410000D01*
X101625885Y-73629371D01*
X101682880Y-73842076D01*
X101685205Y-73847061D01*
X101773618Y-74036666D01*
X101773621Y-74036671D01*
X101775944Y-74041653D01*
X101779100Y-74046160D01*
X101779101Y-74046162D01*
X101807801Y-74087149D01*
X101902251Y-74222038D01*
X102057962Y-74377749D01*
X102238346Y-74504056D01*
X102243328Y-74506379D01*
X102243333Y-74506382D01*
X102371359Y-74566081D01*
X102424644Y-74612998D01*
X102444105Y-74681276D01*
X102423563Y-74749236D01*
X102371359Y-74794471D01*
X102243583Y-74854054D01*
X102234093Y-74859534D01*
X102192851Y-74888411D01*
X102184477Y-74898887D01*
X102191545Y-74912334D01*
X102857189Y-75577979D01*
X102871132Y-75585592D01*
X102872966Y-75585461D01*
X102879580Y-75581210D01*
X103549180Y-74911609D01*
X103555607Y-74899839D01*
X103546313Y-74887825D01*
X103505912Y-74859536D01*
X103496416Y-74854053D01*
X103368641Y-74794471D01*
X103315356Y-74747554D01*
X103295895Y-74679276D01*
X103316437Y-74611316D01*
X103368641Y-74566081D01*
X103496667Y-74506382D01*
X103496672Y-74506379D01*
X103501654Y-74504056D01*
X103682038Y-74377749D01*
X103837749Y-74222038D01*
X103932200Y-74087149D01*
X103960899Y-74046162D01*
X103960900Y-74046160D01*
X103964056Y-74041653D01*
X103966379Y-74036671D01*
X103966382Y-74036666D01*
X104054795Y-73847061D01*
X104057120Y-73842076D01*
X104114115Y-73629371D01*
X104132828Y-73415475D01*
X119387674Y-73415475D01*
X119405901Y-73623804D01*
X119407804Y-73634599D01*
X119461928Y-73836595D01*
X119465674Y-73846887D01*
X119554054Y-74036417D01*
X119559534Y-74045907D01*
X119588411Y-74087149D01*
X119598887Y-74095523D01*
X119612334Y-74088455D01*
X120277979Y-73422811D01*
X120284356Y-73411132D01*
X121014408Y-73411132D01*
X121014539Y-73412966D01*
X121018790Y-73419580D01*
X121688391Y-74089180D01*
X121700161Y-74095607D01*
X121712176Y-74086311D01*
X121740466Y-74045907D01*
X121745946Y-74036417D01*
X121834326Y-73846887D01*
X121838072Y-73836595D01*
X121892196Y-73634599D01*
X121894099Y-73623804D01*
X121912326Y-73415475D01*
X121912326Y-73404525D01*
X121894099Y-73196196D01*
X121892196Y-73185401D01*
X121838072Y-72983405D01*
X121834326Y-72973113D01*
X121745946Y-72783583D01*
X121740466Y-72774093D01*
X121711589Y-72732851D01*
X121701113Y-72724477D01*
X121687666Y-72731545D01*
X121022021Y-73397189D01*
X121014408Y-73411132D01*
X120284356Y-73411132D01*
X120285592Y-73408868D01*
X120285461Y-73407034D01*
X120281210Y-73400420D01*
X119611609Y-72730820D01*
X119599839Y-72724393D01*
X119587824Y-72733689D01*
X119559534Y-72774093D01*
X119554054Y-72783583D01*
X119465674Y-72973113D01*
X119461928Y-72983405D01*
X119407804Y-73185401D01*
X119405901Y-73196196D01*
X119387674Y-73404525D01*
X119387674Y-73415475D01*
X104132828Y-73415475D01*
X104133307Y-73410000D01*
X104114115Y-73190629D01*
X104057120Y-72977924D01*
X104013585Y-72884562D01*
X103966382Y-72783334D01*
X103966379Y-72783329D01*
X103964056Y-72778347D01*
X103960899Y-72773838D01*
X103840908Y-72602473D01*
X103840906Y-72602470D01*
X103837749Y-72597962D01*
X103682038Y-72442251D01*
X103501654Y-72315944D01*
X103302076Y-72222880D01*
X103089371Y-72165885D01*
X102870000Y-72146693D01*
X102650629Y-72165885D01*
X102437924Y-72222880D01*
X102344562Y-72266415D01*
X102243334Y-72313618D01*
X102243329Y-72313621D01*
X102238347Y-72315944D01*
X102233840Y-72319100D01*
X102233838Y-72319101D01*
X102062473Y-72439092D01*
X102062470Y-72439094D01*
X102057962Y-72442251D01*
X101902251Y-72597962D01*
X101899094Y-72602470D01*
X101899092Y-72602473D01*
X101779101Y-72773838D01*
X101775944Y-72778347D01*
X101773621Y-72783329D01*
X101773618Y-72783334D01*
X101726415Y-72884562D01*
X101682880Y-72977924D01*
X101625885Y-73190629D01*
X101606693Y-73410000D01*
X99148500Y-73410000D01*
X99148500Y-72761866D01*
X99141745Y-72699684D01*
X99090615Y-72563295D01*
X99003261Y-72446739D01*
X98886705Y-72359385D01*
X98750316Y-72308255D01*
X98688134Y-72301500D01*
X97154500Y-72301500D01*
X97086379Y-72281498D01*
X97039886Y-72227842D01*
X97028500Y-72175500D01*
X97028500Y-71754500D01*
X97048502Y-71686379D01*
X97102158Y-71639886D01*
X97154500Y-71628500D01*
X103981408Y-71628500D01*
X104049529Y-71648502D01*
G37*
%TD.AperFunction*%
%TD*%
M02*
