%TF.GenerationSoftware,KiCad,Pcbnew,(6.0.9)*%
%TF.CreationDate,2023-11-13T03:06:44-05:00*%
%TF.ProjectId,ALRT_v1,414c5254-5f76-4312-9e6b-696361645f70,rev?*%
%TF.SameCoordinates,Original*%
%TF.FileFunction,Copper,L4,Bot*%
%TF.FilePolarity,Positive*%
%FSLAX46Y46*%
G04 Gerber Fmt 4.6, Leading zero omitted, Abs format (unit mm)*
G04 Created by KiCad (PCBNEW (6.0.9)) date 2023-11-13 03:06:44*
%MOMM*%
%LPD*%
G01*
G04 APERTURE LIST*
%TA.AperFunction,ComponentPad*%
%ADD10R,1.700000X1.700000*%
%TD*%
%TA.AperFunction,ComponentPad*%
%ADD11O,1.700000X1.700000*%
%TD*%
%TA.AperFunction,ComponentPad*%
%ADD12C,1.500000*%
%TD*%
%TA.AperFunction,ViaPad*%
%ADD13C,0.800000*%
%TD*%
%TA.AperFunction,Conductor*%
%ADD14C,0.250000*%
%TD*%
G04 APERTURE END LIST*
D10*
%TO.P,J3,1,Pin_1*%
%TO.N,/Vib_out*%
X112263000Y-100025200D03*
D11*
%TO.P,J3,2,Pin_2*%
%TO.N,GND*%
X114803000Y-100025200D03*
%TD*%
D10*
%TO.P,J4,1,Pin_1*%
%TO.N,+3V3*%
X101051200Y-100101400D03*
D11*
%TO.P,J4,2,Pin_2*%
%TO.N,GND*%
X103591200Y-100101400D03*
%TO.P,J4,3,Pin_3*%
%TO.N,/SDA*%
X106131200Y-100101400D03*
%TO.P,J4,4,Pin_4*%
%TO.N,/SCL*%
X108671200Y-100101400D03*
%TD*%
D10*
%TO.P,J1,1,Pin_1*%
%TO.N,+BATT*%
X97790000Y-73660000D03*
D11*
%TO.P,J1,2,Pin_2*%
%TO.N,GND*%
X97790000Y-76200000D03*
%TD*%
D10*
%TO.P,J2,1,Pin_1*%
%TO.N,/Electrode_p*%
X121742200Y-100050600D03*
D11*
%TO.P,J2,2,Pin_2*%
%TO.N,/Electrode_n*%
X119202200Y-100050600D03*
%TD*%
D12*
%TO.P,U1,1,GND*%
%TO.N,GND*%
X120650000Y-73410000D03*
%TO.P,U1,2,3V3*%
%TO.N,+3V3*%
X120650000Y-75950000D03*
%TO.P,U1,3,0*%
%TO.N,/Vref*%
X120650000Y-78490000D03*
%TO.P,U1,4,1*%
%TO.N,/LED1*%
X120650000Y-81030000D03*
%TO.P,U1,5,4*%
%TO.N,/LED2*%
X120650000Y-83570000D03*
%TO.P,U1,6,6*%
%TO.N,/LED3*%
X120650000Y-86110000D03*
%TO.P,U1,7,5*%
%TO.N,/LED4*%
X120650000Y-88650000D03*
%TO.P,U1,8,7*%
%TO.N,/Shock_chg*%
X120650000Y-91190000D03*
%TO.P,U1,9,BAT*%
%TO.N,+BATT*%
X102870000Y-73410000D03*
%TO.P,U1,10,GND*%
%TO.N,GND*%
X102870000Y-75950000D03*
%TO.P,U1,11,VIN*%
%TO.N,unconnected-(U1-Pad11)*%
X102870000Y-78490000D03*
%TO.P,U1,12,20*%
%TO.N,/Vib*%
X102870000Y-81030000D03*
%TO.P,U1,13,21*%
%TO.N,/PBNO*%
X102870000Y-83570000D03*
%TO.P,U1,14,8*%
%TO.N,/SDA*%
X102870000Y-86110000D03*
%TO.P,U1,15,9*%
%TO.N,/SCL*%
X102870000Y-88650000D03*
%TO.P,U1,16,2*%
%TO.N,/Shock_dis*%
X102870000Y-91190000D03*
%TD*%
D13*
%TO.N,GND*%
X97600000Y-83198200D03*
X107238800Y-94056200D03*
X100685600Y-97028000D03*
X107878550Y-94683150D03*
X107594400Y-90779600D03*
X107670600Y-90119200D03*
%TO.N,+3V3*%
X112369600Y-78155800D03*
%TO.N,GND*%
X109474000Y-78460600D03*
%TO.N,+3V3*%
X104851200Y-94335600D03*
X106476800Y-78525685D03*
X110955400Y-86241200D03*
X114808000Y-89865200D03*
%TO.N,GND*%
X114008200Y-75094800D03*
X109067600Y-82346800D03*
X117678200Y-82397600D03*
X124663200Y-88544400D03*
%TO.N,/SCL*%
X107289600Y-71983600D03*
%TO.N,/SDA*%
X104978200Y-72034400D03*
%TD*%
D14*
%TO.N,/SDA*%
X101795000Y-95765200D02*
X106131200Y-100101400D01*
X102870000Y-86110000D02*
X101795000Y-87185000D01*
X101795000Y-87185000D02*
X101795000Y-95765200D01*
%TO.N,/SCL*%
X108671200Y-94451200D02*
X108671200Y-100101400D01*
X102870000Y-88650000D02*
X108671200Y-94451200D01*
X107289600Y-84230400D02*
X107289600Y-71983600D01*
X102870000Y-88650000D02*
X107289600Y-84230400D01*
%TO.N,/SDA*%
X104978200Y-84001800D02*
X104978200Y-72034400D01*
X102870000Y-86110000D02*
X104978200Y-84001800D01*
%TD*%
M02*
