%TF.GenerationSoftware,KiCad,Pcbnew,(6.0.9)*%
%TF.CreationDate,2023-11-13T03:06:44-05:00*%
%TF.ProjectId,ALRT_v1,414c5254-5f76-4312-9e6b-696361645f70,rev?*%
%TF.SameCoordinates,Original*%
%TF.FileFunction,Legend,Bot*%
%TF.FilePolarity,Positive*%
%FSLAX46Y46*%
G04 Gerber Fmt 4.6, Leading zero omitted, Abs format (unit mm)*
G04 Created by KiCad (PCBNEW (6.0.9)) date 2023-11-13 03:06:44*
%MOMM*%
%LPD*%
G01*
G04 APERTURE LIST*
%ADD10C,0.150000*%
%ADD11C,1.500000*%
G04 APERTURE END LIST*
D10*
X126040923Y-73807580D02*
X126040923Y-72807580D01*
X125659971Y-72807580D01*
X125564733Y-72855200D01*
X125517114Y-72902819D01*
X125469495Y-72998057D01*
X125469495Y-73140914D01*
X125517114Y-73236152D01*
X125564733Y-73283771D01*
X125659971Y-73331390D01*
X126040923Y-73331390D01*
X125040923Y-73807580D02*
X125040923Y-73140914D01*
X125040923Y-72807580D02*
X125088542Y-72855200D01*
X125040923Y-72902819D01*
X124993304Y-72855200D01*
X125040923Y-72807580D01*
X125040923Y-72902819D01*
X124564733Y-73140914D02*
X124564733Y-73807580D01*
X124564733Y-73236152D02*
X124517114Y-73188533D01*
X124421876Y-73140914D01*
X124279019Y-73140914D01*
X124183780Y-73188533D01*
X124136161Y-73283771D01*
X124136161Y-73807580D01*
X122374257Y-73807580D02*
X122945685Y-73807580D01*
X122659971Y-73807580D02*
X122659971Y-72807580D01*
X122755209Y-72950438D01*
X122850447Y-73045676D01*
X122945685Y-73093295D01*
%TO.C,U1*%
X112902904Y-81189580D02*
X112902904Y-81999104D01*
X112855285Y-82094342D01*
X112807666Y-82141961D01*
X112712428Y-82189580D01*
X112521952Y-82189580D01*
X112426714Y-82141961D01*
X112379095Y-82094342D01*
X112331476Y-81999104D01*
X112331476Y-81189580D01*
X111331476Y-82189580D02*
X111902904Y-82189580D01*
X111617190Y-82189580D02*
X111617190Y-81189580D01*
X111712428Y-81332438D01*
X111807666Y-81427676D01*
X111902904Y-81475295D01*
%TD*%
D11*
%TO.C,U1*%
X120650000Y-73410000D03*
X120650000Y-75950000D03*
X120650000Y-78490000D03*
X120650000Y-81030000D03*
X120650000Y-83570000D03*
X120650000Y-86110000D03*
X120650000Y-88650000D03*
X120650000Y-91190000D03*
X102870000Y-73410000D03*
X102870000Y-75950000D03*
X102870000Y-78490000D03*
X102870000Y-81030000D03*
X102870000Y-83570000D03*
X102870000Y-86110000D03*
X102870000Y-88650000D03*
X102870000Y-91190000D03*
%TD*%
M02*
